M48
; DRILL file {KiCad 8.0.5} date 2025-07-12T19:06:15-0400
; FORMAT={-:-/ absolute / inch / decimal}
; #@! TF.CreationDate,2025-07-12T19:06:15-04:00
; #@! TF.GenerationSoftware,Kicad,Pcbnew,8.0.5
; #@! TF.FileFunction,Plated,1,2,PTH
FMAT,2
INCH
; #@! TA.AperFunction,Plated,PTH,ComponentDrill
T1C0.0394
; #@! TA.AperFunction,Plated,PTH,ComponentDrill
T2C0.0402
; #@! TA.AperFunction,Plated,PTH,ComponentDrill
T3C0.0689
%
G90
G05
T1
X0.6602Y-6.9911
X0.6602Y-7.0911
X0.6602Y-7.1911
X0.6602Y-7.2911
X0.6602Y-7.3911
X0.6602Y-7.4911
X0.739Y-5.2864
X0.739Y-5.3864
X0.739Y-5.4864
X0.739Y-5.5864
X0.739Y-5.6864
X0.739Y-5.7864
X0.739Y-5.8864
X0.739Y-5.9864
X0.739Y-6.0864
X0.739Y-6.1864
X0.739Y-6.2864
X0.739Y-6.3864
X1.4323Y-4.9391
X1.4323Y-6.5391
X2.1323Y-4.9391
X2.1323Y-6.5391
T2
X0.972Y-4.9911
X0.972Y-5.3061
X0.972Y-5.621
X1.072Y-4.9911
X1.072Y-5.3061
X1.072Y-5.621
X1.0736Y-5.8919
X1.0736Y-5.9919
X1.0736Y-6.0919
X1.0736Y-6.1919
X1.172Y-4.9911
X1.172Y-5.3061
X1.172Y-5.621
T3
X1.2161Y-6.8218
X1.2161Y-7.1899
X1.2161Y-7.5699
X1.3689Y-6.8218
X1.3689Y-7.1899
X1.3689Y-7.5699
X1.5902Y-6.8218
X1.5902Y-7.1899
X1.5902Y-7.5699
X1.7429Y-6.8218
X1.7429Y-7.1899
X1.7429Y-7.5699
X1.9642Y-6.8218
X1.9642Y-7.2017
X1.9642Y-7.5699
X2.1169Y-6.8218
X2.1169Y-7.2017
X2.1169Y-7.5699
M30
