%TF.GenerationSoftware,KiCad,Pcbnew,8.0.5*%
%TF.CreationDate,2025-07-12T21:41:08-04:00*%
%TF.ProjectId,Car,4361722e-6b69-4636-9164-5f7063625858,rev?*%
%TF.SameCoordinates,Original*%
%TF.FileFunction,Copper,L1,Top*%
%TF.FilePolarity,Positive*%
%FSLAX46Y46*%
G04 Gerber Fmt 4.6, Leading zero omitted, Abs format (unit mm)*
G04 Created by KiCad (PCBNEW 8.0.5) date 2025-07-12 21:41:08*
%MOMM*%
%LPD*%
G01*
G04 APERTURE LIST*
%TA.AperFunction,ComponentPad*%
%ADD10C,2.540000*%
%TD*%
%TA.AperFunction,ComponentPad*%
%ADD11R,2.540000X2.540000*%
%TD*%
%TA.AperFunction,ComponentPad*%
%ADD12C,2.000000*%
%TD*%
%TA.AperFunction,Conductor*%
%ADD13C,0.300000*%
%TD*%
G04 APERTURE END LIST*
D10*
%TO.P,U3,3,GND*%
%TO.N,GND*%
X58780000Y-16500000D03*
%TO.P,U3,4,Vout*%
%TO.N,+6.5V*%
X41000000Y-16500000D03*
%TO.P,U3,2,GND*%
%TO.N,GND*%
X58780000Y-57140000D03*
D11*
%TO.P,U3,1,Vin*%
%TO.N,VCC*%
X41000000Y-57140000D03*
%TD*%
D12*
%TO.P,J12,3,Pin_3*%
%TO.N,+5V*%
X20000000Y-70500000D03*
%TO.P,J12,2,Pin_2*%
%TO.N,LED2*%
X20000000Y-75000000D03*
%TO.P,J12,1,Pin_1*%
%TO.N,GND*%
X20000000Y-79500000D03*
%TD*%
%TO.P,J11,1,Pin_1*%
%TO.N,GND*%
X26500000Y-72500000D03*
%TO.P,J11,2,Pin_2*%
%TO.N,LED1*%
X26500000Y-68000000D03*
%TO.P,J11,3,Pin_3*%
%TO.N,+5V*%
X26500000Y-63500000D03*
%TD*%
%TO.P,J10,1,Pin_1*%
%TO.N,LED2*%
X14000000Y-65000000D03*
%TO.P,J10,2,Pin_2*%
%TO.N,LED1*%
X14000000Y-60500000D03*
%TO.P,J10,3,Pin_3*%
%TO.N,BA*%
X14000000Y-56000000D03*
%TO.P,J10,4,Pin_4*%
%TO.N,BB*%
X14000000Y-51000000D03*
%TO.P,J10,5,Pin_5*%
%TO.N,AA*%
X14000000Y-46500000D03*
%TO.P,J10,6,Pin_6*%
%TO.N,AB*%
X14000000Y-42000000D03*
%TO.P,J10,7,Pin_7*%
%TO.N,IN4*%
X14000000Y-37000000D03*
%TO.P,J10,8,Pin_8*%
%TO.N,IN3*%
X14000000Y-32500000D03*
%TO.P,J10,9,Pin_9*%
%TO.N,IN2*%
X14000000Y-28000000D03*
%TO.P,J10,10,Pin_10*%
%TO.N,IN1*%
X14000000Y-23000000D03*
%TO.P,J10,11,Pin_11*%
%TO.N,+5V*%
X14000000Y-18500000D03*
%TO.P,J10,12,Pin_12*%
%TO.N,GND*%
X14000000Y-14000000D03*
%TD*%
%TO.P,J9,1,Pin_1*%
%TO.N,BA*%
X21500000Y-63000000D03*
%TO.P,J9,2,Pin_2*%
%TO.N,BB*%
X21500000Y-58500000D03*
%TO.P,J9,3,Pin_3*%
%TO.N,GND*%
X21500000Y-54000000D03*
%TO.P,J9,4,Pin_4*%
%TO.N,+6.5V*%
X21500000Y-49000000D03*
%TO.P,J9,5,Pin_5*%
%TO.N,AA*%
X21500000Y-44500000D03*
%TO.P,J9,6,Pin_6*%
%TO.N,AB*%
X21500000Y-40000000D03*
%TD*%
%TO.P,J8,1,Pin_1*%
%TO.N,IN4*%
X21500000Y-37000000D03*
%TO.P,J8,2,Pin_2*%
%TO.N,IN3*%
X21500000Y-32500000D03*
%TO.P,J8,3,Pin_3*%
%TO.N,IN2*%
X21500000Y-27500000D03*
%TO.P,J8,4,Pin_4*%
%TO.N,IN1*%
X21500000Y-23000000D03*
%TD*%
%TO.P,J7,1,Pin_1*%
%TO.N,+5V*%
X19000000Y-18500000D03*
%TO.P,J7,2,Pin_2*%
%TO.N,GND*%
X23500000Y-18500000D03*
%TO.P,J7,3,Pin_3*%
%TO.N,+6.5V*%
X28000000Y-18500000D03*
%TD*%
%TO.P,J6,1,Pin_1*%
%TO.N,Net-(J1-Pin_1)*%
X43500000Y-68000000D03*
%TO.P,J6,2,Pin_2*%
%TO.N,Net-(J1-Pin_2)*%
X48000000Y-68000000D03*
%TD*%
%TO.P,J5,1,Pin_1*%
%TO.N,Net-(J3-Pin_1)*%
X52500000Y-68500000D03*
%TO.P,J5,2,Pin_2*%
%TO.N,Net-(J3-Pin_2)*%
X57000000Y-68500000D03*
%TD*%
%TO.P,J4,1,Pin_1*%
%TO.N,Net-(J3-Pin_1)*%
X52500000Y-64500000D03*
%TO.P,J4,2,Pin_2*%
%TO.N,Net-(J3-Pin_2)*%
X57000000Y-64500000D03*
%TD*%
%TO.P,J3,1,Pin_1*%
%TO.N,Net-(J3-Pin_1)*%
X52500000Y-61500000D03*
%TO.P,J3,2,Pin_2*%
%TO.N,Net-(J3-Pin_2)*%
X57000000Y-61500000D03*
%TD*%
%TO.P,J2,1,Pin_1*%
%TO.N,Net-(J1-Pin_1)*%
X43500000Y-64500000D03*
%TO.P,J2,2,Pin_2*%
%TO.N,Net-(J1-Pin_2)*%
X48000000Y-64500000D03*
%TD*%
%TO.P,J1,1,Pin_1*%
%TO.N,Net-(J1-Pin_1)*%
X43500000Y-61500000D03*
%TO.P,J1,2,Pin_2*%
%TO.N,Net-(J1-Pin_2)*%
X48000000Y-61500000D03*
%TD*%
D13*
%TO.N,Net-(J3-Pin_2)*%
X57000000Y-61500000D02*
X57000000Y-68500000D01*
%TO.N,Net-(J3-Pin_1)*%
X52500000Y-61500000D02*
X52500000Y-68500000D01*
%TO.N,Net-(J1-Pin_2)*%
X48000000Y-61500000D02*
X48000000Y-68000000D01*
%TO.N,Net-(J1-Pin_1)*%
X43500000Y-61500000D02*
X43500000Y-68000000D01*
%TO.N,+5V*%
X48000000Y-14500000D02*
X47000000Y-13500000D01*
X24000000Y-13500000D02*
X19000000Y-18500000D01*
X48000000Y-42000000D02*
X48000000Y-14500000D01*
X47000000Y-13500000D02*
X24000000Y-13500000D01*
X26500000Y-63500000D02*
X48000000Y-42000000D01*
%TO.N,+6.5V*%
X28000000Y-18500000D02*
X30000000Y-16500000D01*
X30000000Y-16500000D02*
X41000000Y-16500000D01*
X28000000Y-42500000D02*
X21500000Y-49000000D01*
X28000000Y-18500000D02*
X28000000Y-42500000D01*
%TO.N,+5V*%
X14000000Y-18500000D02*
X19000000Y-18500000D01*
X26500000Y-63000000D02*
X26000000Y-62500000D01*
X26500000Y-63500000D02*
X26500000Y-63000000D01*
X32000000Y-69000000D02*
X32000000Y-70500000D01*
X26500000Y-63500000D02*
X32000000Y-69000000D01*
X32000000Y-70500000D02*
X20000000Y-70500000D01*
%TO.N,LED2*%
X14000000Y-69000000D02*
X20000000Y-75000000D01*
X14000000Y-65000000D02*
X14000000Y-69000000D01*
%TO.N,LED1*%
X21500000Y-68000000D02*
X26500000Y-68000000D01*
X14000000Y-60500000D02*
X21500000Y-68000000D01*
%TO.N,BA*%
X21000000Y-63000000D02*
X21500000Y-63000000D01*
X14000000Y-56000000D02*
X21000000Y-63000000D01*
%TO.N,BB*%
X14000000Y-51000000D02*
X21500000Y-58500000D01*
%TO.N,AA*%
X19500000Y-46500000D02*
X14000000Y-46500000D01*
X21500000Y-44500000D02*
X19500000Y-46500000D01*
%TO.N,AB*%
X14000000Y-42000000D02*
X16000000Y-40000000D01*
X16000000Y-40000000D02*
X21500000Y-40000000D01*
%TO.N,IN4*%
X14000000Y-37000000D02*
X21500000Y-37000000D01*
%TO.N,IN3*%
X14000000Y-32500000D02*
X21500000Y-32500000D01*
%TO.N,IN2*%
X21000000Y-28000000D02*
X21500000Y-27500000D01*
X14000000Y-28000000D02*
X21000000Y-28000000D01*
%TO.N,IN1*%
X14000000Y-23000000D02*
X21500000Y-23000000D01*
%TD*%
%TA.AperFunction,Conductor*%
%TO.N,GND*%
G36*
X61442539Y-12520185D02*
G01*
X61488294Y-12572989D01*
X61499500Y-12624500D01*
X61499500Y-81375500D01*
X61479815Y-81442539D01*
X61427011Y-81488294D01*
X61375500Y-81499500D01*
X12624500Y-81499500D01*
X12557461Y-81479815D01*
X12511706Y-81427011D01*
X12500500Y-81375500D01*
X12500500Y-79499994D01*
X18494859Y-79499994D01*
X18494859Y-79500005D01*
X18515385Y-79747729D01*
X18515387Y-79747738D01*
X18576412Y-79988717D01*
X18676266Y-80216364D01*
X18776564Y-80369882D01*
X19517037Y-79629409D01*
X19534075Y-79692993D01*
X19599901Y-79807007D01*
X19692993Y-79900099D01*
X19807007Y-79965925D01*
X19870590Y-79982962D01*
X19129942Y-80723609D01*
X19176768Y-80760055D01*
X19176770Y-80760056D01*
X19395385Y-80878364D01*
X19395396Y-80878369D01*
X19630506Y-80959083D01*
X19875707Y-81000000D01*
X20124293Y-81000000D01*
X20369493Y-80959083D01*
X20604603Y-80878369D01*
X20604614Y-80878364D01*
X20823228Y-80760057D01*
X20823231Y-80760055D01*
X20870056Y-80723609D01*
X20129409Y-79982962D01*
X20192993Y-79965925D01*
X20307007Y-79900099D01*
X20400099Y-79807007D01*
X20465925Y-79692993D01*
X20482962Y-79629410D01*
X21223434Y-80369882D01*
X21323731Y-80216369D01*
X21423587Y-79988717D01*
X21484612Y-79747738D01*
X21484614Y-79747729D01*
X21505141Y-79500005D01*
X21505141Y-79499994D01*
X21484614Y-79252270D01*
X21484612Y-79252261D01*
X21423587Y-79011282D01*
X21323731Y-78783630D01*
X21223434Y-78630116D01*
X20482962Y-79370589D01*
X20465925Y-79307007D01*
X20400099Y-79192993D01*
X20307007Y-79099901D01*
X20192993Y-79034075D01*
X20129410Y-79017037D01*
X20870057Y-78276390D01*
X20870056Y-78276389D01*
X20823229Y-78239943D01*
X20604614Y-78121635D01*
X20604603Y-78121630D01*
X20369493Y-78040916D01*
X20124293Y-78000000D01*
X19875707Y-78000000D01*
X19630506Y-78040916D01*
X19395396Y-78121630D01*
X19395390Y-78121632D01*
X19176761Y-78239949D01*
X19129942Y-78276388D01*
X19129942Y-78276390D01*
X19870590Y-79017037D01*
X19807007Y-79034075D01*
X19692993Y-79099901D01*
X19599901Y-79192993D01*
X19534075Y-79307007D01*
X19517037Y-79370589D01*
X18776564Y-78630116D01*
X18676267Y-78783632D01*
X18576412Y-79011282D01*
X18515387Y-79252261D01*
X18515385Y-79252270D01*
X18494859Y-79499994D01*
X12500500Y-79499994D01*
X12500500Y-65864758D01*
X12520185Y-65797719D01*
X12572989Y-65751964D01*
X12642147Y-65742020D01*
X12705703Y-65771045D01*
X12728309Y-65796937D01*
X12811833Y-65924782D01*
X12811836Y-65924785D01*
X12980256Y-66107738D01*
X13102764Y-66203090D01*
X13176488Y-66260472D01*
X13176492Y-66260475D01*
X13284517Y-66318934D01*
X13334108Y-66368153D01*
X13349500Y-66427989D01*
X13349500Y-69064069D01*
X13358187Y-69107737D01*
X13358187Y-69107740D01*
X13360858Y-69121169D01*
X13374499Y-69189744D01*
X13423535Y-69308127D01*
X13494723Y-69414669D01*
X13494726Y-69414673D01*
X13494727Y-69414674D01*
X18529194Y-74449140D01*
X18562679Y-74510463D01*
X18561719Y-74567261D01*
X18514892Y-74752174D01*
X18514890Y-74752187D01*
X18494357Y-74999994D01*
X18494357Y-75000005D01*
X18514890Y-75247812D01*
X18514892Y-75247824D01*
X18575936Y-75488881D01*
X18675826Y-75716606D01*
X18811833Y-75924782D01*
X18811836Y-75924785D01*
X18980256Y-76107738D01*
X19176491Y-76260474D01*
X19395190Y-76378828D01*
X19630386Y-76459571D01*
X19875665Y-76500500D01*
X20124335Y-76500500D01*
X20369614Y-76459571D01*
X20604810Y-76378828D01*
X20823509Y-76260474D01*
X21019744Y-76107738D01*
X21188164Y-75924785D01*
X21324173Y-75716607D01*
X21424063Y-75488881D01*
X21485108Y-75247821D01*
X21505643Y-75000000D01*
X21485108Y-74752179D01*
X21424063Y-74511119D01*
X21423775Y-74510463D01*
X21324173Y-74283393D01*
X21188166Y-74075217D01*
X21166557Y-74051744D01*
X21019744Y-73892262D01*
X20823509Y-73739526D01*
X20823507Y-73739525D01*
X20823506Y-73739524D01*
X20604811Y-73621172D01*
X20604802Y-73621169D01*
X20369616Y-73540429D01*
X20124335Y-73499500D01*
X19875665Y-73499500D01*
X19630382Y-73540429D01*
X19577029Y-73558744D01*
X19507231Y-73561892D01*
X19449089Y-73529143D01*
X14686819Y-68766873D01*
X14653334Y-68705550D01*
X14650500Y-68679192D01*
X14650500Y-66427989D01*
X14670185Y-66360950D01*
X14715483Y-66318934D01*
X14823507Y-66260475D01*
X14823506Y-66260475D01*
X14823509Y-66260474D01*
X15019744Y-66107738D01*
X15188164Y-65924785D01*
X15324173Y-65716607D01*
X15424063Y-65488881D01*
X15485108Y-65247821D01*
X15485109Y-65247812D01*
X15505643Y-65000005D01*
X15505643Y-64999994D01*
X15485109Y-64752187D01*
X15485107Y-64752175D01*
X15424063Y-64511118D01*
X15324173Y-64283393D01*
X15188166Y-64075217D01*
X15165743Y-64050859D01*
X15019744Y-63892262D01*
X14823509Y-63739526D01*
X14823507Y-63739525D01*
X14823506Y-63739524D01*
X14604811Y-63621172D01*
X14604802Y-63621169D01*
X14369616Y-63540429D01*
X14124335Y-63499500D01*
X13875665Y-63499500D01*
X13630383Y-63540429D01*
X13395197Y-63621169D01*
X13395188Y-63621172D01*
X13176493Y-63739524D01*
X12980257Y-63892261D01*
X12980256Y-63892262D01*
X12834257Y-64050859D01*
X12811836Y-64075215D01*
X12728309Y-64203063D01*
X12675162Y-64248419D01*
X12605931Y-64257843D01*
X12542595Y-64228341D01*
X12505264Y-64169281D01*
X12500500Y-64135241D01*
X12500500Y-61364758D01*
X12520185Y-61297719D01*
X12572989Y-61251964D01*
X12642147Y-61242020D01*
X12705703Y-61271045D01*
X12728309Y-61296937D01*
X12811833Y-61424782D01*
X12811836Y-61424785D01*
X12980256Y-61607738D01*
X13176491Y-61760474D01*
X13395190Y-61878828D01*
X13630386Y-61959571D01*
X13875665Y-62000500D01*
X14124335Y-62000500D01*
X14369614Y-61959571D01*
X14422966Y-61941254D01*
X14492762Y-61938104D01*
X14550909Y-61970855D01*
X21085325Y-68505272D01*
X21085332Y-68505278D01*
X21173320Y-68564069D01*
X21173321Y-68564069D01*
X21191873Y-68576465D01*
X21310256Y-68625501D01*
X21310260Y-68625501D01*
X21310261Y-68625502D01*
X21435928Y-68650500D01*
X21435931Y-68650500D01*
X21564069Y-68650500D01*
X25066163Y-68650500D01*
X25133202Y-68670185D01*
X25172561Y-68712615D01*
X25173022Y-68712314D01*
X25174785Y-68715012D01*
X25175214Y-68715475D01*
X25175826Y-68716606D01*
X25311833Y-68924782D01*
X25344245Y-68959991D01*
X25480256Y-69107738D01*
X25676491Y-69260474D01*
X25895190Y-69378828D01*
X26130386Y-69459571D01*
X26375665Y-69500500D01*
X26624335Y-69500500D01*
X26869614Y-69459571D01*
X27104810Y-69378828D01*
X27323509Y-69260474D01*
X27519744Y-69107738D01*
X27688164Y-68924785D01*
X27824173Y-68716607D01*
X27924063Y-68488881D01*
X27985108Y-68247821D01*
X28005643Y-68000000D01*
X27987694Y-67783393D01*
X27985109Y-67752187D01*
X27985107Y-67752175D01*
X27924063Y-67511118D01*
X27824173Y-67283393D01*
X27688166Y-67075217D01*
X27666557Y-67051744D01*
X27519744Y-66892262D01*
X27323509Y-66739526D01*
X27323507Y-66739525D01*
X27323506Y-66739524D01*
X27104811Y-66621172D01*
X27104802Y-66621169D01*
X26869616Y-66540429D01*
X26624335Y-66499500D01*
X26375665Y-66499500D01*
X26130383Y-66540429D01*
X25895197Y-66621169D01*
X25895188Y-66621172D01*
X25676493Y-66739524D01*
X25480257Y-66892261D01*
X25311833Y-67075217D01*
X25175826Y-67283393D01*
X25175214Y-67284525D01*
X25174842Y-67284898D01*
X25173022Y-67287686D01*
X25172448Y-67287311D01*
X25125991Y-67334112D01*
X25066163Y-67349500D01*
X21820808Y-67349500D01*
X21753769Y-67329815D01*
X21733127Y-67313181D01*
X15470805Y-61050859D01*
X15437320Y-60989536D01*
X15438279Y-60932739D01*
X15485108Y-60747821D01*
X15485109Y-60747812D01*
X15505643Y-60500005D01*
X15505643Y-60499994D01*
X15485109Y-60252187D01*
X15485107Y-60252175D01*
X15424063Y-60011118D01*
X15324173Y-59783393D01*
X15188166Y-59575217D01*
X15166557Y-59551744D01*
X15019744Y-59392262D01*
X14823509Y-59239526D01*
X14823507Y-59239525D01*
X14823506Y-59239524D01*
X14604811Y-59121172D01*
X14604802Y-59121169D01*
X14369616Y-59040429D01*
X14124335Y-58999500D01*
X13875665Y-58999500D01*
X13630383Y-59040429D01*
X13395197Y-59121169D01*
X13395188Y-59121172D01*
X13176493Y-59239524D01*
X12980257Y-59392261D01*
X12980256Y-59392262D01*
X12811836Y-59575215D01*
X12728309Y-59703063D01*
X12675162Y-59748419D01*
X12605931Y-59757843D01*
X12542595Y-59728341D01*
X12505264Y-59669281D01*
X12500500Y-59635241D01*
X12500500Y-56864758D01*
X12520185Y-56797719D01*
X12572989Y-56751964D01*
X12642147Y-56742020D01*
X12705703Y-56771045D01*
X12728309Y-56796937D01*
X12811833Y-56924782D01*
X12811836Y-56924785D01*
X12980256Y-57107738D01*
X13176491Y-57260474D01*
X13395190Y-57378828D01*
X13630386Y-57459571D01*
X13875665Y-57500500D01*
X14124335Y-57500500D01*
X14369614Y-57459571D01*
X14422966Y-57441254D01*
X14492762Y-57438104D01*
X14550909Y-57470855D01*
X19960272Y-62880218D01*
X19993757Y-62941541D01*
X19996168Y-62978134D01*
X19994357Y-62999999D01*
X19994357Y-63000005D01*
X20014890Y-63247812D01*
X20014892Y-63247824D01*
X20075936Y-63488881D01*
X20175826Y-63716606D01*
X20311833Y-63924782D01*
X20311836Y-63924785D01*
X20480256Y-64107738D01*
X20676491Y-64260474D01*
X20895190Y-64378828D01*
X21130386Y-64459571D01*
X21375665Y-64500500D01*
X21624335Y-64500500D01*
X21869614Y-64459571D01*
X22104810Y-64378828D01*
X22323509Y-64260474D01*
X22519744Y-64107738D01*
X22688164Y-63924785D01*
X22824173Y-63716607D01*
X22924063Y-63488881D01*
X22985108Y-63247821D01*
X22985109Y-63247812D01*
X23005643Y-63000005D01*
X23005643Y-62999994D01*
X22985109Y-62752187D01*
X22985107Y-62752175D01*
X22924063Y-62511118D01*
X22824173Y-62283393D01*
X22688166Y-62075217D01*
X22618463Y-61999500D01*
X22519744Y-61892262D01*
X22323509Y-61739526D01*
X22323507Y-61739525D01*
X22323506Y-61739524D01*
X22104811Y-61621172D01*
X22104802Y-61621169D01*
X21869616Y-61540429D01*
X21624335Y-61499500D01*
X21375665Y-61499500D01*
X21130383Y-61540429D01*
X20895197Y-61621169D01*
X20895183Y-61621175D01*
X20746765Y-61701495D01*
X20678437Y-61716090D01*
X20613065Y-61691427D01*
X20600067Y-61680121D01*
X15470805Y-56550859D01*
X15437320Y-56489536D01*
X15438279Y-56432739D01*
X15485108Y-56247821D01*
X15494033Y-56140118D01*
X15505643Y-56000005D01*
X15505643Y-55999994D01*
X15485109Y-55752187D01*
X15485107Y-55752175D01*
X15424063Y-55511118D01*
X15324173Y-55283393D01*
X15188166Y-55075217D01*
X15166557Y-55051744D01*
X15019744Y-54892262D01*
X14823509Y-54739526D01*
X14823507Y-54739525D01*
X14823506Y-54739524D01*
X14604811Y-54621172D01*
X14604802Y-54621169D01*
X14369616Y-54540429D01*
X14124335Y-54499500D01*
X13875665Y-54499500D01*
X13630383Y-54540429D01*
X13395197Y-54621169D01*
X13395188Y-54621172D01*
X13176493Y-54739524D01*
X12980257Y-54892261D01*
X12811836Y-55075215D01*
X12728309Y-55203063D01*
X12675162Y-55248419D01*
X12605931Y-55257843D01*
X12542595Y-55228341D01*
X12505264Y-55169281D01*
X12500500Y-55135241D01*
X12500500Y-51864758D01*
X12520185Y-51797719D01*
X12572989Y-51751964D01*
X12642147Y-51742020D01*
X12705703Y-51771045D01*
X12728309Y-51796937D01*
X12811833Y-51924782D01*
X12811836Y-51924785D01*
X12980256Y-52107738D01*
X13176491Y-52260474D01*
X13395190Y-52378828D01*
X13630386Y-52459571D01*
X13875665Y-52500500D01*
X14124335Y-52500500D01*
X14369614Y-52459571D01*
X14422966Y-52441254D01*
X14492762Y-52438104D01*
X14550909Y-52470855D01*
X20029194Y-57949140D01*
X20062679Y-58010463D01*
X20061719Y-58067261D01*
X20014892Y-58252174D01*
X20014890Y-58252187D01*
X19994357Y-58499994D01*
X19994357Y-58500005D01*
X20014890Y-58747812D01*
X20014892Y-58747824D01*
X20075936Y-58988881D01*
X20175826Y-59216606D01*
X20311833Y-59424782D01*
X20311836Y-59424785D01*
X20480256Y-59607738D01*
X20676491Y-59760474D01*
X20895190Y-59878828D01*
X21130386Y-59959571D01*
X21375665Y-60000500D01*
X21624335Y-60000500D01*
X21869614Y-59959571D01*
X22104810Y-59878828D01*
X22323509Y-59760474D01*
X22519744Y-59607738D01*
X22688164Y-59424785D01*
X22824173Y-59216607D01*
X22924063Y-58988881D01*
X22985108Y-58747821D01*
X23000911Y-58557112D01*
X23005643Y-58500005D01*
X23005643Y-58499994D01*
X22985109Y-58252187D01*
X22985107Y-58252175D01*
X22924063Y-58011118D01*
X22824173Y-57783393D01*
X22688166Y-57575217D01*
X22619384Y-57500500D01*
X22519744Y-57392262D01*
X22323509Y-57239526D01*
X22323507Y-57239525D01*
X22323506Y-57239524D01*
X22104811Y-57121172D01*
X22104802Y-57121169D01*
X21869616Y-57040429D01*
X21624335Y-56999500D01*
X21375665Y-56999500D01*
X21130382Y-57040429D01*
X21077029Y-57058744D01*
X21007231Y-57061892D01*
X20949089Y-57029143D01*
X17919940Y-53999994D01*
X19994859Y-53999994D01*
X19994859Y-54000005D01*
X20015385Y-54247729D01*
X20015387Y-54247738D01*
X20076412Y-54488717D01*
X20176266Y-54716364D01*
X20276564Y-54869882D01*
X21017037Y-54129409D01*
X21034075Y-54192993D01*
X21099901Y-54307007D01*
X21192993Y-54400099D01*
X21307007Y-54465925D01*
X21370590Y-54482962D01*
X20629942Y-55223609D01*
X20676768Y-55260055D01*
X20676770Y-55260056D01*
X20895385Y-55378364D01*
X20895396Y-55378369D01*
X21130506Y-55459083D01*
X21375707Y-55500000D01*
X21624293Y-55500000D01*
X21869493Y-55459083D01*
X22104603Y-55378369D01*
X22104614Y-55378364D01*
X22323228Y-55260057D01*
X22323231Y-55260055D01*
X22370056Y-55223609D01*
X21629409Y-54482962D01*
X21692993Y-54465925D01*
X21807007Y-54400099D01*
X21900099Y-54307007D01*
X21965925Y-54192993D01*
X21982962Y-54129409D01*
X22723434Y-54869882D01*
X22823731Y-54716369D01*
X22923587Y-54488717D01*
X22984612Y-54247738D01*
X22984614Y-54247729D01*
X23005141Y-54000005D01*
X23005141Y-53999994D01*
X22984614Y-53752270D01*
X22984612Y-53752261D01*
X22923587Y-53511282D01*
X22823731Y-53283630D01*
X22723434Y-53130116D01*
X21982962Y-53870589D01*
X21965925Y-53807007D01*
X21900099Y-53692993D01*
X21807007Y-53599901D01*
X21692993Y-53534075D01*
X21629410Y-53517037D01*
X22370057Y-52776390D01*
X22370056Y-52776389D01*
X22323229Y-52739943D01*
X22104614Y-52621635D01*
X22104603Y-52621630D01*
X21869493Y-52540916D01*
X21624293Y-52500000D01*
X21375707Y-52500000D01*
X21130506Y-52540916D01*
X20895396Y-52621630D01*
X20895390Y-52621632D01*
X20676761Y-52739949D01*
X20629942Y-52776388D01*
X20629942Y-52776390D01*
X21370590Y-53517037D01*
X21307007Y-53534075D01*
X21192993Y-53599901D01*
X21099901Y-53692993D01*
X21034075Y-53807007D01*
X21017037Y-53870589D01*
X20276564Y-53130116D01*
X20176267Y-53283632D01*
X20076412Y-53511282D01*
X20015387Y-53752261D01*
X20015385Y-53752270D01*
X19994859Y-53999994D01*
X17919940Y-53999994D01*
X15470805Y-51550859D01*
X15437320Y-51489536D01*
X15438279Y-51432739D01*
X15485108Y-51247821D01*
X15505643Y-51000000D01*
X15485108Y-50752179D01*
X15424063Y-50511119D01*
X15401451Y-50459570D01*
X15324173Y-50283393D01*
X15188166Y-50075217D01*
X15166557Y-50051744D01*
X15019744Y-49892262D01*
X14823509Y-49739526D01*
X14823507Y-49739525D01*
X14823506Y-49739524D01*
X14604811Y-49621172D01*
X14604802Y-49621169D01*
X14369616Y-49540429D01*
X14124335Y-49499500D01*
X13875665Y-49499500D01*
X13630383Y-49540429D01*
X13395197Y-49621169D01*
X13395188Y-49621172D01*
X13176493Y-49739524D01*
X12980257Y-49892261D01*
X12980256Y-49892262D01*
X12811836Y-50075215D01*
X12728309Y-50203063D01*
X12675162Y-50248419D01*
X12605931Y-50257843D01*
X12542595Y-50228341D01*
X12505264Y-50169281D01*
X12500500Y-50135241D01*
X12500500Y-48999994D01*
X19994357Y-48999994D01*
X19994357Y-49000005D01*
X20014890Y-49247812D01*
X20014892Y-49247824D01*
X20075936Y-49488881D01*
X20175826Y-49716606D01*
X20311833Y-49924782D01*
X20311836Y-49924785D01*
X20480256Y-50107738D01*
X20676491Y-50260474D01*
X20895190Y-50378828D01*
X21130386Y-50459571D01*
X21375665Y-50500500D01*
X21624335Y-50500500D01*
X21869614Y-50459571D01*
X22104810Y-50378828D01*
X22323509Y-50260474D01*
X22519744Y-50107738D01*
X22688164Y-49924785D01*
X22824173Y-49716607D01*
X22924063Y-49488881D01*
X22985108Y-49247821D01*
X23005643Y-49000000D01*
X22985108Y-48752179D01*
X22938280Y-48567260D01*
X22940904Y-48497442D01*
X22970802Y-48449142D01*
X28505276Y-42914669D01*
X28576465Y-42808127D01*
X28625501Y-42689744D01*
X28633307Y-42650500D01*
X28650500Y-42564069D01*
X28650500Y-19927989D01*
X28670185Y-19860950D01*
X28715483Y-19818934D01*
X28823507Y-19760475D01*
X28823506Y-19760475D01*
X28823509Y-19760474D01*
X29019744Y-19607738D01*
X29188164Y-19424785D01*
X29324173Y-19216607D01*
X29424063Y-18988881D01*
X29485108Y-18747821D01*
X29505643Y-18500000D01*
X29489651Y-18307007D01*
X29485109Y-18252187D01*
X29485108Y-18252183D01*
X29485108Y-18252179D01*
X29479732Y-18230951D01*
X29458333Y-18146447D01*
X29438280Y-18067260D01*
X29440904Y-17997442D01*
X29470802Y-17949142D01*
X30233126Y-17186819D01*
X30294449Y-17153334D01*
X30320807Y-17150500D01*
X39268784Y-17150500D01*
X39335823Y-17170185D01*
X39381578Y-17222989D01*
X39384212Y-17229198D01*
X39400276Y-17270128D01*
X39400361Y-17270345D01*
X39533042Y-17500155D01*
X39698492Y-17707623D01*
X39893016Y-17888114D01*
X40112268Y-18037598D01*
X40351350Y-18152734D01*
X40604922Y-18230950D01*
X40604923Y-18230950D01*
X40604926Y-18230951D01*
X40867311Y-18270499D01*
X40867316Y-18270499D01*
X40867319Y-18270500D01*
X40867320Y-18270500D01*
X41132680Y-18270500D01*
X41132681Y-18270500D01*
X41132688Y-18270499D01*
X41395073Y-18230951D01*
X41395074Y-18230950D01*
X41395078Y-18230950D01*
X41648650Y-18152734D01*
X41887733Y-18037598D01*
X42106984Y-17888114D01*
X42301508Y-17707623D01*
X42466958Y-17500155D01*
X42599639Y-17270345D01*
X42696586Y-17023327D01*
X42755635Y-16764619D01*
X42755641Y-16764540D01*
X42775465Y-16500004D01*
X42775465Y-16499995D01*
X42755636Y-16235390D01*
X42755635Y-16235385D01*
X42755635Y-16235381D01*
X42696586Y-15976673D01*
X42599639Y-15729655D01*
X42466958Y-15499845D01*
X42301508Y-15292377D01*
X42106984Y-15111886D01*
X41887733Y-14962402D01*
X41887732Y-14962401D01*
X41887725Y-14962397D01*
X41648655Y-14847268D01*
X41648636Y-14847261D01*
X41395083Y-14769051D01*
X41395073Y-14769048D01*
X41132688Y-14729500D01*
X41132681Y-14729500D01*
X40867319Y-14729500D01*
X40867311Y-14729500D01*
X40604926Y-14769048D01*
X40604916Y-14769051D01*
X40351363Y-14847261D01*
X40351344Y-14847268D01*
X40112276Y-14962397D01*
X40112274Y-14962398D01*
X39893015Y-15111886D01*
X39698494Y-15292375D01*
X39698492Y-15292377D01*
X39533042Y-15499845D01*
X39400361Y-15729654D01*
X39384212Y-15770802D01*
X39341396Y-15826016D01*
X39275526Y-15849317D01*
X39268784Y-15849500D01*
X29935929Y-15849500D01*
X29810261Y-15874497D01*
X29810255Y-15874499D01*
X29691875Y-15923533D01*
X29691866Y-15923538D01*
X29585331Y-15994723D01*
X29585327Y-15994726D01*
X28550909Y-17029144D01*
X28489586Y-17062629D01*
X28422965Y-17058744D01*
X28369616Y-17040429D01*
X28124335Y-16999500D01*
X27875665Y-16999500D01*
X27630383Y-17040429D01*
X27395197Y-17121169D01*
X27395188Y-17121172D01*
X27176493Y-17239524D01*
X26980257Y-17392261D01*
X26811833Y-17575217D01*
X26675826Y-17783393D01*
X26575936Y-18011118D01*
X26514892Y-18252175D01*
X26514890Y-18252187D01*
X26494357Y-18499994D01*
X26494357Y-18500005D01*
X26514890Y-18747812D01*
X26514892Y-18747824D01*
X26575936Y-18988881D01*
X26675826Y-19216606D01*
X26811833Y-19424782D01*
X26811836Y-19424785D01*
X26980256Y-19607738D01*
X27102764Y-19703090D01*
X27176488Y-19760472D01*
X27176492Y-19760475D01*
X27284517Y-19818934D01*
X27334108Y-19868153D01*
X27349500Y-19927989D01*
X27349500Y-42179191D01*
X27329815Y-42246230D01*
X27313181Y-42266872D01*
X22050909Y-47529143D01*
X21989586Y-47562628D01*
X21922967Y-47558744D01*
X21869613Y-47540428D01*
X21624335Y-47499500D01*
X21375665Y-47499500D01*
X21130383Y-47540429D01*
X20895197Y-47621169D01*
X20895188Y-47621172D01*
X20676493Y-47739524D01*
X20480257Y-47892261D01*
X20311833Y-48075217D01*
X20175826Y-48283393D01*
X20075936Y-48511118D01*
X20014892Y-48752175D01*
X20014890Y-48752187D01*
X19994357Y-48999994D01*
X12500500Y-48999994D01*
X12500500Y-47364758D01*
X12520185Y-47297719D01*
X12572989Y-47251964D01*
X12642147Y-47242020D01*
X12705703Y-47271045D01*
X12728309Y-47296937D01*
X12811833Y-47424782D01*
X12811836Y-47424785D01*
X12980256Y-47607738D01*
X13176491Y-47760474D01*
X13395190Y-47878828D01*
X13630386Y-47959571D01*
X13875665Y-48000500D01*
X14124335Y-48000500D01*
X14369614Y-47959571D01*
X14604810Y-47878828D01*
X14823509Y-47760474D01*
X15019744Y-47607738D01*
X15188164Y-47424785D01*
X15324173Y-47216607D01*
X15324175Y-47216601D01*
X15324786Y-47215475D01*
X15325157Y-47215101D01*
X15326978Y-47212314D01*
X15327551Y-47212688D01*
X15374009Y-47165888D01*
X15433837Y-47150500D01*
X19564071Y-47150500D01*
X19648615Y-47133682D01*
X19689744Y-47125501D01*
X19808127Y-47076465D01*
X19914669Y-47005277D01*
X20949091Y-45970852D01*
X21010412Y-45937369D01*
X21077030Y-45941253D01*
X21130386Y-45959571D01*
X21130390Y-45959571D01*
X21130391Y-45959572D01*
X21375665Y-46000500D01*
X21624335Y-46000500D01*
X21869614Y-45959571D01*
X22104810Y-45878828D01*
X22323509Y-45760474D01*
X22519744Y-45607738D01*
X22688164Y-45424785D01*
X22824173Y-45216607D01*
X22924063Y-44988881D01*
X22985108Y-44747821D01*
X23005643Y-44500000D01*
X22985108Y-44252179D01*
X22924063Y-44011119D01*
X22824173Y-43783393D01*
X22688166Y-43575217D01*
X22581705Y-43459570D01*
X22519744Y-43392262D01*
X22323509Y-43239526D01*
X22323507Y-43239525D01*
X22323506Y-43239524D01*
X22104811Y-43121172D01*
X22104802Y-43121169D01*
X21869616Y-43040429D01*
X21624335Y-42999500D01*
X21375665Y-42999500D01*
X21130383Y-43040429D01*
X20895197Y-43121169D01*
X20895188Y-43121172D01*
X20676493Y-43239524D01*
X20480257Y-43392261D01*
X20311833Y-43575217D01*
X20175826Y-43783393D01*
X20075936Y-44011118D01*
X20014892Y-44252175D01*
X20014890Y-44252187D01*
X19994357Y-44499994D01*
X19994357Y-44500005D01*
X20014890Y-44747812D01*
X20014892Y-44747824D01*
X20061719Y-44932737D01*
X20059094Y-45002557D01*
X20029194Y-45050858D01*
X19266873Y-45813181D01*
X19205550Y-45846666D01*
X19179192Y-45849500D01*
X15433837Y-45849500D01*
X15366798Y-45829815D01*
X15327438Y-45787384D01*
X15326978Y-45787686D01*
X15325214Y-45784987D01*
X15324786Y-45784525D01*
X15324173Y-45783393D01*
X15188166Y-45575217D01*
X15166557Y-45551744D01*
X15019744Y-45392262D01*
X14823509Y-45239526D01*
X14823507Y-45239525D01*
X14823506Y-45239524D01*
X14604811Y-45121172D01*
X14604802Y-45121169D01*
X14369616Y-45040429D01*
X14124335Y-44999500D01*
X13875665Y-44999500D01*
X13630383Y-45040429D01*
X13395197Y-45121169D01*
X13395188Y-45121172D01*
X13176493Y-45239524D01*
X12980257Y-45392261D01*
X12980256Y-45392262D01*
X12811836Y-45575215D01*
X12728309Y-45703063D01*
X12675162Y-45748419D01*
X12605931Y-45757843D01*
X12542595Y-45728341D01*
X12505264Y-45669281D01*
X12500500Y-45635241D01*
X12500500Y-42864758D01*
X12520185Y-42797719D01*
X12572989Y-42751964D01*
X12642147Y-42742020D01*
X12705703Y-42771045D01*
X12728309Y-42796937D01*
X12811833Y-42924782D01*
X12811836Y-42924785D01*
X12980256Y-43107738D01*
X13176491Y-43260474D01*
X13395190Y-43378828D01*
X13630386Y-43459571D01*
X13875665Y-43500500D01*
X14124335Y-43500500D01*
X14369614Y-43459571D01*
X14604810Y-43378828D01*
X14823509Y-43260474D01*
X15019744Y-43107738D01*
X15188164Y-42924785D01*
X15324173Y-42716607D01*
X15424063Y-42488881D01*
X15485108Y-42247821D01*
X15486539Y-42230554D01*
X15505643Y-42000005D01*
X15505643Y-41999994D01*
X15485109Y-41752187D01*
X15485108Y-41752183D01*
X15485108Y-41752179D01*
X15438280Y-41567260D01*
X15440904Y-41497442D01*
X15470802Y-41449142D01*
X16233126Y-40686819D01*
X16294449Y-40653334D01*
X16320807Y-40650500D01*
X20066163Y-40650500D01*
X20133202Y-40670185D01*
X20172561Y-40712615D01*
X20173022Y-40712314D01*
X20174785Y-40715012D01*
X20175214Y-40715475D01*
X20175826Y-40716606D01*
X20311833Y-40924782D01*
X20311836Y-40924785D01*
X20480256Y-41107738D01*
X20676491Y-41260474D01*
X20895190Y-41378828D01*
X21130386Y-41459571D01*
X21375665Y-41500500D01*
X21624335Y-41500500D01*
X21869614Y-41459571D01*
X22104810Y-41378828D01*
X22323509Y-41260474D01*
X22519744Y-41107738D01*
X22688164Y-40924785D01*
X22824173Y-40716607D01*
X22924063Y-40488881D01*
X22985108Y-40247821D01*
X23005643Y-40000000D01*
X22985108Y-39752179D01*
X22924063Y-39511119D01*
X22916872Y-39494726D01*
X22824173Y-39283393D01*
X22688166Y-39075217D01*
X22666557Y-39051744D01*
X22519744Y-38892262D01*
X22323509Y-38739526D01*
X22323507Y-38739525D01*
X22323506Y-38739524D01*
X22104811Y-38621172D01*
X22104802Y-38621169D01*
X22093477Y-38617281D01*
X22036462Y-38576896D01*
X22010331Y-38512096D01*
X22023382Y-38443456D01*
X22071471Y-38392768D01*
X22093477Y-38382719D01*
X22097235Y-38381428D01*
X22104810Y-38378828D01*
X22323509Y-38260474D01*
X22519744Y-38107738D01*
X22688164Y-37924785D01*
X22824173Y-37716607D01*
X22924063Y-37488881D01*
X22985108Y-37247821D01*
X23005643Y-37000000D01*
X22985108Y-36752179D01*
X22924063Y-36511119D01*
X22846420Y-36334112D01*
X22824173Y-36283393D01*
X22688166Y-36075217D01*
X22666557Y-36051744D01*
X22519744Y-35892262D01*
X22323509Y-35739526D01*
X22323507Y-35739525D01*
X22323506Y-35739524D01*
X22104811Y-35621172D01*
X22104802Y-35621169D01*
X21869616Y-35540429D01*
X21624335Y-35499500D01*
X21375665Y-35499500D01*
X21130383Y-35540429D01*
X20895197Y-35621169D01*
X20895188Y-35621172D01*
X20676493Y-35739524D01*
X20480257Y-35892261D01*
X20311833Y-36075217D01*
X20175826Y-36283393D01*
X20175214Y-36284525D01*
X20174842Y-36284898D01*
X20173022Y-36287686D01*
X20172448Y-36287311D01*
X20125991Y-36334112D01*
X20066163Y-36349500D01*
X15433837Y-36349500D01*
X15366798Y-36329815D01*
X15327438Y-36287384D01*
X15326978Y-36287686D01*
X15325214Y-36284987D01*
X15324786Y-36284525D01*
X15324173Y-36283393D01*
X15188166Y-36075217D01*
X15166557Y-36051744D01*
X15019744Y-35892262D01*
X14823509Y-35739526D01*
X14823507Y-35739525D01*
X14823506Y-35739524D01*
X14604811Y-35621172D01*
X14604802Y-35621169D01*
X14369616Y-35540429D01*
X14124335Y-35499500D01*
X13875665Y-35499500D01*
X13630383Y-35540429D01*
X13395197Y-35621169D01*
X13395188Y-35621172D01*
X13176493Y-35739524D01*
X12980257Y-35892261D01*
X12811836Y-36075215D01*
X12728309Y-36203063D01*
X12675162Y-36248419D01*
X12605931Y-36257843D01*
X12542595Y-36228341D01*
X12505264Y-36169281D01*
X12500500Y-36135241D01*
X12500500Y-33364758D01*
X12520185Y-33297719D01*
X12572989Y-33251964D01*
X12642147Y-33242020D01*
X12705703Y-33271045D01*
X12728309Y-33296937D01*
X12811833Y-33424782D01*
X12811836Y-33424785D01*
X12980256Y-33607738D01*
X13176491Y-33760474D01*
X13395190Y-33878828D01*
X13630386Y-33959571D01*
X13875665Y-34000500D01*
X14124335Y-34000500D01*
X14369614Y-33959571D01*
X14604810Y-33878828D01*
X14823509Y-33760474D01*
X15019744Y-33607738D01*
X15188164Y-33424785D01*
X15324173Y-33216607D01*
X15324175Y-33216601D01*
X15324786Y-33215475D01*
X15325157Y-33215101D01*
X15326978Y-33212314D01*
X15327551Y-33212688D01*
X15374009Y-33165888D01*
X15433837Y-33150500D01*
X20066163Y-33150500D01*
X20133202Y-33170185D01*
X20172561Y-33212615D01*
X20173022Y-33212314D01*
X20174785Y-33215012D01*
X20175214Y-33215475D01*
X20175826Y-33216606D01*
X20311833Y-33424782D01*
X20311836Y-33424785D01*
X20480256Y-33607738D01*
X20676491Y-33760474D01*
X20895190Y-33878828D01*
X21130386Y-33959571D01*
X21375665Y-34000500D01*
X21624335Y-34000500D01*
X21869614Y-33959571D01*
X22104810Y-33878828D01*
X22323509Y-33760474D01*
X22519744Y-33607738D01*
X22688164Y-33424785D01*
X22824173Y-33216607D01*
X22924063Y-32988881D01*
X22985108Y-32747821D01*
X23005643Y-32500000D01*
X22985108Y-32252179D01*
X22924063Y-32011119D01*
X22846420Y-31834112D01*
X22824173Y-31783393D01*
X22688166Y-31575217D01*
X22666557Y-31551744D01*
X22519744Y-31392262D01*
X22323509Y-31239526D01*
X22323507Y-31239525D01*
X22323506Y-31239524D01*
X22104811Y-31121172D01*
X22104802Y-31121169D01*
X21869616Y-31040429D01*
X21624335Y-30999500D01*
X21375665Y-30999500D01*
X21130383Y-31040429D01*
X20895197Y-31121169D01*
X20895188Y-31121172D01*
X20676493Y-31239524D01*
X20480257Y-31392261D01*
X20311833Y-31575217D01*
X20175826Y-31783393D01*
X20175214Y-31784525D01*
X20174842Y-31784898D01*
X20173022Y-31787686D01*
X20172448Y-31787311D01*
X20125991Y-31834112D01*
X20066163Y-31849500D01*
X15433837Y-31849500D01*
X15366798Y-31829815D01*
X15327438Y-31787384D01*
X15326978Y-31787686D01*
X15325214Y-31784987D01*
X15324786Y-31784525D01*
X15324173Y-31783393D01*
X15188166Y-31575217D01*
X15166557Y-31551744D01*
X15019744Y-31392262D01*
X14823509Y-31239526D01*
X14823507Y-31239525D01*
X14823506Y-31239524D01*
X14604811Y-31121172D01*
X14604802Y-31121169D01*
X14369616Y-31040429D01*
X14124335Y-30999500D01*
X13875665Y-30999500D01*
X13630383Y-31040429D01*
X13395197Y-31121169D01*
X13395188Y-31121172D01*
X13176493Y-31239524D01*
X12980257Y-31392261D01*
X12811836Y-31575215D01*
X12728309Y-31703063D01*
X12675162Y-31748419D01*
X12605931Y-31757843D01*
X12542595Y-31728341D01*
X12505264Y-31669281D01*
X12500500Y-31635241D01*
X12500500Y-28864758D01*
X12520185Y-28797719D01*
X12572989Y-28751964D01*
X12642147Y-28742020D01*
X12705703Y-28771045D01*
X12728309Y-28796937D01*
X12811833Y-28924782D01*
X12811836Y-28924785D01*
X12980256Y-29107738D01*
X13176491Y-29260474D01*
X13395190Y-29378828D01*
X13630386Y-29459571D01*
X13875665Y-29500500D01*
X14124335Y-29500500D01*
X14369614Y-29459571D01*
X14604810Y-29378828D01*
X14823509Y-29260474D01*
X15019744Y-29107738D01*
X15188164Y-28924785D01*
X15324173Y-28716607D01*
X15324175Y-28716601D01*
X15324786Y-28715475D01*
X15325157Y-28715101D01*
X15326978Y-28712314D01*
X15327551Y-28712688D01*
X15374009Y-28665888D01*
X15433837Y-28650500D01*
X20492628Y-28650500D01*
X20559667Y-28670185D01*
X20568790Y-28676647D01*
X20620131Y-28716607D01*
X20676491Y-28760474D01*
X20895190Y-28878828D01*
X21130386Y-28959571D01*
X21375665Y-29000500D01*
X21624335Y-29000500D01*
X21869614Y-28959571D01*
X22104810Y-28878828D01*
X22323509Y-28760474D01*
X22519744Y-28607738D01*
X22688164Y-28424785D01*
X22824173Y-28216607D01*
X22924063Y-27988881D01*
X22985108Y-27747821D01*
X23005643Y-27500000D01*
X22993172Y-27349500D01*
X22985109Y-27252187D01*
X22985107Y-27252175D01*
X22924063Y-27011118D01*
X22824173Y-26783393D01*
X22688166Y-26575217D01*
X22618463Y-26499500D01*
X22519744Y-26392262D01*
X22323509Y-26239526D01*
X22323507Y-26239525D01*
X22323506Y-26239524D01*
X22104811Y-26121172D01*
X22104802Y-26121169D01*
X21869616Y-26040429D01*
X21624335Y-25999500D01*
X21375665Y-25999500D01*
X21130383Y-26040429D01*
X20895197Y-26121169D01*
X20895188Y-26121172D01*
X20676493Y-26239524D01*
X20480257Y-26392261D01*
X20311833Y-26575217D01*
X20175826Y-26783393D01*
X20075937Y-27011118D01*
X20075937Y-27011119D01*
X20015845Y-27248419D01*
X20013940Y-27255940D01*
X19978400Y-27316096D01*
X19915980Y-27347488D01*
X19893734Y-27349500D01*
X15433837Y-27349500D01*
X15366798Y-27329815D01*
X15327438Y-27287384D01*
X15326978Y-27287686D01*
X15325214Y-27284987D01*
X15324786Y-27284525D01*
X15324173Y-27283393D01*
X15188166Y-27075217D01*
X15166557Y-27051744D01*
X15019744Y-26892262D01*
X14823509Y-26739526D01*
X14823507Y-26739525D01*
X14823506Y-26739524D01*
X14604811Y-26621172D01*
X14604802Y-26621169D01*
X14369616Y-26540429D01*
X14124335Y-26499500D01*
X13875665Y-26499500D01*
X13630383Y-26540429D01*
X13395197Y-26621169D01*
X13395188Y-26621172D01*
X13176493Y-26739524D01*
X12980257Y-26892261D01*
X12980256Y-26892262D01*
X12811836Y-27075215D01*
X12728309Y-27203063D01*
X12675162Y-27248419D01*
X12605931Y-27257843D01*
X12542595Y-27228341D01*
X12505264Y-27169281D01*
X12500500Y-27135241D01*
X12500500Y-23864758D01*
X12520185Y-23797719D01*
X12572989Y-23751964D01*
X12642147Y-23742020D01*
X12705703Y-23771045D01*
X12728309Y-23796937D01*
X12811833Y-23924782D01*
X12811836Y-23924785D01*
X12980256Y-24107738D01*
X13176491Y-24260474D01*
X13395190Y-24378828D01*
X13630386Y-24459571D01*
X13875665Y-24500500D01*
X14124335Y-24500500D01*
X14369614Y-24459571D01*
X14604810Y-24378828D01*
X14823509Y-24260474D01*
X15019744Y-24107738D01*
X15188164Y-23924785D01*
X15324173Y-23716607D01*
X15324175Y-23716601D01*
X15324786Y-23715475D01*
X15325157Y-23715101D01*
X15326978Y-23712314D01*
X15327551Y-23712688D01*
X15374009Y-23665888D01*
X15433837Y-23650500D01*
X20066163Y-23650500D01*
X20133202Y-23670185D01*
X20172561Y-23712615D01*
X20173022Y-23712314D01*
X20174785Y-23715012D01*
X20175214Y-23715475D01*
X20175826Y-23716606D01*
X20311833Y-23924782D01*
X20311836Y-23924785D01*
X20480256Y-24107738D01*
X20676491Y-24260474D01*
X20895190Y-24378828D01*
X21130386Y-24459571D01*
X21375665Y-24500500D01*
X21624335Y-24500500D01*
X21869614Y-24459571D01*
X22104810Y-24378828D01*
X22323509Y-24260474D01*
X22519744Y-24107738D01*
X22688164Y-23924785D01*
X22824173Y-23716607D01*
X22924063Y-23488881D01*
X22985108Y-23247821D01*
X23005643Y-23000000D01*
X22985108Y-22752179D01*
X22924063Y-22511119D01*
X22846420Y-22334112D01*
X22824173Y-22283393D01*
X22688166Y-22075217D01*
X22666557Y-22051744D01*
X22519744Y-21892262D01*
X22323509Y-21739526D01*
X22323507Y-21739525D01*
X22323506Y-21739524D01*
X22104811Y-21621172D01*
X22104802Y-21621169D01*
X21869616Y-21540429D01*
X21624335Y-21499500D01*
X21375665Y-21499500D01*
X21130383Y-21540429D01*
X20895197Y-21621169D01*
X20895188Y-21621172D01*
X20676493Y-21739524D01*
X20480257Y-21892261D01*
X20311833Y-22075217D01*
X20175826Y-22283393D01*
X20175214Y-22284525D01*
X20174842Y-22284898D01*
X20173022Y-22287686D01*
X20172448Y-22287311D01*
X20125991Y-22334112D01*
X20066163Y-22349500D01*
X15433837Y-22349500D01*
X15366798Y-22329815D01*
X15327438Y-22287384D01*
X15326978Y-22287686D01*
X15325214Y-22284987D01*
X15324786Y-22284525D01*
X15324173Y-22283393D01*
X15188166Y-22075217D01*
X15166557Y-22051744D01*
X15019744Y-21892262D01*
X14823509Y-21739526D01*
X14823507Y-21739525D01*
X14823506Y-21739524D01*
X14604811Y-21621172D01*
X14604802Y-21621169D01*
X14369616Y-21540429D01*
X14124335Y-21499500D01*
X13875665Y-21499500D01*
X13630383Y-21540429D01*
X13395197Y-21621169D01*
X13395188Y-21621172D01*
X13176493Y-21739524D01*
X12980257Y-21892261D01*
X12811836Y-22075215D01*
X12728309Y-22203063D01*
X12675162Y-22248419D01*
X12605931Y-22257843D01*
X12542595Y-22228341D01*
X12505264Y-22169281D01*
X12500500Y-22135241D01*
X12500500Y-19364758D01*
X12520185Y-19297719D01*
X12572989Y-19251964D01*
X12642147Y-19242020D01*
X12705703Y-19271045D01*
X12728309Y-19296937D01*
X12811833Y-19424782D01*
X12811836Y-19424785D01*
X12980256Y-19607738D01*
X13176491Y-19760474D01*
X13176493Y-19760475D01*
X13394332Y-19878364D01*
X13395190Y-19878828D01*
X13538391Y-19927989D01*
X13628964Y-19959083D01*
X13630386Y-19959571D01*
X13875665Y-20000500D01*
X14124335Y-20000500D01*
X14369614Y-19959571D01*
X14604810Y-19878828D01*
X14823509Y-19760474D01*
X15019744Y-19607738D01*
X15188164Y-19424785D01*
X15324173Y-19216607D01*
X15324175Y-19216601D01*
X15324786Y-19215475D01*
X15325157Y-19215101D01*
X15326978Y-19212314D01*
X15327551Y-19212688D01*
X15374009Y-19165888D01*
X15433837Y-19150500D01*
X17566163Y-19150500D01*
X17633202Y-19170185D01*
X17672561Y-19212615D01*
X17673022Y-19212314D01*
X17674785Y-19215012D01*
X17675214Y-19215475D01*
X17675826Y-19216606D01*
X17811833Y-19424782D01*
X17811836Y-19424785D01*
X17980256Y-19607738D01*
X18176491Y-19760474D01*
X18176493Y-19760475D01*
X18394332Y-19878364D01*
X18395190Y-19878828D01*
X18538391Y-19927989D01*
X18628964Y-19959083D01*
X18630386Y-19959571D01*
X18875665Y-20000500D01*
X19124335Y-20000500D01*
X19369614Y-19959571D01*
X19604810Y-19878828D01*
X19823509Y-19760474D01*
X20019744Y-19607738D01*
X20188164Y-19424785D01*
X20324173Y-19216607D01*
X20424063Y-18988881D01*
X20485108Y-18747821D01*
X20505643Y-18500000D01*
X20505643Y-18499994D01*
X21994859Y-18499994D01*
X21994859Y-18500005D01*
X22015385Y-18747729D01*
X22015387Y-18747738D01*
X22076412Y-18988717D01*
X22176266Y-19216364D01*
X22276564Y-19369882D01*
X23017037Y-18629409D01*
X23034075Y-18692993D01*
X23099901Y-18807007D01*
X23192993Y-18900099D01*
X23307007Y-18965925D01*
X23370590Y-18982962D01*
X22629942Y-19723609D01*
X22676768Y-19760055D01*
X22676770Y-19760056D01*
X22895385Y-19878364D01*
X22895396Y-19878369D01*
X23130506Y-19959083D01*
X23375707Y-20000000D01*
X23624293Y-20000000D01*
X23869493Y-19959083D01*
X24104603Y-19878369D01*
X24104614Y-19878364D01*
X24323228Y-19760057D01*
X24323231Y-19760055D01*
X24370056Y-19723609D01*
X23629409Y-18982962D01*
X23692993Y-18965925D01*
X23807007Y-18900099D01*
X23900099Y-18807007D01*
X23965925Y-18692993D01*
X23982962Y-18629409D01*
X24723434Y-19369882D01*
X24823731Y-19216369D01*
X24923587Y-18988717D01*
X24984612Y-18747738D01*
X24984614Y-18747729D01*
X25005141Y-18500005D01*
X25005141Y-18499994D01*
X24984614Y-18252270D01*
X24984612Y-18252261D01*
X24923587Y-18011282D01*
X24823731Y-17783630D01*
X24723434Y-17630116D01*
X23982962Y-18370589D01*
X23965925Y-18307007D01*
X23900099Y-18192993D01*
X23807007Y-18099901D01*
X23692993Y-18034075D01*
X23629410Y-18017037D01*
X24370057Y-17276390D01*
X24370056Y-17276389D01*
X24323229Y-17239943D01*
X24104614Y-17121635D01*
X24104603Y-17121630D01*
X23869493Y-17040916D01*
X23624293Y-17000000D01*
X23375707Y-17000000D01*
X23130506Y-17040916D01*
X22895396Y-17121630D01*
X22895390Y-17121632D01*
X22676761Y-17239949D01*
X22629942Y-17276388D01*
X22629942Y-17276390D01*
X23370590Y-18017037D01*
X23307007Y-18034075D01*
X23192993Y-18099901D01*
X23099901Y-18192993D01*
X23034075Y-18307007D01*
X23017037Y-18370589D01*
X22276564Y-17630116D01*
X22176267Y-17783632D01*
X22076412Y-18011282D01*
X22015387Y-18252261D01*
X22015385Y-18252270D01*
X21994859Y-18499994D01*
X20505643Y-18499994D01*
X20489651Y-18307007D01*
X20485109Y-18252187D01*
X20485108Y-18252183D01*
X20485108Y-18252179D01*
X20479732Y-18230951D01*
X20458333Y-18146447D01*
X20438280Y-18067260D01*
X20440904Y-17997442D01*
X20470802Y-17949142D01*
X24233127Y-14186819D01*
X24294450Y-14153334D01*
X24320808Y-14150500D01*
X46679192Y-14150500D01*
X46746231Y-14170185D01*
X46766873Y-14186819D01*
X47313181Y-14733127D01*
X47346666Y-14794450D01*
X47349500Y-14820808D01*
X47349500Y-41679191D01*
X47329815Y-41746230D01*
X47313181Y-41766872D01*
X27050909Y-62029143D01*
X26989586Y-62062628D01*
X26922967Y-62058744D01*
X26869613Y-62040428D01*
X26624335Y-61999500D01*
X26459432Y-61999500D01*
X26392393Y-61979815D01*
X26390542Y-61978602D01*
X26308128Y-61923535D01*
X26308129Y-61923535D01*
X26189744Y-61874499D01*
X26189736Y-61874497D01*
X26064073Y-61849501D01*
X26064069Y-61849501D01*
X25935931Y-61849501D01*
X25935926Y-61849501D01*
X25810263Y-61874497D01*
X25810255Y-61874499D01*
X25691874Y-61923534D01*
X25585326Y-61994726D01*
X25494726Y-62085326D01*
X25423534Y-62191874D01*
X25374499Y-62310255D01*
X25374497Y-62310263D01*
X25349501Y-62435926D01*
X25349501Y-62485914D01*
X25329816Y-62552953D01*
X25316735Y-62569893D01*
X25311834Y-62575217D01*
X25175826Y-62783393D01*
X25075936Y-63011118D01*
X25014892Y-63252175D01*
X25014890Y-63252187D01*
X24994357Y-63499994D01*
X24994357Y-63500005D01*
X25014890Y-63747812D01*
X25014892Y-63747824D01*
X25075936Y-63988881D01*
X25175826Y-64216606D01*
X25311833Y-64424782D01*
X25311836Y-64424785D01*
X25480256Y-64607738D01*
X25676491Y-64760474D01*
X25895190Y-64878828D01*
X26130386Y-64959571D01*
X26375665Y-65000500D01*
X26624335Y-65000500D01*
X26869614Y-64959571D01*
X26922966Y-64941254D01*
X26992762Y-64938104D01*
X27050909Y-64970855D01*
X31313181Y-69233127D01*
X31346666Y-69294450D01*
X31349500Y-69320808D01*
X31349500Y-69725500D01*
X31329815Y-69792539D01*
X31277011Y-69838294D01*
X31225500Y-69849500D01*
X21433837Y-69849500D01*
X21366798Y-69829815D01*
X21327438Y-69787384D01*
X21326978Y-69787686D01*
X21325214Y-69784987D01*
X21324786Y-69784525D01*
X21324173Y-69783393D01*
X21188166Y-69575217D01*
X21081705Y-69459570D01*
X21019744Y-69392262D01*
X20823509Y-69239526D01*
X20823507Y-69239525D01*
X20823506Y-69239524D01*
X20604811Y-69121172D01*
X20604802Y-69121169D01*
X20369616Y-69040429D01*
X20124335Y-68999500D01*
X19875665Y-68999500D01*
X19630383Y-69040429D01*
X19395197Y-69121169D01*
X19395188Y-69121172D01*
X19176493Y-69239524D01*
X18980257Y-69392261D01*
X18811833Y-69575217D01*
X18675826Y-69783393D01*
X18575936Y-70011118D01*
X18514892Y-70252175D01*
X18514890Y-70252187D01*
X18494357Y-70499994D01*
X18494357Y-70500005D01*
X18514890Y-70747812D01*
X18514892Y-70747824D01*
X18575936Y-70988881D01*
X18675826Y-71216606D01*
X18811833Y-71424782D01*
X18811836Y-71424785D01*
X18980256Y-71607738D01*
X19176491Y-71760474D01*
X19395190Y-71878828D01*
X19630386Y-71959571D01*
X19875665Y-72000500D01*
X20124335Y-72000500D01*
X20369614Y-71959571D01*
X20604810Y-71878828D01*
X20823509Y-71760474D01*
X21019744Y-71607738D01*
X21188164Y-71424785D01*
X21324173Y-71216607D01*
X21324175Y-71216601D01*
X21324786Y-71215475D01*
X21325157Y-71215101D01*
X21326978Y-71212314D01*
X21327551Y-71212688D01*
X21374009Y-71165888D01*
X21433837Y-71150500D01*
X25505821Y-71150500D01*
X25572860Y-71170185D01*
X25618615Y-71222989D01*
X25628183Y-71274631D01*
X26370590Y-72017037D01*
X26307007Y-72034075D01*
X26192993Y-72099901D01*
X26099901Y-72192993D01*
X26034075Y-72307007D01*
X26017037Y-72370589D01*
X25276564Y-71630116D01*
X25176267Y-71783632D01*
X25076412Y-72011282D01*
X25015387Y-72252261D01*
X25015385Y-72252270D01*
X24994859Y-72499994D01*
X24994859Y-72500005D01*
X25015385Y-72747729D01*
X25015387Y-72747738D01*
X25076412Y-72988717D01*
X25176266Y-73216364D01*
X25276564Y-73369882D01*
X26017037Y-72629409D01*
X26034075Y-72692993D01*
X26099901Y-72807007D01*
X26192993Y-72900099D01*
X26307007Y-72965925D01*
X26370590Y-72982962D01*
X25629942Y-73723609D01*
X25676768Y-73760055D01*
X25676770Y-73760056D01*
X25895385Y-73878364D01*
X25895396Y-73878369D01*
X26130506Y-73959083D01*
X26375707Y-74000000D01*
X26624293Y-74000000D01*
X26869493Y-73959083D01*
X27104603Y-73878369D01*
X27104614Y-73878364D01*
X27323228Y-73760057D01*
X27323231Y-73760055D01*
X27370056Y-73723609D01*
X26629409Y-72982962D01*
X26692993Y-72965925D01*
X26807007Y-72900099D01*
X26900099Y-72807007D01*
X26965925Y-72692993D01*
X26982962Y-72629410D01*
X27723434Y-73369882D01*
X27823731Y-73216369D01*
X27923587Y-72988717D01*
X27984612Y-72747738D01*
X27984614Y-72747729D01*
X28005141Y-72500005D01*
X28005141Y-72499994D01*
X27984614Y-72252270D01*
X27984612Y-72252261D01*
X27923587Y-72011282D01*
X27823731Y-71783630D01*
X27723434Y-71630116D01*
X26982962Y-72370589D01*
X26965925Y-72307007D01*
X26900099Y-72192993D01*
X26807007Y-72099901D01*
X26692993Y-72034075D01*
X26629410Y-72017037D01*
X27372228Y-71274218D01*
X27385910Y-71214054D01*
X27435777Y-71165115D01*
X27494179Y-71150500D01*
X32064071Y-71150500D01*
X32148615Y-71133682D01*
X32189744Y-71125501D01*
X32308127Y-71076465D01*
X32414669Y-71005276D01*
X32505276Y-70914669D01*
X32576465Y-70808127D01*
X32625501Y-70689744D01*
X32650500Y-70564069D01*
X32650500Y-68935931D01*
X32650500Y-68935928D01*
X32625502Y-68810260D01*
X32625500Y-68810254D01*
X32605189Y-68761221D01*
X32605187Y-68761216D01*
X32576468Y-68691878D01*
X32576462Y-68691868D01*
X32505278Y-68585332D01*
X32505272Y-68585325D01*
X27970805Y-64050859D01*
X27937320Y-63989536D01*
X27938279Y-63932739D01*
X27985108Y-63747821D01*
X27985109Y-63747812D01*
X28005643Y-63500005D01*
X28005643Y-63499994D01*
X27985109Y-63252187D01*
X27985108Y-63252183D01*
X27985108Y-63252179D01*
X27984004Y-63247821D01*
X27954635Y-63131844D01*
X27938280Y-63067260D01*
X27940904Y-62997442D01*
X27970802Y-62949142D01*
X29419950Y-61499994D01*
X41994357Y-61499994D01*
X41994357Y-61500005D01*
X42014890Y-61747812D01*
X42014892Y-61747824D01*
X42075936Y-61988881D01*
X42175826Y-62216606D01*
X42311833Y-62424782D01*
X42342291Y-62457868D01*
X42480256Y-62607738D01*
X42602764Y-62703090D01*
X42676488Y-62760472D01*
X42676492Y-62760475D01*
X42784517Y-62818934D01*
X42834108Y-62868153D01*
X42849500Y-62927989D01*
X42849500Y-63072009D01*
X42829815Y-63139048D01*
X42784518Y-63181063D01*
X42676501Y-63239519D01*
X42676494Y-63239523D01*
X42480257Y-63392261D01*
X42311833Y-63575217D01*
X42175826Y-63783393D01*
X42075936Y-64011118D01*
X42014892Y-64252175D01*
X42014890Y-64252187D01*
X41994357Y-64499994D01*
X41994357Y-64500005D01*
X42014890Y-64747812D01*
X42014892Y-64747824D01*
X42075936Y-64988881D01*
X42175826Y-65216606D01*
X42311833Y-65424782D01*
X42311836Y-65424785D01*
X42480256Y-65607738D01*
X42602764Y-65703090D01*
X42676488Y-65760472D01*
X42676492Y-65760475D01*
X42784517Y-65818934D01*
X42834108Y-65868153D01*
X42849500Y-65927989D01*
X42849500Y-66572009D01*
X42829815Y-66639048D01*
X42784518Y-66681063D01*
X42676501Y-66739519D01*
X42676494Y-66739523D01*
X42480257Y-66892261D01*
X42311833Y-67075217D01*
X42175826Y-67283393D01*
X42075936Y-67511118D01*
X42014892Y-67752175D01*
X42014890Y-67752187D01*
X41994357Y-67999994D01*
X41994357Y-68000005D01*
X42014890Y-68247812D01*
X42014892Y-68247824D01*
X42075936Y-68488881D01*
X42175826Y-68716606D01*
X42311833Y-68924782D01*
X42344245Y-68959991D01*
X42480256Y-69107738D01*
X42676491Y-69260474D01*
X42895190Y-69378828D01*
X43130386Y-69459571D01*
X43375665Y-69500500D01*
X43624335Y-69500500D01*
X43869614Y-69459571D01*
X44104810Y-69378828D01*
X44323509Y-69260474D01*
X44519744Y-69107738D01*
X44688164Y-68924785D01*
X44824173Y-68716607D01*
X44924063Y-68488881D01*
X44985108Y-68247821D01*
X45005643Y-68000000D01*
X44987694Y-67783393D01*
X44985109Y-67752187D01*
X44985107Y-67752175D01*
X44924063Y-67511118D01*
X44824173Y-67283393D01*
X44688166Y-67075217D01*
X44666557Y-67051744D01*
X44519744Y-66892262D01*
X44323509Y-66739526D01*
X44323508Y-66739525D01*
X44323505Y-66739523D01*
X44323498Y-66739519D01*
X44215482Y-66681063D01*
X44165891Y-66631844D01*
X44150500Y-66572009D01*
X44150500Y-65927989D01*
X44170185Y-65860950D01*
X44215483Y-65818934D01*
X44254686Y-65797719D01*
X44323509Y-65760474D01*
X44519744Y-65607738D01*
X44688164Y-65424785D01*
X44824173Y-65216607D01*
X44924063Y-64988881D01*
X44985108Y-64747821D01*
X45005643Y-64500000D01*
X44999410Y-64424782D01*
X44985109Y-64252187D01*
X44985107Y-64252175D01*
X44924063Y-64011118D01*
X44824173Y-63783393D01*
X44688166Y-63575217D01*
X44618928Y-63500005D01*
X44519744Y-63392262D01*
X44323509Y-63239526D01*
X44323508Y-63239525D01*
X44323505Y-63239523D01*
X44323498Y-63239519D01*
X44215482Y-63181063D01*
X44165891Y-63131844D01*
X44150500Y-63072009D01*
X44150500Y-62927989D01*
X44170185Y-62860950D01*
X44215483Y-62818934D01*
X44323507Y-62760475D01*
X44323506Y-62760475D01*
X44323509Y-62760474D01*
X44519744Y-62607738D01*
X44688164Y-62424785D01*
X44824173Y-62216607D01*
X44924063Y-61988881D01*
X44985108Y-61747821D01*
X44985178Y-61746974D01*
X45005643Y-61500005D01*
X45005643Y-61499994D01*
X46494357Y-61499994D01*
X46494357Y-61500005D01*
X46514890Y-61747812D01*
X46514892Y-61747824D01*
X46575936Y-61988881D01*
X46675826Y-62216606D01*
X46811833Y-62424782D01*
X46842291Y-62457868D01*
X46980256Y-62607738D01*
X47102764Y-62703090D01*
X47176488Y-62760472D01*
X47176492Y-62760475D01*
X47284517Y-62818934D01*
X47334108Y-62868153D01*
X47349500Y-62927989D01*
X47349500Y-63072009D01*
X47329815Y-63139048D01*
X47284518Y-63181063D01*
X47176501Y-63239519D01*
X47176494Y-63239523D01*
X46980257Y-63392261D01*
X46811833Y-63575217D01*
X46675826Y-63783393D01*
X46575936Y-64011118D01*
X46514892Y-64252175D01*
X46514890Y-64252187D01*
X46494357Y-64499994D01*
X46494357Y-64500005D01*
X46514890Y-64747812D01*
X46514892Y-64747824D01*
X46575936Y-64988881D01*
X46675826Y-65216606D01*
X46811833Y-65424782D01*
X46811836Y-65424785D01*
X46980256Y-65607738D01*
X47102764Y-65703090D01*
X47176488Y-65760472D01*
X47176492Y-65760475D01*
X47284517Y-65818934D01*
X47334108Y-65868153D01*
X47349500Y-65927989D01*
X47349500Y-66572009D01*
X47329815Y-66639048D01*
X47284518Y-66681063D01*
X47176501Y-66739519D01*
X47176494Y-66739523D01*
X46980257Y-66892261D01*
X46811833Y-67075217D01*
X46675826Y-67283393D01*
X46575936Y-67511118D01*
X46514892Y-67752175D01*
X46514890Y-67752187D01*
X46494357Y-67999994D01*
X46494357Y-68000005D01*
X46514890Y-68247812D01*
X46514892Y-68247824D01*
X46575936Y-68488881D01*
X46675826Y-68716606D01*
X46811833Y-68924782D01*
X46844245Y-68959991D01*
X46980256Y-69107738D01*
X47176491Y-69260474D01*
X47395190Y-69378828D01*
X47630386Y-69459571D01*
X47875665Y-69500500D01*
X48124335Y-69500500D01*
X48369614Y-69459571D01*
X48604810Y-69378828D01*
X48823509Y-69260474D01*
X49019744Y-69107738D01*
X49188164Y-68924785D01*
X49324173Y-68716607D01*
X49424063Y-68488881D01*
X49485108Y-68247821D01*
X49505643Y-68000000D01*
X49487694Y-67783393D01*
X49485109Y-67752187D01*
X49485107Y-67752175D01*
X49424063Y-67511118D01*
X49324173Y-67283393D01*
X49188166Y-67075217D01*
X49166557Y-67051744D01*
X49019744Y-66892262D01*
X48823509Y-66739526D01*
X48823508Y-66739525D01*
X48823505Y-66739523D01*
X48823498Y-66739519D01*
X48715482Y-66681063D01*
X48665891Y-66631844D01*
X48650500Y-66572009D01*
X48650500Y-65927989D01*
X48670185Y-65860950D01*
X48715483Y-65818934D01*
X48754686Y-65797719D01*
X48823509Y-65760474D01*
X49019744Y-65607738D01*
X49188164Y-65424785D01*
X49324173Y-65216607D01*
X49424063Y-64988881D01*
X49485108Y-64747821D01*
X49505643Y-64500000D01*
X49499410Y-64424782D01*
X49485109Y-64252187D01*
X49485107Y-64252175D01*
X49424063Y-64011118D01*
X49324173Y-63783393D01*
X49188166Y-63575217D01*
X49118928Y-63500005D01*
X49019744Y-63392262D01*
X48823509Y-63239526D01*
X48823508Y-63239525D01*
X48823505Y-63239523D01*
X48823498Y-63239519D01*
X48715482Y-63181063D01*
X48665891Y-63131844D01*
X48650500Y-63072009D01*
X48650500Y-62927989D01*
X48670185Y-62860950D01*
X48715483Y-62818934D01*
X48823507Y-62760475D01*
X48823506Y-62760475D01*
X48823509Y-62760474D01*
X49019744Y-62607738D01*
X49188164Y-62424785D01*
X49324173Y-62216607D01*
X49424063Y-61988881D01*
X49485108Y-61747821D01*
X49485178Y-61746974D01*
X49505643Y-61500005D01*
X49505643Y-61499994D01*
X50994357Y-61499994D01*
X50994357Y-61500005D01*
X51014890Y-61747812D01*
X51014892Y-61747824D01*
X51075936Y-61988881D01*
X51175826Y-62216606D01*
X51311833Y-62424782D01*
X51342291Y-62457868D01*
X51480256Y-62607738D01*
X51602764Y-62703090D01*
X51676488Y-62760472D01*
X51676492Y-62760475D01*
X51784517Y-62818934D01*
X51834108Y-62868153D01*
X51849500Y-62927989D01*
X51849500Y-63072009D01*
X51829815Y-63139048D01*
X51784518Y-63181063D01*
X51676501Y-63239519D01*
X51676494Y-63239523D01*
X51480257Y-63392261D01*
X51311833Y-63575217D01*
X51175826Y-63783393D01*
X51075936Y-64011118D01*
X51014892Y-64252175D01*
X51014890Y-64252187D01*
X50994357Y-64499994D01*
X50994357Y-64500005D01*
X51014890Y-64747812D01*
X51014892Y-64747824D01*
X51075936Y-64988881D01*
X51175826Y-65216606D01*
X51311833Y-65424782D01*
X51311836Y-65424785D01*
X51480256Y-65607738D01*
X51602764Y-65703090D01*
X51676488Y-65760472D01*
X51676492Y-65760475D01*
X51784517Y-65818934D01*
X51834108Y-65868153D01*
X51849500Y-65927989D01*
X51849500Y-67072009D01*
X51829815Y-67139048D01*
X51784518Y-67181063D01*
X51676501Y-67239519D01*
X51676494Y-67239523D01*
X51480257Y-67392261D01*
X51311833Y-67575217D01*
X51175826Y-67783393D01*
X51075936Y-68011118D01*
X51014892Y-68252175D01*
X51014890Y-68252187D01*
X50994357Y-68499994D01*
X50994357Y-68500005D01*
X51014890Y-68747812D01*
X51014892Y-68747824D01*
X51075936Y-68988881D01*
X51175826Y-69216606D01*
X51311833Y-69424782D01*
X51311836Y-69424785D01*
X51480256Y-69607738D01*
X51676491Y-69760474D01*
X51895190Y-69878828D01*
X52130386Y-69959571D01*
X52375665Y-70000500D01*
X52624335Y-70000500D01*
X52869614Y-69959571D01*
X53104810Y-69878828D01*
X53323509Y-69760474D01*
X53519744Y-69607738D01*
X53688164Y-69424785D01*
X53824173Y-69216607D01*
X53924063Y-68988881D01*
X53985108Y-68747821D01*
X53986539Y-68730554D01*
X54005643Y-68500005D01*
X54005643Y-68499994D01*
X53985109Y-68252187D01*
X53985107Y-68252175D01*
X53924063Y-68011118D01*
X53824173Y-67783393D01*
X53688166Y-67575217D01*
X53666557Y-67551744D01*
X53519744Y-67392262D01*
X53323509Y-67239526D01*
X53323508Y-67239525D01*
X53323505Y-67239523D01*
X53323498Y-67239519D01*
X53215482Y-67181063D01*
X53165891Y-67131844D01*
X53150500Y-67072009D01*
X53150500Y-65927989D01*
X53170185Y-65860950D01*
X53215483Y-65818934D01*
X53254686Y-65797719D01*
X53323509Y-65760474D01*
X53519744Y-65607738D01*
X53688164Y-65424785D01*
X53824173Y-65216607D01*
X53924063Y-64988881D01*
X53985108Y-64747821D01*
X54005643Y-64500000D01*
X53999410Y-64424782D01*
X53985109Y-64252187D01*
X53985107Y-64252175D01*
X53924063Y-64011118D01*
X53824173Y-63783393D01*
X53688166Y-63575217D01*
X53618928Y-63500005D01*
X53519744Y-63392262D01*
X53323509Y-63239526D01*
X53323508Y-63239525D01*
X53323505Y-63239523D01*
X53323498Y-63239519D01*
X53215482Y-63181063D01*
X53165891Y-63131844D01*
X53150500Y-63072009D01*
X53150500Y-62927989D01*
X53170185Y-62860950D01*
X53215483Y-62818934D01*
X53323507Y-62760475D01*
X53323506Y-62760475D01*
X53323509Y-62760474D01*
X53519744Y-62607738D01*
X53688164Y-62424785D01*
X53824173Y-62216607D01*
X53924063Y-61988881D01*
X53985108Y-61747821D01*
X53985178Y-61746974D01*
X54005643Y-61500005D01*
X54005643Y-61499994D01*
X55494357Y-61499994D01*
X55494357Y-61500005D01*
X55514890Y-61747812D01*
X55514892Y-61747824D01*
X55575936Y-61988881D01*
X55675826Y-62216606D01*
X55811833Y-62424782D01*
X55842291Y-62457868D01*
X55980256Y-62607738D01*
X56102764Y-62703090D01*
X56176488Y-62760472D01*
X56176492Y-62760475D01*
X56284517Y-62818934D01*
X56334108Y-62868153D01*
X56349500Y-62927989D01*
X56349500Y-63072009D01*
X56329815Y-63139048D01*
X56284518Y-63181063D01*
X56176501Y-63239519D01*
X56176494Y-63239523D01*
X55980257Y-63392261D01*
X55811833Y-63575217D01*
X55675826Y-63783393D01*
X55575936Y-64011118D01*
X55514892Y-64252175D01*
X55514890Y-64252187D01*
X55494357Y-64499994D01*
X55494357Y-64500005D01*
X55514890Y-64747812D01*
X55514892Y-64747824D01*
X55575936Y-64988881D01*
X55675826Y-65216606D01*
X55811833Y-65424782D01*
X55811836Y-65424785D01*
X55980256Y-65607738D01*
X56102764Y-65703090D01*
X56176488Y-65760472D01*
X56176492Y-65760475D01*
X56284517Y-65818934D01*
X56334108Y-65868153D01*
X56349500Y-65927989D01*
X56349500Y-67072009D01*
X56329815Y-67139048D01*
X56284518Y-67181063D01*
X56176501Y-67239519D01*
X56176494Y-67239523D01*
X55980257Y-67392261D01*
X55811833Y-67575217D01*
X55675826Y-67783393D01*
X55575936Y-68011118D01*
X55514892Y-68252175D01*
X55514890Y-68252187D01*
X55494357Y-68499994D01*
X55494357Y-68500005D01*
X55514890Y-68747812D01*
X55514892Y-68747824D01*
X55575936Y-68988881D01*
X55675826Y-69216606D01*
X55811833Y-69424782D01*
X55811836Y-69424785D01*
X55980256Y-69607738D01*
X56176491Y-69760474D01*
X56395190Y-69878828D01*
X56630386Y-69959571D01*
X56875665Y-70000500D01*
X57124335Y-70000500D01*
X57369614Y-69959571D01*
X57604810Y-69878828D01*
X57823509Y-69760474D01*
X58019744Y-69607738D01*
X58188164Y-69424785D01*
X58324173Y-69216607D01*
X58424063Y-68988881D01*
X58485108Y-68747821D01*
X58486539Y-68730554D01*
X58505643Y-68500005D01*
X58505643Y-68499994D01*
X58485109Y-68252187D01*
X58485107Y-68252175D01*
X58424063Y-68011118D01*
X58324173Y-67783393D01*
X58188166Y-67575217D01*
X58166557Y-67551744D01*
X58019744Y-67392262D01*
X57823509Y-67239526D01*
X57823508Y-67239525D01*
X57823505Y-67239523D01*
X57823498Y-67239519D01*
X57715482Y-67181063D01*
X57665891Y-67131844D01*
X57650500Y-67072009D01*
X57650500Y-65927989D01*
X57670185Y-65860950D01*
X57715483Y-65818934D01*
X57754686Y-65797719D01*
X57823509Y-65760474D01*
X58019744Y-65607738D01*
X58188164Y-65424785D01*
X58324173Y-65216607D01*
X58424063Y-64988881D01*
X58485108Y-64747821D01*
X58505643Y-64500000D01*
X58499410Y-64424782D01*
X58485109Y-64252187D01*
X58485107Y-64252175D01*
X58424063Y-64011118D01*
X58324173Y-63783393D01*
X58188166Y-63575217D01*
X58118928Y-63500005D01*
X58019744Y-63392262D01*
X57823509Y-63239526D01*
X57823508Y-63239525D01*
X57823505Y-63239523D01*
X57823498Y-63239519D01*
X57715482Y-63181063D01*
X57665891Y-63131844D01*
X57650500Y-63072009D01*
X57650500Y-62927989D01*
X57670185Y-62860950D01*
X57715483Y-62818934D01*
X57823507Y-62760475D01*
X57823506Y-62760475D01*
X57823509Y-62760474D01*
X58019744Y-62607738D01*
X58188164Y-62424785D01*
X58324173Y-62216607D01*
X58424063Y-61988881D01*
X58485108Y-61747821D01*
X58485178Y-61746974D01*
X58505643Y-61500005D01*
X58505643Y-61499994D01*
X58485109Y-61252187D01*
X58485107Y-61252175D01*
X58424063Y-61011118D01*
X58324173Y-60783393D01*
X58188166Y-60575217D01*
X58118928Y-60500005D01*
X58019744Y-60392262D01*
X57823509Y-60239526D01*
X57823507Y-60239525D01*
X57823506Y-60239524D01*
X57604811Y-60121172D01*
X57604802Y-60121169D01*
X57369616Y-60040429D01*
X57124335Y-59999500D01*
X56875665Y-59999500D01*
X56630383Y-60040429D01*
X56395197Y-60121169D01*
X56395188Y-60121172D01*
X56176493Y-60239524D01*
X55980257Y-60392261D01*
X55811833Y-60575217D01*
X55675826Y-60783393D01*
X55575936Y-61011118D01*
X55514892Y-61252175D01*
X55514890Y-61252187D01*
X55494357Y-61499994D01*
X54005643Y-61499994D01*
X53985109Y-61252187D01*
X53985107Y-61252175D01*
X53924063Y-61011118D01*
X53824173Y-60783393D01*
X53688166Y-60575217D01*
X53618928Y-60500005D01*
X53519744Y-60392262D01*
X53323509Y-60239526D01*
X53323507Y-60239525D01*
X53323506Y-60239524D01*
X53104811Y-60121172D01*
X53104802Y-60121169D01*
X52869616Y-60040429D01*
X52624335Y-59999500D01*
X52375665Y-59999500D01*
X52130383Y-60040429D01*
X51895197Y-60121169D01*
X51895188Y-60121172D01*
X51676493Y-60239524D01*
X51480257Y-60392261D01*
X51311833Y-60575217D01*
X51175826Y-60783393D01*
X51075936Y-61011118D01*
X51014892Y-61252175D01*
X51014890Y-61252187D01*
X50994357Y-61499994D01*
X49505643Y-61499994D01*
X49485109Y-61252187D01*
X49485107Y-61252175D01*
X49424063Y-61011118D01*
X49324173Y-60783393D01*
X49188166Y-60575217D01*
X49118928Y-60500005D01*
X49019744Y-60392262D01*
X48823509Y-60239526D01*
X48823507Y-60239525D01*
X48823506Y-60239524D01*
X48604811Y-60121172D01*
X48604802Y-60121169D01*
X48369616Y-60040429D01*
X48124335Y-59999500D01*
X47875665Y-59999500D01*
X47630383Y-60040429D01*
X47395197Y-60121169D01*
X47395188Y-60121172D01*
X47176493Y-60239524D01*
X46980257Y-60392261D01*
X46811833Y-60575217D01*
X46675826Y-60783393D01*
X46575936Y-61011118D01*
X46514892Y-61252175D01*
X46514890Y-61252187D01*
X46494357Y-61499994D01*
X45005643Y-61499994D01*
X44985109Y-61252187D01*
X44985107Y-61252175D01*
X44924063Y-61011118D01*
X44824173Y-60783393D01*
X44688166Y-60575217D01*
X44618928Y-60500005D01*
X44519744Y-60392262D01*
X44323509Y-60239526D01*
X44323507Y-60239525D01*
X44323506Y-60239524D01*
X44104811Y-60121172D01*
X44104802Y-60121169D01*
X43869616Y-60040429D01*
X43624335Y-59999500D01*
X43375665Y-59999500D01*
X43130383Y-60040429D01*
X42895197Y-60121169D01*
X42895188Y-60121172D01*
X42676493Y-60239524D01*
X42480257Y-60392261D01*
X42311833Y-60575217D01*
X42175826Y-60783393D01*
X42075936Y-61011118D01*
X42014892Y-61252175D01*
X42014890Y-61252187D01*
X41994357Y-61499994D01*
X29419950Y-61499994D01*
X35097810Y-55822135D01*
X39229500Y-55822135D01*
X39229500Y-58457870D01*
X39229501Y-58457876D01*
X39235908Y-58517483D01*
X39286202Y-58652328D01*
X39286206Y-58652335D01*
X39372452Y-58767544D01*
X39372455Y-58767547D01*
X39487664Y-58853793D01*
X39487671Y-58853797D01*
X39622517Y-58904091D01*
X39622516Y-58904091D01*
X39629444Y-58904835D01*
X39682127Y-58910500D01*
X42317872Y-58910499D01*
X42377483Y-58904091D01*
X42512331Y-58853796D01*
X42627546Y-58767546D01*
X42713796Y-58652331D01*
X42764091Y-58517483D01*
X42770500Y-58457873D01*
X42770499Y-57139995D01*
X57005037Y-57139995D01*
X57005037Y-57140004D01*
X57024860Y-57404535D01*
X57024861Y-57404540D01*
X57083890Y-57663166D01*
X57083896Y-57663185D01*
X57180814Y-57910128D01*
X57180813Y-57910128D01*
X57313457Y-58139871D01*
X57363642Y-58202803D01*
X57363643Y-58202803D01*
X58297037Y-57269409D01*
X58314075Y-57332993D01*
X58379901Y-57447007D01*
X58472993Y-57540099D01*
X58587007Y-57605925D01*
X58650590Y-57622962D01*
X57716438Y-58557112D01*
X57892525Y-58677166D01*
X57892526Y-58677167D01*
X58131530Y-58792264D01*
X58131528Y-58792264D01*
X58385025Y-58870458D01*
X58385031Y-58870459D01*
X58647351Y-58909999D01*
X58647358Y-58910000D01*
X58912642Y-58910000D01*
X58912648Y-58909999D01*
X59174968Y-58870459D01*
X59174974Y-58870458D01*
X59428470Y-58792264D01*
X59667479Y-58677164D01*
X59843560Y-58557112D01*
X58909409Y-57622962D01*
X58972993Y-57605925D01*
X59087007Y-57540099D01*
X59180099Y-57447007D01*
X59245925Y-57332993D01*
X59262962Y-57269409D01*
X60196355Y-58202803D01*
X60196356Y-58202802D01*
X60246545Y-58139869D01*
X60379185Y-57910128D01*
X60476103Y-57663185D01*
X60476109Y-57663166D01*
X60535138Y-57404540D01*
X60535139Y-57404535D01*
X60554963Y-57140004D01*
X60554963Y-57139995D01*
X60535139Y-56875464D01*
X60535138Y-56875459D01*
X60476109Y-56616833D01*
X60476103Y-56616814D01*
X60379185Y-56369871D01*
X60379186Y-56369871D01*
X60246543Y-56140129D01*
X60246536Y-56140118D01*
X60196356Y-56077196D01*
X60196355Y-56077195D01*
X59262962Y-57010589D01*
X59245925Y-56947007D01*
X59180099Y-56832993D01*
X59087007Y-56739901D01*
X58972993Y-56674075D01*
X58909410Y-56657037D01*
X59843560Y-55722886D01*
X59667484Y-55602839D01*
X59667474Y-55602832D01*
X59428469Y-55487735D01*
X59428471Y-55487735D01*
X59174974Y-55409541D01*
X59174968Y-55409540D01*
X58912648Y-55370000D01*
X58647351Y-55370000D01*
X58385031Y-55409540D01*
X58385025Y-55409541D01*
X58131529Y-55487735D01*
X57892526Y-55602832D01*
X57892518Y-55602837D01*
X57716438Y-55722886D01*
X58650590Y-56657037D01*
X58587007Y-56674075D01*
X58472993Y-56739901D01*
X58379901Y-56832993D01*
X58314075Y-56947007D01*
X58297037Y-57010590D01*
X57363643Y-56077196D01*
X57313456Y-56140128D01*
X57180814Y-56369871D01*
X57083896Y-56616814D01*
X57083890Y-56616833D01*
X57024861Y-56875459D01*
X57024860Y-56875464D01*
X57005037Y-57139995D01*
X42770499Y-57139995D01*
X42770499Y-55822128D01*
X42764091Y-55762517D01*
X42760238Y-55752187D01*
X42713797Y-55627671D01*
X42713793Y-55627664D01*
X42627547Y-55512455D01*
X42627544Y-55512452D01*
X42512335Y-55426206D01*
X42512328Y-55426202D01*
X42377482Y-55375908D01*
X42377483Y-55375908D01*
X42317883Y-55369501D01*
X42317881Y-55369500D01*
X42317873Y-55369500D01*
X42317864Y-55369500D01*
X39682129Y-55369500D01*
X39682123Y-55369501D01*
X39622516Y-55375908D01*
X39487671Y-55426202D01*
X39487664Y-55426206D01*
X39372455Y-55512452D01*
X39372452Y-55512455D01*
X39286206Y-55627664D01*
X39286202Y-55627671D01*
X39235908Y-55762517D01*
X39229501Y-55822116D01*
X39229501Y-55822123D01*
X39229500Y-55822135D01*
X35097810Y-55822135D01*
X48505277Y-42414669D01*
X48576466Y-42308126D01*
X48625501Y-42189743D01*
X48650500Y-42064069D01*
X48650500Y-41935931D01*
X48650500Y-16499995D01*
X57005037Y-16499995D01*
X57005037Y-16500004D01*
X57024860Y-16764535D01*
X57024861Y-16764540D01*
X57083890Y-17023166D01*
X57083896Y-17023185D01*
X57180814Y-17270128D01*
X57180813Y-17270128D01*
X57313457Y-17499871D01*
X57363642Y-17562803D01*
X57363643Y-17562803D01*
X58297037Y-16629409D01*
X58314075Y-16692993D01*
X58379901Y-16807007D01*
X58472993Y-16900099D01*
X58587007Y-16965925D01*
X58650590Y-16982962D01*
X57716438Y-17917112D01*
X57892525Y-18037166D01*
X57892526Y-18037167D01*
X58131530Y-18152264D01*
X58131528Y-18152264D01*
X58385025Y-18230458D01*
X58385031Y-18230459D01*
X58647351Y-18269999D01*
X58647358Y-18270000D01*
X58912642Y-18270000D01*
X58912648Y-18269999D01*
X59174968Y-18230459D01*
X59174974Y-18230458D01*
X59428470Y-18152264D01*
X59667479Y-18037164D01*
X59843560Y-17917112D01*
X58909409Y-16982962D01*
X58972993Y-16965925D01*
X59087007Y-16900099D01*
X59180099Y-16807007D01*
X59245925Y-16692993D01*
X59262962Y-16629409D01*
X60196355Y-17562803D01*
X60196356Y-17562802D01*
X60246545Y-17499869D01*
X60379185Y-17270128D01*
X60476103Y-17023185D01*
X60476109Y-17023166D01*
X60535138Y-16764540D01*
X60535139Y-16764535D01*
X60554963Y-16500004D01*
X60554963Y-16499995D01*
X60535139Y-16235464D01*
X60535138Y-16235459D01*
X60476109Y-15976833D01*
X60476103Y-15976814D01*
X60379185Y-15729871D01*
X60379186Y-15729871D01*
X60246543Y-15500129D01*
X60246536Y-15500118D01*
X60196356Y-15437196D01*
X60196355Y-15437195D01*
X59262962Y-16370589D01*
X59245925Y-16307007D01*
X59180099Y-16192993D01*
X59087007Y-16099901D01*
X58972993Y-16034075D01*
X58909410Y-16017037D01*
X59843560Y-15082886D01*
X59667484Y-14962839D01*
X59667474Y-14962832D01*
X59428469Y-14847735D01*
X59428471Y-14847735D01*
X59174974Y-14769541D01*
X59174968Y-14769540D01*
X58912648Y-14730000D01*
X58647351Y-14730000D01*
X58385031Y-14769540D01*
X58385025Y-14769541D01*
X58131529Y-14847735D01*
X57892526Y-14962832D01*
X57892518Y-14962837D01*
X57716438Y-15082886D01*
X58650590Y-16017037D01*
X58587007Y-16034075D01*
X58472993Y-16099901D01*
X58379901Y-16192993D01*
X58314075Y-16307007D01*
X58297037Y-16370590D01*
X57363643Y-15437196D01*
X57313456Y-15500128D01*
X57180814Y-15729871D01*
X57083896Y-15976814D01*
X57083890Y-15976833D01*
X57024861Y-16235459D01*
X57024860Y-16235464D01*
X57005037Y-16499995D01*
X48650500Y-16499995D01*
X48650500Y-14435931D01*
X48650500Y-14435928D01*
X48625502Y-14310260D01*
X48625500Y-14310254D01*
X48605189Y-14261221D01*
X48605187Y-14261216D01*
X48576468Y-14191878D01*
X48576462Y-14191868D01*
X48505278Y-14085332D01*
X48505272Y-14085325D01*
X47414673Y-12994726D01*
X47414669Y-12994723D01*
X47308127Y-12923535D01*
X47189744Y-12874499D01*
X47189738Y-12874497D01*
X47064071Y-12849500D01*
X47064069Y-12849500D01*
X23935931Y-12849500D01*
X23935929Y-12849500D01*
X23810261Y-12874497D01*
X23810255Y-12874499D01*
X23691874Y-12923534D01*
X23585326Y-12994726D01*
X19550909Y-17029143D01*
X19489586Y-17062628D01*
X19422967Y-17058744D01*
X19369613Y-17040428D01*
X19124335Y-16999500D01*
X18875665Y-16999500D01*
X18630383Y-17040429D01*
X18395197Y-17121169D01*
X18395188Y-17121172D01*
X18176493Y-17239524D01*
X17980257Y-17392261D01*
X17811833Y-17575217D01*
X17675826Y-17783393D01*
X17675214Y-17784525D01*
X17674842Y-17784898D01*
X17673022Y-17787686D01*
X17672448Y-17787311D01*
X17625991Y-17834112D01*
X17566163Y-17849500D01*
X15433837Y-17849500D01*
X15366798Y-17829815D01*
X15327438Y-17787384D01*
X15326978Y-17787686D01*
X15325214Y-17784987D01*
X15324786Y-17784525D01*
X15324173Y-17783393D01*
X15188166Y-17575217D01*
X15119066Y-17500155D01*
X15019744Y-17392262D01*
X14823509Y-17239526D01*
X14823507Y-17239525D01*
X14823506Y-17239524D01*
X14604811Y-17121172D01*
X14604802Y-17121169D01*
X14369616Y-17040429D01*
X14124335Y-16999500D01*
X13875665Y-16999500D01*
X13630383Y-17040429D01*
X13395197Y-17121169D01*
X13395188Y-17121172D01*
X13176493Y-17239524D01*
X13129129Y-17276389D01*
X12980256Y-17392262D01*
X12880934Y-17500155D01*
X12811836Y-17575215D01*
X12728309Y-17703063D01*
X12675162Y-17748419D01*
X12605931Y-17757843D01*
X12542595Y-17728341D01*
X12505264Y-17669281D01*
X12500500Y-17635241D01*
X12500500Y-14863843D01*
X12520185Y-14796804D01*
X12572989Y-14751049D01*
X12642147Y-14741105D01*
X12705703Y-14770130D01*
X12728309Y-14796022D01*
X12776564Y-14869882D01*
X13517037Y-14129409D01*
X13534075Y-14192993D01*
X13599901Y-14307007D01*
X13692993Y-14400099D01*
X13807007Y-14465925D01*
X13870590Y-14482962D01*
X13129942Y-15223609D01*
X13176768Y-15260055D01*
X13176770Y-15260056D01*
X13395385Y-15378364D01*
X13395396Y-15378369D01*
X13630506Y-15459083D01*
X13875707Y-15500000D01*
X14124293Y-15500000D01*
X14369493Y-15459083D01*
X14604603Y-15378369D01*
X14604614Y-15378364D01*
X14823228Y-15260057D01*
X14823231Y-15260055D01*
X14870056Y-15223609D01*
X14129409Y-14482962D01*
X14192993Y-14465925D01*
X14307007Y-14400099D01*
X14400099Y-14307007D01*
X14465925Y-14192993D01*
X14482962Y-14129409D01*
X15223434Y-14869882D01*
X15323731Y-14716369D01*
X15423587Y-14488717D01*
X15484612Y-14247738D01*
X15484614Y-14247729D01*
X15505141Y-14000005D01*
X15505141Y-13999994D01*
X15484614Y-13752270D01*
X15484612Y-13752261D01*
X15423587Y-13511282D01*
X15323731Y-13283630D01*
X15223434Y-13130116D01*
X14482962Y-13870589D01*
X14465925Y-13807007D01*
X14400099Y-13692993D01*
X14307007Y-13599901D01*
X14192993Y-13534075D01*
X14129410Y-13517037D01*
X14870057Y-12776390D01*
X14870056Y-12776389D01*
X14823231Y-12739945D01*
X14811424Y-12733555D01*
X14761834Y-12684335D01*
X14746726Y-12616118D01*
X14770897Y-12550563D01*
X14826672Y-12508482D01*
X14870442Y-12500500D01*
X61375500Y-12500500D01*
X61442539Y-12520185D01*
G37*
%TD.AperFunction*%
%TA.AperFunction,Conductor*%
G36*
X13196598Y-12520185D02*
G01*
X13242353Y-12572989D01*
X13252297Y-12642147D01*
X13223272Y-12705703D01*
X13188577Y-12733555D01*
X13176761Y-12739949D01*
X13129942Y-12776388D01*
X13129942Y-12776390D01*
X13870590Y-13517037D01*
X13807007Y-13534075D01*
X13692993Y-13599901D01*
X13599901Y-13692993D01*
X13534075Y-13807007D01*
X13517037Y-13870589D01*
X12776564Y-13130116D01*
X12728309Y-13203977D01*
X12675162Y-13249333D01*
X12605931Y-13258757D01*
X12542595Y-13229255D01*
X12505264Y-13170194D01*
X12500500Y-13136155D01*
X12500500Y-12624500D01*
X12520185Y-12557461D01*
X12572989Y-12511706D01*
X12624500Y-12500500D01*
X13129559Y-12500500D01*
X13196598Y-12520185D01*
G37*
%TD.AperFunction*%
%TD*%
M02*
