%TF.GenerationSoftware,KiCad,Pcbnew,8.0.5*%
%TF.CreationDate,2025-07-12T21:41:12-04:00*%
%TF.ProjectId,Car,4361722e-6b69-4636-9164-5f7063625858,rev?*%
%TF.SameCoordinates,Original*%
%TF.FileFunction,Drillmap*%
%TF.FilePolarity,Positive*%
%FSLAX45Y45*%
G04 Gerber Fmt 4.5, Leading zero omitted, Abs format (unit mm)*
G04 Created by KiCad (PCBNEW 8.0.5) date 2025-07-12 21:41:12*
%MOMM*%
%LPD*%
G01*
G04 APERTURE LIST*
%ADD10C,0.050000*%
%ADD11C,0.200000*%
G04 APERTURE END LIST*
D10*
X1200000Y-1200000D02*
X6200000Y-1200000D01*
X6200000Y-8200000D01*
X1200000Y-8200000D01*
X1200000Y-1200000D01*
D11*
X1458277Y-8513984D02*
X1458277Y-8313984D01*
X1458277Y-8313984D02*
X1505896Y-8313984D01*
X1505896Y-8313984D02*
X1534467Y-8323508D01*
X1534467Y-8323508D02*
X1553515Y-8342555D01*
X1553515Y-8342555D02*
X1563039Y-8361603D01*
X1563039Y-8361603D02*
X1572562Y-8399698D01*
X1572562Y-8399698D02*
X1572562Y-8428270D01*
X1572562Y-8428270D02*
X1563039Y-8466365D01*
X1563039Y-8466365D02*
X1553515Y-8485412D01*
X1553515Y-8485412D02*
X1534467Y-8504460D01*
X1534467Y-8504460D02*
X1505896Y-8513984D01*
X1505896Y-8513984D02*
X1458277Y-8513984D01*
X1658277Y-8513984D02*
X1658277Y-8380650D01*
X1658277Y-8418746D02*
X1667801Y-8399698D01*
X1667801Y-8399698D02*
X1677324Y-8390174D01*
X1677324Y-8390174D02*
X1696372Y-8380650D01*
X1696372Y-8380650D02*
X1715420Y-8380650D01*
X1782086Y-8513984D02*
X1782086Y-8380650D01*
X1782086Y-8313984D02*
X1772562Y-8323508D01*
X1772562Y-8323508D02*
X1782086Y-8333031D01*
X1782086Y-8333031D02*
X1791610Y-8323508D01*
X1791610Y-8323508D02*
X1782086Y-8313984D01*
X1782086Y-8313984D02*
X1782086Y-8333031D01*
X1905896Y-8513984D02*
X1886848Y-8504460D01*
X1886848Y-8504460D02*
X1877324Y-8485412D01*
X1877324Y-8485412D02*
X1877324Y-8313984D01*
X2010658Y-8513984D02*
X1991610Y-8504460D01*
X1991610Y-8504460D02*
X1982086Y-8485412D01*
X1982086Y-8485412D02*
X1982086Y-8313984D01*
X2239229Y-8513984D02*
X2239229Y-8313984D01*
X2239229Y-8313984D02*
X2305896Y-8456841D01*
X2305896Y-8456841D02*
X2372563Y-8313984D01*
X2372563Y-8313984D02*
X2372563Y-8513984D01*
X2553515Y-8513984D02*
X2553515Y-8409222D01*
X2553515Y-8409222D02*
X2543991Y-8390174D01*
X2543991Y-8390174D02*
X2524944Y-8380650D01*
X2524944Y-8380650D02*
X2486848Y-8380650D01*
X2486848Y-8380650D02*
X2467801Y-8390174D01*
X2553515Y-8504460D02*
X2534467Y-8513984D01*
X2534467Y-8513984D02*
X2486848Y-8513984D01*
X2486848Y-8513984D02*
X2467801Y-8504460D01*
X2467801Y-8504460D02*
X2458277Y-8485412D01*
X2458277Y-8485412D02*
X2458277Y-8466365D01*
X2458277Y-8466365D02*
X2467801Y-8447317D01*
X2467801Y-8447317D02*
X2486848Y-8437793D01*
X2486848Y-8437793D02*
X2534467Y-8437793D01*
X2534467Y-8437793D02*
X2553515Y-8428270D01*
X2648753Y-8380650D02*
X2648753Y-8580650D01*
X2648753Y-8390174D02*
X2667801Y-8380650D01*
X2667801Y-8380650D02*
X2705896Y-8380650D01*
X2705896Y-8380650D02*
X2724944Y-8390174D01*
X2724944Y-8390174D02*
X2734467Y-8399698D01*
X2734467Y-8399698D02*
X2743991Y-8418746D01*
X2743991Y-8418746D02*
X2743991Y-8475889D01*
X2743991Y-8475889D02*
X2734467Y-8494936D01*
X2734467Y-8494936D02*
X2724944Y-8504460D01*
X2724944Y-8504460D02*
X2705896Y-8513984D01*
X2705896Y-8513984D02*
X2667801Y-8513984D01*
X2667801Y-8513984D02*
X2648753Y-8504460D01*
X2829705Y-8494936D02*
X2839229Y-8504460D01*
X2839229Y-8504460D02*
X2829705Y-8513984D01*
X2829705Y-8513984D02*
X2820182Y-8504460D01*
X2820182Y-8504460D02*
X2829705Y-8494936D01*
X2829705Y-8494936D02*
X2829705Y-8513984D01*
X2829705Y-8390174D02*
X2839229Y-8399698D01*
X2839229Y-8399698D02*
X2829705Y-8409222D01*
X2829705Y-8409222D02*
X2820182Y-8399698D01*
X2820182Y-8399698D02*
X2829705Y-8390174D01*
X2829705Y-8390174D02*
X2829705Y-8409222D01*
M02*
