%TF.GenerationSoftware,KiCad,Pcbnew,8.0.5*%
%TF.CreationDate,2025-07-12T23:51:39-04:00*%
%TF.ProjectId,Car,4361722e-6b69-4636-9164-5f7063625858,rev?*%
%TF.SameCoordinates,Original*%
%TF.FileFunction,Copper,L2,Bot*%
%TF.FilePolarity,Positive*%
%FSLAX46Y46*%
G04 Gerber Fmt 4.6, Leading zero omitted, Abs format (unit mm)*
G04 Created by KiCad (PCBNEW 8.0.5) date 2025-07-12 23:51:39*
%MOMM*%
%LPD*%
G01*
G04 APERTURE LIST*
%TA.AperFunction,ComponentPad*%
%ADD10C,2.000000*%
%TD*%
%TA.AperFunction,ComponentPad*%
%ADD11R,2.540000X2.540000*%
%TD*%
%TA.AperFunction,ComponentPad*%
%ADD12C,2.540000*%
%TD*%
G04 APERTURE END LIST*
D10*
%TO.P,J11,1,Pin_1*%
%TO.N,GND*%
X26500000Y-72500000D03*
%TO.P,J11,2,Pin_2*%
%TO.N,LED1*%
X26500000Y-68000000D03*
%TO.P,J11,3,Pin_3*%
%TO.N,+5V*%
X26500000Y-63500000D03*
%TD*%
%TO.P,J8,1,Pin_1*%
%TO.N,IN4*%
X21500000Y-37000000D03*
%TO.P,J8,2,Pin_2*%
%TO.N,IN3*%
X21500000Y-32500000D03*
%TO.P,J8,3,Pin_3*%
%TO.N,IN2*%
X21500000Y-27500000D03*
%TO.P,J8,4,Pin_4*%
%TO.N,IN1*%
X21500000Y-23000000D03*
%TD*%
%TO.P,J1,1,Pin_1*%
%TO.N,Net-(J1-Pin_1)*%
X43500000Y-61500000D03*
%TO.P,J1,2,Pin_2*%
%TO.N,Net-(J1-Pin_2)*%
X48000000Y-61500000D03*
%TD*%
D11*
%TO.P,U3,1,Vin*%
%TO.N,VCC*%
X41000000Y-57140000D03*
D12*
%TO.P,U3,2,GND*%
%TO.N,GND*%
X58780000Y-57140000D03*
%TO.P,U3,3,GND*%
X58780000Y-16500000D03*
%TO.P,U3,4,Vout*%
%TO.N,+6.5V*%
X41000000Y-16500000D03*
%TD*%
D10*
%TO.P,J12,1,Pin_1*%
%TO.N,GND*%
X20000000Y-79500000D03*
%TO.P,J12,2,Pin_2*%
%TO.N,LED2*%
X20000000Y-75000000D03*
%TO.P,J12,3,Pin_3*%
%TO.N,+5V*%
X20000000Y-70500000D03*
%TD*%
%TO.P,J6,1,Pin_1*%
%TO.N,Net-(J1-Pin_1)*%
X43500000Y-68000000D03*
%TO.P,J6,2,Pin_2*%
%TO.N,Net-(J1-Pin_2)*%
X48000000Y-68000000D03*
%TD*%
%TO.P,J3,1,Pin_1*%
%TO.N,Net-(J3-Pin_1)*%
X52500000Y-61500000D03*
%TO.P,J3,2,Pin_2*%
%TO.N,Net-(J3-Pin_2)*%
X57000000Y-61500000D03*
%TD*%
%TO.P,J4,1,Pin_1*%
%TO.N,Net-(J3-Pin_1)*%
X52500000Y-64500000D03*
%TO.P,J4,2,Pin_2*%
%TO.N,Net-(J3-Pin_2)*%
X57000000Y-64500000D03*
%TD*%
%TO.P,J10,1,Pin_1*%
%TO.N,LED2*%
X14000000Y-65000000D03*
%TO.P,J10,2,Pin_2*%
%TO.N,LED1*%
X14000000Y-60500000D03*
%TO.P,J10,3,Pin_3*%
%TO.N,BA*%
X14000000Y-56000000D03*
%TO.P,J10,4,Pin_4*%
%TO.N,BB*%
X14000000Y-51000000D03*
%TO.P,J10,5,Pin_5*%
%TO.N,AA*%
X14000000Y-46500000D03*
%TO.P,J10,6,Pin_6*%
%TO.N,AB*%
X14000000Y-42000000D03*
%TO.P,J10,7,Pin_7*%
%TO.N,IN4*%
X14000000Y-37000000D03*
%TO.P,J10,8,Pin_8*%
%TO.N,IN3*%
X14000000Y-32500000D03*
%TO.P,J10,9,Pin_9*%
%TO.N,IN2*%
X14000000Y-28000000D03*
%TO.P,J10,10,Pin_10*%
%TO.N,IN1*%
X14000000Y-23000000D03*
%TO.P,J10,11,Pin_11*%
%TO.N,+5V*%
X14000000Y-18500000D03*
%TO.P,J10,12,Pin_12*%
%TO.N,GND*%
X14000000Y-14000000D03*
%TD*%
%TO.P,J5,1,Pin_1*%
%TO.N,Net-(J3-Pin_1)*%
X52500000Y-68500000D03*
%TO.P,J5,2,Pin_2*%
%TO.N,Net-(J3-Pin_2)*%
X57000000Y-68500000D03*
%TD*%
%TO.P,J7,1,Pin_1*%
%TO.N,+5V*%
X19000000Y-18500000D03*
%TO.P,J7,2,Pin_2*%
%TO.N,GND*%
X23500000Y-18500000D03*
%TO.P,J7,3,Pin_3*%
%TO.N,+6.5V*%
X28000000Y-18500000D03*
%TD*%
%TO.P,J9,1,Pin_1*%
%TO.N,BA*%
X21500000Y-63500000D03*
%TO.P,J9,2,Pin_2*%
%TO.N,BB*%
X21500000Y-59000000D03*
%TO.P,J9,3,Pin_3*%
%TO.N,GND*%
X21500000Y-54500000D03*
%TO.P,J9,4,Pin_4*%
%TO.N,+6.5V*%
X21500000Y-49500000D03*
%TO.P,J9,5,Pin_5*%
%TO.N,AA*%
X21500000Y-45000000D03*
%TO.P,J9,6,Pin_6*%
%TO.N,AB*%
X21500000Y-40500000D03*
%TD*%
%TO.P,J2,1,Pin_1*%
%TO.N,Net-(J1-Pin_1)*%
X43500000Y-64500000D03*
%TO.P,J2,2,Pin_2*%
%TO.N,Net-(J1-Pin_2)*%
X48000000Y-64500000D03*
%TD*%
M02*
