%TF.GenerationSoftware,KiCad,Pcbnew,8.0.5*%
%TF.CreationDate,2025-07-12T23:47:55-04:00*%
%TF.ProjectId,Car,4361722e-6b69-4636-9164-5f7063625858,rev?*%
%TF.SameCoordinates,Original*%
%TF.FileFunction,Copper,L1,Top*%
%TF.FilePolarity,Positive*%
%FSLAX46Y46*%
G04 Gerber Fmt 4.6, Leading zero omitted, Abs format (unit mm)*
G04 Created by KiCad (PCBNEW 8.0.5) date 2025-07-12 23:47:55*
%MOMM*%
%LPD*%
G01*
G04 APERTURE LIST*
%TA.AperFunction,ComponentPad*%
%ADD10C,2.000000*%
%TD*%
%TA.AperFunction,ComponentPad*%
%ADD11R,2.540000X2.540000*%
%TD*%
%TA.AperFunction,ComponentPad*%
%ADD12C,2.540000*%
%TD*%
%TA.AperFunction,Conductor*%
%ADD13C,0.500000*%
%TD*%
G04 APERTURE END LIST*
D10*
%TO.P,J11,1,Pin_1*%
%TO.N,GND*%
X26500000Y-72500000D03*
%TO.P,J11,2,Pin_2*%
%TO.N,LED1*%
X26500000Y-68000000D03*
%TO.P,J11,3,Pin_3*%
%TO.N,+5V*%
X26500000Y-63500000D03*
%TD*%
%TO.P,J8,1,Pin_1*%
%TO.N,IN4*%
X21500000Y-37000000D03*
%TO.P,J8,2,Pin_2*%
%TO.N,IN3*%
X21500000Y-32500000D03*
%TO.P,J8,3,Pin_3*%
%TO.N,IN2*%
X21500000Y-27500000D03*
%TO.P,J8,4,Pin_4*%
%TO.N,IN1*%
X21500000Y-23000000D03*
%TD*%
%TO.P,J1,1,Pin_1*%
%TO.N,Net-(J1-Pin_1)*%
X43500000Y-61500000D03*
%TO.P,J1,2,Pin_2*%
%TO.N,Net-(J1-Pin_2)*%
X48000000Y-61500000D03*
%TD*%
D11*
%TO.P,U3,1,Vin*%
%TO.N,VCC*%
X41000000Y-57140000D03*
D12*
%TO.P,U3,2,GND*%
%TO.N,GND*%
X58780000Y-57140000D03*
%TO.P,U3,3,GND*%
X58780000Y-16500000D03*
%TO.P,U3,4,Vout*%
%TO.N,+6.5V*%
X41000000Y-16500000D03*
%TD*%
D10*
%TO.P,J12,1,Pin_1*%
%TO.N,GND*%
X20000000Y-79500000D03*
%TO.P,J12,2,Pin_2*%
%TO.N,LED2*%
X20000000Y-75000000D03*
%TO.P,J12,3,Pin_3*%
%TO.N,+5V*%
X20000000Y-70500000D03*
%TD*%
%TO.P,J6,1,Pin_1*%
%TO.N,Net-(J1-Pin_1)*%
X43500000Y-68000000D03*
%TO.P,J6,2,Pin_2*%
%TO.N,Net-(J1-Pin_2)*%
X48000000Y-68000000D03*
%TD*%
%TO.P,J3,1,Pin_1*%
%TO.N,Net-(J3-Pin_1)*%
X52500000Y-61500000D03*
%TO.P,J3,2,Pin_2*%
%TO.N,Net-(J3-Pin_2)*%
X57000000Y-61500000D03*
%TD*%
%TO.P,J4,1,Pin_1*%
%TO.N,Net-(J3-Pin_1)*%
X52500000Y-64500000D03*
%TO.P,J4,2,Pin_2*%
%TO.N,Net-(J3-Pin_2)*%
X57000000Y-64500000D03*
%TD*%
%TO.P,J10,1,Pin_1*%
%TO.N,LED2*%
X14000000Y-65000000D03*
%TO.P,J10,2,Pin_2*%
%TO.N,LED1*%
X14000000Y-60500000D03*
%TO.P,J10,3,Pin_3*%
%TO.N,BA*%
X14000000Y-56000000D03*
%TO.P,J10,4,Pin_4*%
%TO.N,BB*%
X14000000Y-51000000D03*
%TO.P,J10,5,Pin_5*%
%TO.N,AA*%
X14000000Y-46500000D03*
%TO.P,J10,6,Pin_6*%
%TO.N,AB*%
X14000000Y-42000000D03*
%TO.P,J10,7,Pin_7*%
%TO.N,IN4*%
X14000000Y-37000000D03*
%TO.P,J10,8,Pin_8*%
%TO.N,IN3*%
X14000000Y-32500000D03*
%TO.P,J10,9,Pin_9*%
%TO.N,IN2*%
X14000000Y-28000000D03*
%TO.P,J10,10,Pin_10*%
%TO.N,IN1*%
X14000000Y-23000000D03*
%TO.P,J10,11,Pin_11*%
%TO.N,+5V*%
X14000000Y-18500000D03*
%TO.P,J10,12,Pin_12*%
%TO.N,GND*%
X14000000Y-14000000D03*
%TD*%
%TO.P,J5,1,Pin_1*%
%TO.N,Net-(J3-Pin_1)*%
X52500000Y-68500000D03*
%TO.P,J5,2,Pin_2*%
%TO.N,Net-(J3-Pin_2)*%
X57000000Y-68500000D03*
%TD*%
%TO.P,J7,1,Pin_1*%
%TO.N,+5V*%
X19000000Y-18500000D03*
%TO.P,J7,2,Pin_2*%
%TO.N,GND*%
X23500000Y-18500000D03*
%TO.P,J7,3,Pin_3*%
%TO.N,+6.5V*%
X28000000Y-18500000D03*
%TD*%
%TO.P,J9,1,Pin_1*%
%TO.N,BA*%
X21500000Y-63500000D03*
%TO.P,J9,2,Pin_2*%
%TO.N,BB*%
X21500000Y-59000000D03*
%TO.P,J9,3,Pin_3*%
%TO.N,GND*%
X21500000Y-54500000D03*
%TO.P,J9,4,Pin_4*%
%TO.N,+6.5V*%
X21500000Y-49500000D03*
%TO.P,J9,5,Pin_5*%
%TO.N,AA*%
X21500000Y-45000000D03*
%TO.P,J9,6,Pin_6*%
%TO.N,AB*%
X21500000Y-40500000D03*
%TD*%
%TO.P,J2,1,Pin_1*%
%TO.N,Net-(J1-Pin_1)*%
X43500000Y-64500000D03*
%TO.P,J2,2,Pin_2*%
%TO.N,Net-(J1-Pin_2)*%
X48000000Y-64500000D03*
%TD*%
D13*
%TO.N,Net-(J1-Pin_1)*%
X43500000Y-61500000D02*
X43500000Y-68000000D01*
%TO.N,Net-(J1-Pin_2)*%
X48000000Y-61500000D02*
X48000000Y-68000000D01*
%TO.N,Net-(J3-Pin_2)*%
X57000000Y-61500000D02*
X57000000Y-68500000D01*
%TO.N,Net-(J3-Pin_1)*%
X52500000Y-61500000D02*
X52500000Y-68500000D01*
%TO.N,+6.5V*%
X28000000Y-42500000D02*
X21500000Y-49000000D01*
X28000000Y-18500000D02*
X30000000Y-16500000D01*
X30000000Y-16500000D02*
X41000000Y-16500000D01*
X28000000Y-18500000D02*
X28000000Y-42500000D01*
%TO.N,+5V*%
X26500000Y-63500000D02*
X48000000Y-42000000D01*
X14000000Y-18500000D02*
X19000000Y-18500000D01*
X47000000Y-13500000D02*
X24000000Y-13500000D01*
X24000000Y-13500000D02*
X19000000Y-18500000D01*
X48000000Y-42000000D02*
X48000000Y-14500000D01*
X30500000Y-67500000D02*
X30500000Y-69500000D01*
X30500000Y-69500000D02*
X29500000Y-70500000D01*
X29500000Y-70500000D02*
X20000000Y-70500000D01*
X26500000Y-63500000D02*
X30500000Y-67500000D01*
X48000000Y-14500000D02*
X47000000Y-13500000D01*
%TO.N,IN4*%
X14000000Y-37000000D02*
X21500000Y-37000000D01*
%TO.N,IN2*%
X14000000Y-28000000D02*
X21000000Y-28000000D01*
%TO.N,IN1*%
X14000000Y-23000000D02*
X21500000Y-23000000D01*
%TO.N,IN3*%
X14000000Y-32500000D02*
X21500000Y-32500000D01*
%TO.N,BB*%
X14000000Y-51000000D02*
X21500000Y-58500000D01*
%TO.N,AA*%
X21500000Y-44500000D02*
X19500000Y-46500000D01*
X19500000Y-46500000D02*
X14000000Y-46500000D01*
%TO.N,AB*%
X16000000Y-40000000D02*
X21500000Y-40000000D01*
X14000000Y-42000000D02*
X16000000Y-40000000D01*
%TO.N,BA*%
X14000000Y-56000000D02*
X21000000Y-63000000D01*
%TO.N,LED1*%
X14000000Y-60500000D02*
X21500000Y-68000000D01*
X21500000Y-68000000D02*
X26500000Y-68000000D01*
%TO.N,LED2*%
X14000000Y-65000000D02*
X14000000Y-69000000D01*
X14000000Y-69000000D02*
X20000000Y-75000000D01*
%TD*%
%TA.AperFunction,Conductor*%
%TO.N,GND*%
G36*
X61442539Y-12520185D02*
G01*
X61488294Y-12572989D01*
X61499500Y-12624500D01*
X61499500Y-81375500D01*
X61479815Y-81442539D01*
X61427011Y-81488294D01*
X61375500Y-81499500D01*
X12624500Y-81499500D01*
X12557461Y-81479815D01*
X12511706Y-81427011D01*
X12500500Y-81375500D01*
X12500500Y-79499994D01*
X18494859Y-79499994D01*
X18494859Y-79500005D01*
X18515385Y-79747729D01*
X18515387Y-79747738D01*
X18576412Y-79988717D01*
X18676266Y-80216364D01*
X18776564Y-80369882D01*
X19517037Y-79629409D01*
X19534075Y-79692993D01*
X19599901Y-79807007D01*
X19692993Y-79900099D01*
X19807007Y-79965925D01*
X19870590Y-79982962D01*
X19129942Y-80723609D01*
X19176768Y-80760055D01*
X19176770Y-80760056D01*
X19395385Y-80878364D01*
X19395396Y-80878369D01*
X19630506Y-80959083D01*
X19875707Y-81000000D01*
X20124293Y-81000000D01*
X20369493Y-80959083D01*
X20604603Y-80878369D01*
X20604614Y-80878364D01*
X20823228Y-80760057D01*
X20823231Y-80760055D01*
X20870056Y-80723609D01*
X20129409Y-79982962D01*
X20192993Y-79965925D01*
X20307007Y-79900099D01*
X20400099Y-79807007D01*
X20465925Y-79692993D01*
X20482962Y-79629410D01*
X21223434Y-80369882D01*
X21323731Y-80216369D01*
X21423587Y-79988717D01*
X21484612Y-79747738D01*
X21484614Y-79747729D01*
X21505141Y-79500005D01*
X21505141Y-79499994D01*
X21484614Y-79252270D01*
X21484612Y-79252261D01*
X21423587Y-79011282D01*
X21323731Y-78783630D01*
X21223434Y-78630116D01*
X20482962Y-79370589D01*
X20465925Y-79307007D01*
X20400099Y-79192993D01*
X20307007Y-79099901D01*
X20192993Y-79034075D01*
X20129410Y-79017037D01*
X20870057Y-78276390D01*
X20870056Y-78276389D01*
X20823229Y-78239943D01*
X20604614Y-78121635D01*
X20604603Y-78121630D01*
X20369493Y-78040916D01*
X20124293Y-78000000D01*
X19875707Y-78000000D01*
X19630506Y-78040916D01*
X19395396Y-78121630D01*
X19395390Y-78121632D01*
X19176761Y-78239949D01*
X19129942Y-78276388D01*
X19129942Y-78276390D01*
X19870590Y-79017037D01*
X19807007Y-79034075D01*
X19692993Y-79099901D01*
X19599901Y-79192993D01*
X19534075Y-79307007D01*
X19517037Y-79370589D01*
X18776564Y-78630116D01*
X18676267Y-78783632D01*
X18576412Y-79011282D01*
X18515387Y-79252261D01*
X18515385Y-79252270D01*
X18494859Y-79499994D01*
X12500500Y-79499994D01*
X12500500Y-65864758D01*
X12520185Y-65797719D01*
X12572989Y-65751964D01*
X12642147Y-65742020D01*
X12705703Y-65771045D01*
X12728309Y-65796937D01*
X12811833Y-65924782D01*
X12811836Y-65924785D01*
X12980256Y-66107738D01*
X13176491Y-66260474D01*
X13184513Y-66264815D01*
X13234106Y-66314032D01*
X13249500Y-66373872D01*
X13249500Y-69073918D01*
X13249500Y-69073920D01*
X13249499Y-69073920D01*
X13278340Y-69218907D01*
X13278343Y-69218917D01*
X13334913Y-69355490D01*
X13334919Y-69355501D01*
X13350504Y-69378824D01*
X13350505Y-69378828D01*
X13350507Y-69378828D01*
X13404456Y-69459571D01*
X13417051Y-69478420D01*
X13417052Y-69478421D01*
X18500618Y-74561985D01*
X18534103Y-74623308D01*
X18533143Y-74680106D01*
X18514891Y-74752182D01*
X18494357Y-74999994D01*
X18494357Y-75000005D01*
X18514890Y-75247812D01*
X18514892Y-75247824D01*
X18575936Y-75488881D01*
X18675826Y-75716606D01*
X18811833Y-75924782D01*
X18811836Y-75924785D01*
X18980256Y-76107738D01*
X19176491Y-76260474D01*
X19395190Y-76378828D01*
X19630386Y-76459571D01*
X19875665Y-76500500D01*
X20124335Y-76500500D01*
X20369614Y-76459571D01*
X20604810Y-76378828D01*
X20823509Y-76260474D01*
X21019744Y-76107738D01*
X21188164Y-75924785D01*
X21324173Y-75716607D01*
X21424063Y-75488881D01*
X21485108Y-75247821D01*
X21505643Y-75000000D01*
X21485108Y-74752179D01*
X21424063Y-74511119D01*
X21324173Y-74283393D01*
X21188166Y-74075217D01*
X21166557Y-74051744D01*
X21019744Y-73892262D01*
X20823509Y-73739526D01*
X20823507Y-73739525D01*
X20823506Y-73739524D01*
X20604811Y-73621172D01*
X20604802Y-73621169D01*
X20369616Y-73540429D01*
X20124335Y-73499500D01*
X19875665Y-73499500D01*
X19668841Y-73534012D01*
X19599476Y-73525630D01*
X19560751Y-73499384D01*
X14786819Y-68725451D01*
X14753334Y-68664128D01*
X14750500Y-68637770D01*
X14750500Y-66373872D01*
X14770185Y-66306833D01*
X14815487Y-66264815D01*
X14823509Y-66260474D01*
X15019744Y-66107738D01*
X15188164Y-65924785D01*
X15324173Y-65716607D01*
X15424063Y-65488881D01*
X15485108Y-65247821D01*
X15485109Y-65247812D01*
X15505643Y-65000005D01*
X15505643Y-64999994D01*
X15485109Y-64752187D01*
X15485107Y-64752175D01*
X15424063Y-64511118D01*
X15324173Y-64283393D01*
X15188166Y-64075217D01*
X15166557Y-64051744D01*
X15019744Y-63892262D01*
X14823509Y-63739526D01*
X14823507Y-63739525D01*
X14823506Y-63739524D01*
X14604811Y-63621172D01*
X14604802Y-63621169D01*
X14369616Y-63540429D01*
X14124335Y-63499500D01*
X13875665Y-63499500D01*
X13630383Y-63540429D01*
X13395197Y-63621169D01*
X13395188Y-63621172D01*
X13176493Y-63739524D01*
X12985484Y-63888193D01*
X12980256Y-63892262D01*
X12811836Y-64075215D01*
X12728309Y-64203063D01*
X12675162Y-64248419D01*
X12605931Y-64257843D01*
X12542595Y-64228341D01*
X12505264Y-64169281D01*
X12500500Y-64135241D01*
X12500500Y-61364758D01*
X12520185Y-61297719D01*
X12572989Y-61251964D01*
X12642147Y-61242020D01*
X12705703Y-61271045D01*
X12728309Y-61296937D01*
X12811833Y-61424782D01*
X12811836Y-61424785D01*
X12980256Y-61607738D01*
X13176491Y-61760474D01*
X13395190Y-61878828D01*
X13630386Y-61959571D01*
X13875665Y-62000500D01*
X14124335Y-62000500D01*
X14193965Y-61988881D01*
X14331158Y-61965988D01*
X14400523Y-61974370D01*
X14439248Y-62000616D01*
X21021586Y-68582954D01*
X21051058Y-68602645D01*
X21095268Y-68632184D01*
X21095270Y-68632187D01*
X21095271Y-68632187D01*
X21144496Y-68665079D01*
X21144511Y-68665087D01*
X21201079Y-68688518D01*
X21201080Y-68688518D01*
X21281088Y-68721659D01*
X21397241Y-68744763D01*
X21416468Y-68748587D01*
X21426081Y-68750500D01*
X21426082Y-68750500D01*
X21426083Y-68750500D01*
X21573918Y-68750500D01*
X25130864Y-68750500D01*
X25197903Y-68770185D01*
X25234672Y-68806677D01*
X25311836Y-68924785D01*
X25480256Y-69107738D01*
X25676491Y-69260474D01*
X25676493Y-69260475D01*
X25895182Y-69378824D01*
X25895190Y-69378828D01*
X26130386Y-69459571D01*
X26375665Y-69500500D01*
X26624335Y-69500500D01*
X26869614Y-69459571D01*
X27104810Y-69378828D01*
X27323509Y-69260474D01*
X27519744Y-69107738D01*
X27688164Y-68924785D01*
X27824173Y-68716607D01*
X27924063Y-68488881D01*
X27985108Y-68247821D01*
X28005643Y-68000000D01*
X27987694Y-67783393D01*
X27985109Y-67752187D01*
X27985107Y-67752175D01*
X27924063Y-67511118D01*
X27824173Y-67283393D01*
X27688166Y-67075217D01*
X27638793Y-67021584D01*
X27519744Y-66892262D01*
X27323509Y-66739526D01*
X27323507Y-66739525D01*
X27323506Y-66739524D01*
X27104811Y-66621172D01*
X27104802Y-66621169D01*
X26869616Y-66540429D01*
X26624335Y-66499500D01*
X26375665Y-66499500D01*
X26130383Y-66540429D01*
X25895197Y-66621169D01*
X25895188Y-66621172D01*
X25676493Y-66739524D01*
X25480257Y-66892261D01*
X25311836Y-67075215D01*
X25234673Y-67193322D01*
X25181526Y-67238678D01*
X25130864Y-67249500D01*
X21862230Y-67249500D01*
X21795191Y-67229815D01*
X21774549Y-67213181D01*
X15499381Y-60938013D01*
X15465896Y-60876690D01*
X15466857Y-60819890D01*
X15485106Y-60747829D01*
X15485106Y-60747828D01*
X15485108Y-60747821D01*
X15485109Y-60747812D01*
X15505643Y-60500005D01*
X15505643Y-60499994D01*
X15485109Y-60252187D01*
X15485107Y-60252175D01*
X15424063Y-60011118D01*
X15324173Y-59783393D01*
X15188166Y-59575217D01*
X15108688Y-59488881D01*
X15019744Y-59392262D01*
X14823509Y-59239526D01*
X14823507Y-59239525D01*
X14823506Y-59239524D01*
X14604811Y-59121172D01*
X14604802Y-59121169D01*
X14369616Y-59040429D01*
X14124335Y-58999500D01*
X13875665Y-58999500D01*
X13630383Y-59040429D01*
X13395197Y-59121169D01*
X13395188Y-59121172D01*
X13176493Y-59239524D01*
X12980257Y-59392261D01*
X12811836Y-59575215D01*
X12728309Y-59703063D01*
X12675162Y-59748419D01*
X12605931Y-59757843D01*
X12542595Y-59728341D01*
X12505264Y-59669281D01*
X12500500Y-59635241D01*
X12500500Y-56864758D01*
X12520185Y-56797719D01*
X12572989Y-56751964D01*
X12642147Y-56742020D01*
X12705703Y-56771045D01*
X12728309Y-56796937D01*
X12811833Y-56924782D01*
X12811836Y-56924785D01*
X12980256Y-57107738D01*
X13176491Y-57260474D01*
X13395190Y-57378828D01*
X13630386Y-57459571D01*
X13875665Y-57500500D01*
X14124335Y-57500500D01*
X14248296Y-57479815D01*
X14331158Y-57465988D01*
X14400523Y-57474370D01*
X14439248Y-57500616D01*
X20000618Y-63061986D01*
X20034103Y-63123309D01*
X20033143Y-63180107D01*
X20014891Y-63252182D01*
X19994357Y-63499994D01*
X19994357Y-63500005D01*
X20014890Y-63747812D01*
X20014892Y-63747824D01*
X20075936Y-63988881D01*
X20175826Y-64216606D01*
X20311833Y-64424782D01*
X20311836Y-64424785D01*
X20480256Y-64607738D01*
X20676491Y-64760474D01*
X20895190Y-64878828D01*
X21130386Y-64959571D01*
X21375665Y-65000500D01*
X21624335Y-65000500D01*
X21869614Y-64959571D01*
X22104810Y-64878828D01*
X22323509Y-64760474D01*
X22519744Y-64607738D01*
X22688164Y-64424785D01*
X22824173Y-64216607D01*
X22924063Y-63988881D01*
X22985108Y-63747821D01*
X22985109Y-63747812D01*
X23005643Y-63500005D01*
X23005643Y-63499994D01*
X22985109Y-63252187D01*
X22985107Y-63252175D01*
X22924063Y-63011118D01*
X22824173Y-62783393D01*
X22688166Y-62575217D01*
X22666557Y-62551744D01*
X22519744Y-62392262D01*
X22323509Y-62239526D01*
X22323507Y-62239525D01*
X22323506Y-62239524D01*
X22104811Y-62121172D01*
X22104802Y-62121169D01*
X21869616Y-62040429D01*
X21624335Y-61999500D01*
X21375665Y-61999500D01*
X21168841Y-62034011D01*
X21099476Y-62025629D01*
X21060751Y-61999383D01*
X15499381Y-56438013D01*
X15465896Y-56376690D01*
X15466857Y-56319890D01*
X15485106Y-56247829D01*
X15485106Y-56247828D01*
X15485108Y-56247821D01*
X15499247Y-56077195D01*
X15505643Y-56000000D01*
X15505643Y-55999994D01*
X15485109Y-55752187D01*
X15485107Y-55752175D01*
X15424063Y-55511118D01*
X15324173Y-55283393D01*
X15188166Y-55075217D01*
X15166557Y-55051744D01*
X15019744Y-54892262D01*
X14823509Y-54739526D01*
X14823507Y-54739525D01*
X14823506Y-54739524D01*
X14604811Y-54621172D01*
X14604802Y-54621169D01*
X14369616Y-54540429D01*
X14124335Y-54499500D01*
X13875665Y-54499500D01*
X13630383Y-54540429D01*
X13395197Y-54621169D01*
X13395188Y-54621172D01*
X13176493Y-54739524D01*
X13029989Y-54853553D01*
X12980256Y-54892262D01*
X12891463Y-54988717D01*
X12811836Y-55075215D01*
X12728309Y-55203063D01*
X12675162Y-55248419D01*
X12605931Y-55257843D01*
X12542595Y-55228341D01*
X12505264Y-55169281D01*
X12500500Y-55135241D01*
X12500500Y-51864758D01*
X12520185Y-51797719D01*
X12572989Y-51751964D01*
X12642147Y-51742020D01*
X12705703Y-51771045D01*
X12728309Y-51796937D01*
X12811833Y-51924782D01*
X12811836Y-51924785D01*
X12980256Y-52107738D01*
X13176491Y-52260474D01*
X13395190Y-52378828D01*
X13630386Y-52459571D01*
X13875665Y-52500500D01*
X14124335Y-52500500D01*
X14331158Y-52465988D01*
X14400523Y-52474370D01*
X14439248Y-52500616D01*
X20130006Y-58191374D01*
X20163491Y-58252697D01*
X20158507Y-58322389D01*
X20155881Y-58328865D01*
X20075936Y-58511118D01*
X20014892Y-58752175D01*
X20014890Y-58752187D01*
X19994357Y-58999994D01*
X19994357Y-59000005D01*
X20014890Y-59247812D01*
X20014892Y-59247824D01*
X20075936Y-59488881D01*
X20175826Y-59716606D01*
X20311833Y-59924782D01*
X20311836Y-59924785D01*
X20480256Y-60107738D01*
X20676491Y-60260474D01*
X20895190Y-60378828D01*
X21130386Y-60459571D01*
X21375665Y-60500500D01*
X21624335Y-60500500D01*
X21869614Y-60459571D01*
X22104810Y-60378828D01*
X22323509Y-60260474D01*
X22519744Y-60107738D01*
X22688164Y-59924785D01*
X22824173Y-59716607D01*
X22924063Y-59488881D01*
X22985108Y-59247821D01*
X22985109Y-59247812D01*
X23005643Y-59000005D01*
X23005643Y-58999994D01*
X22985109Y-58752187D01*
X22985107Y-58752175D01*
X22924063Y-58511118D01*
X22824173Y-58283393D01*
X22688166Y-58075217D01*
X22666557Y-58051744D01*
X22519744Y-57892262D01*
X22323509Y-57739526D01*
X22323507Y-57739525D01*
X22323506Y-57739524D01*
X22104811Y-57621172D01*
X22104802Y-57621169D01*
X21869616Y-57540429D01*
X21624335Y-57499500D01*
X21612230Y-57499500D01*
X21545191Y-57479815D01*
X21524549Y-57463181D01*
X18561362Y-54499994D01*
X19994859Y-54499994D01*
X19994859Y-54500005D01*
X20015385Y-54747729D01*
X20015387Y-54747738D01*
X20076412Y-54988717D01*
X20176266Y-55216364D01*
X20276564Y-55369882D01*
X21017037Y-54629409D01*
X21034075Y-54692993D01*
X21099901Y-54807007D01*
X21192993Y-54900099D01*
X21307007Y-54965925D01*
X21370590Y-54982962D01*
X20629942Y-55723609D01*
X20676768Y-55760055D01*
X20676770Y-55760056D01*
X20895385Y-55878364D01*
X20895396Y-55878369D01*
X21130506Y-55959083D01*
X21375707Y-56000000D01*
X21624293Y-56000000D01*
X21869493Y-55959083D01*
X22104603Y-55878369D01*
X22104614Y-55878364D01*
X22323228Y-55760057D01*
X22323231Y-55760055D01*
X22370056Y-55723609D01*
X21629409Y-54982962D01*
X21692993Y-54965925D01*
X21807007Y-54900099D01*
X21900099Y-54807007D01*
X21965925Y-54692993D01*
X21982962Y-54629409D01*
X22723434Y-55369882D01*
X22823731Y-55216369D01*
X22923587Y-54988717D01*
X22984612Y-54747738D01*
X22984614Y-54747729D01*
X23005141Y-54500005D01*
X23005141Y-54499994D01*
X22984614Y-54252270D01*
X22984612Y-54252261D01*
X22923587Y-54011282D01*
X22823731Y-53783630D01*
X22723434Y-53630116D01*
X21982962Y-54370589D01*
X21965925Y-54307007D01*
X21900099Y-54192993D01*
X21807007Y-54099901D01*
X21692993Y-54034075D01*
X21629410Y-54017037D01*
X22370057Y-53276390D01*
X22370056Y-53276389D01*
X22323229Y-53239943D01*
X22104614Y-53121635D01*
X22104603Y-53121630D01*
X21869493Y-53040916D01*
X21624293Y-53000000D01*
X21375707Y-53000000D01*
X21130506Y-53040916D01*
X20895396Y-53121630D01*
X20895390Y-53121632D01*
X20676761Y-53239949D01*
X20629942Y-53276388D01*
X20629942Y-53276390D01*
X21370590Y-54017037D01*
X21307007Y-54034075D01*
X21192993Y-54099901D01*
X21099901Y-54192993D01*
X21034075Y-54307007D01*
X21017037Y-54370589D01*
X20276564Y-53630116D01*
X20176267Y-53783632D01*
X20076412Y-54011282D01*
X20015387Y-54252261D01*
X20015385Y-54252270D01*
X19994859Y-54499994D01*
X18561362Y-54499994D01*
X15499381Y-51438013D01*
X15465896Y-51376690D01*
X15466857Y-51319890D01*
X15485106Y-51247829D01*
X15485106Y-51247828D01*
X15485108Y-51247821D01*
X15505643Y-51000000D01*
X15495602Y-50878828D01*
X15485109Y-50752187D01*
X15485107Y-50752175D01*
X15424063Y-50511118D01*
X15324173Y-50283393D01*
X15188166Y-50075217D01*
X15108688Y-49988881D01*
X15019744Y-49892262D01*
X14823509Y-49739526D01*
X14823507Y-49739525D01*
X14823506Y-49739524D01*
X14604811Y-49621172D01*
X14604802Y-49621169D01*
X14369616Y-49540429D01*
X14127295Y-49499994D01*
X19994357Y-49499994D01*
X19994357Y-49500005D01*
X20014890Y-49747812D01*
X20014892Y-49747824D01*
X20075936Y-49988881D01*
X20175826Y-50216606D01*
X20311833Y-50424782D01*
X20311836Y-50424785D01*
X20480256Y-50607738D01*
X20676491Y-50760474D01*
X20895190Y-50878828D01*
X21130386Y-50959571D01*
X21375665Y-51000500D01*
X21624335Y-51000500D01*
X21869614Y-50959571D01*
X22104810Y-50878828D01*
X22323509Y-50760474D01*
X22519744Y-50607738D01*
X22688164Y-50424785D01*
X22824173Y-50216607D01*
X22924063Y-49988881D01*
X22985108Y-49747821D01*
X22985109Y-49747812D01*
X23005643Y-49500005D01*
X23005643Y-49499994D01*
X22985109Y-49252187D01*
X22985107Y-49252175D01*
X22983585Y-49246168D01*
X22924063Y-49011119D01*
X22844117Y-48828862D01*
X22835215Y-48759564D01*
X22865192Y-48696452D01*
X22869975Y-48691391D01*
X28582951Y-42978416D01*
X28665084Y-42855495D01*
X28721658Y-42718913D01*
X28750500Y-42573918D01*
X28750500Y-42426083D01*
X28750500Y-19873872D01*
X28770185Y-19806833D01*
X28815487Y-19764815D01*
X28823509Y-19760474D01*
X29019744Y-19607738D01*
X29188164Y-19424785D01*
X29324173Y-19216607D01*
X29424063Y-18988881D01*
X29485108Y-18747821D01*
X29505643Y-18500000D01*
X29489651Y-18307007D01*
X29485109Y-18252187D01*
X29485108Y-18252184D01*
X29485108Y-18252179D01*
X29466856Y-18180105D01*
X29469480Y-18110288D01*
X29499378Y-18061987D01*
X30274548Y-17286819D01*
X30335871Y-17253334D01*
X30362229Y-17250500D01*
X39317312Y-17250500D01*
X39384351Y-17270185D01*
X39424699Y-17312500D01*
X39533042Y-17500155D01*
X39698492Y-17707623D01*
X39893016Y-17888114D01*
X40112268Y-18037598D01*
X40351350Y-18152734D01*
X40604922Y-18230950D01*
X40604923Y-18230950D01*
X40604926Y-18230951D01*
X40867311Y-18270499D01*
X40867316Y-18270499D01*
X40867319Y-18270500D01*
X40867320Y-18270500D01*
X41132680Y-18270500D01*
X41132681Y-18270500D01*
X41132688Y-18270499D01*
X41395073Y-18230951D01*
X41395074Y-18230950D01*
X41395078Y-18230950D01*
X41648650Y-18152734D01*
X41887733Y-18037598D01*
X42106984Y-17888114D01*
X42301508Y-17707623D01*
X42466958Y-17500155D01*
X42599639Y-17270345D01*
X42696586Y-17023327D01*
X42755635Y-16764619D01*
X42755641Y-16764540D01*
X42775465Y-16500004D01*
X42775465Y-16499995D01*
X42755636Y-16235390D01*
X42755635Y-16235385D01*
X42755635Y-16235381D01*
X42696586Y-15976673D01*
X42599639Y-15729655D01*
X42466958Y-15499845D01*
X42301508Y-15292377D01*
X42106984Y-15111886D01*
X41887733Y-14962402D01*
X41887732Y-14962401D01*
X41887725Y-14962397D01*
X41648655Y-14847268D01*
X41648636Y-14847261D01*
X41395083Y-14769051D01*
X41395073Y-14769048D01*
X41132688Y-14729500D01*
X41132681Y-14729500D01*
X40867319Y-14729500D01*
X40867311Y-14729500D01*
X40604926Y-14769048D01*
X40604916Y-14769051D01*
X40351363Y-14847261D01*
X40351344Y-14847268D01*
X40112276Y-14962397D01*
X40112274Y-14962398D01*
X39893015Y-15111886D01*
X39698494Y-15292375D01*
X39698492Y-15292377D01*
X39533042Y-15499845D01*
X39424699Y-15687500D01*
X39374132Y-15735716D01*
X39317312Y-15749500D01*
X29926080Y-15749500D01*
X29781092Y-15778340D01*
X29781082Y-15778343D01*
X29644509Y-15834913D01*
X29644507Y-15834914D01*
X29603645Y-15862218D01*
X29603644Y-15862219D01*
X29521581Y-15917050D01*
X29521580Y-15917051D01*
X28439247Y-16999383D01*
X28377924Y-17032868D01*
X28331157Y-17034011D01*
X28124335Y-16999500D01*
X27875665Y-16999500D01*
X27630383Y-17040429D01*
X27395197Y-17121169D01*
X27395188Y-17121172D01*
X27176493Y-17239524D01*
X26980257Y-17392261D01*
X26811833Y-17575217D01*
X26675826Y-17783393D01*
X26575936Y-18011118D01*
X26514892Y-18252175D01*
X26514890Y-18252187D01*
X26494357Y-18499994D01*
X26494357Y-18500005D01*
X26514890Y-18747812D01*
X26514892Y-18747824D01*
X26575936Y-18988881D01*
X26675826Y-19216606D01*
X26811833Y-19424782D01*
X26811835Y-19424784D01*
X26811836Y-19424785D01*
X26980256Y-19607738D01*
X27102764Y-19703090D01*
X27175952Y-19760055D01*
X27176491Y-19760474D01*
X27184513Y-19764815D01*
X27234106Y-19814032D01*
X27249500Y-19873872D01*
X27249500Y-42137770D01*
X27229815Y-42204809D01*
X27213181Y-42225451D01*
X21475451Y-47963181D01*
X21414128Y-47996666D01*
X21387770Y-47999500D01*
X21375665Y-47999500D01*
X21130383Y-48040429D01*
X20895197Y-48121169D01*
X20895188Y-48121172D01*
X20676493Y-48239524D01*
X20480257Y-48392261D01*
X20311833Y-48575217D01*
X20175826Y-48783393D01*
X20075936Y-49011118D01*
X20014892Y-49252175D01*
X20014890Y-49252187D01*
X19994357Y-49499994D01*
X14127295Y-49499994D01*
X14124335Y-49499500D01*
X13875665Y-49499500D01*
X13630383Y-49540429D01*
X13395197Y-49621169D01*
X13395188Y-49621172D01*
X13176493Y-49739524D01*
X12980257Y-49892261D01*
X12811836Y-50075215D01*
X12728309Y-50203063D01*
X12675162Y-50248419D01*
X12605931Y-50257843D01*
X12542595Y-50228341D01*
X12505264Y-50169281D01*
X12500500Y-50135241D01*
X12500500Y-47364758D01*
X12520185Y-47297719D01*
X12572989Y-47251964D01*
X12642147Y-47242020D01*
X12705703Y-47271045D01*
X12728309Y-47296937D01*
X12811833Y-47424782D01*
X12811835Y-47424784D01*
X12811836Y-47424785D01*
X12980256Y-47607738D01*
X13176491Y-47760474D01*
X13395190Y-47878828D01*
X13630386Y-47959571D01*
X13875665Y-48000500D01*
X14124335Y-48000500D01*
X14369614Y-47959571D01*
X14604810Y-47878828D01*
X14823509Y-47760474D01*
X15019744Y-47607738D01*
X15188164Y-47424785D01*
X15265327Y-47306677D01*
X15318474Y-47261322D01*
X15369136Y-47250500D01*
X19573920Y-47250500D01*
X19671462Y-47231096D01*
X19718913Y-47221658D01*
X19855495Y-47165084D01*
X19904729Y-47132186D01*
X19978416Y-47082952D01*
X20691831Y-46369535D01*
X20753152Y-46336052D01*
X20822843Y-46341036D01*
X20838521Y-46348160D01*
X20895190Y-46378828D01*
X21130386Y-46459571D01*
X21375665Y-46500500D01*
X21624335Y-46500500D01*
X21869614Y-46459571D01*
X22104810Y-46378828D01*
X22323509Y-46260474D01*
X22519744Y-46107738D01*
X22688164Y-45924785D01*
X22824173Y-45716607D01*
X22924063Y-45488881D01*
X22985108Y-45247821D01*
X22985109Y-45247812D01*
X23005643Y-45000005D01*
X23005643Y-44999994D01*
X22985109Y-44752187D01*
X22985107Y-44752175D01*
X22924063Y-44511118D01*
X22824173Y-44283393D01*
X22688166Y-44075217D01*
X22666557Y-44051744D01*
X22519744Y-43892262D01*
X22323509Y-43739526D01*
X22323507Y-43739525D01*
X22323506Y-43739524D01*
X22104811Y-43621172D01*
X22104802Y-43621169D01*
X21869616Y-43540429D01*
X21624335Y-43499500D01*
X21375665Y-43499500D01*
X21130383Y-43540429D01*
X20895197Y-43621169D01*
X20895188Y-43621172D01*
X20676493Y-43739524D01*
X20480257Y-43892261D01*
X20311833Y-44075217D01*
X20175826Y-44283393D01*
X20075936Y-44511118D01*
X20014892Y-44752175D01*
X20014890Y-44752186D01*
X20003144Y-44893941D01*
X19977991Y-44959125D01*
X19967249Y-44971381D01*
X19225451Y-45713181D01*
X19164128Y-45746666D01*
X19137770Y-45749500D01*
X15369136Y-45749500D01*
X15302097Y-45729815D01*
X15265327Y-45693322D01*
X15249620Y-45669281D01*
X15188164Y-45575215D01*
X15019744Y-45392262D01*
X14823509Y-45239526D01*
X14823507Y-45239525D01*
X14823506Y-45239524D01*
X14604811Y-45121172D01*
X14604802Y-45121169D01*
X14369616Y-45040429D01*
X14124335Y-44999500D01*
X13875665Y-44999500D01*
X13630383Y-45040429D01*
X13395197Y-45121169D01*
X13395188Y-45121172D01*
X13176493Y-45239524D01*
X12980257Y-45392261D01*
X12811836Y-45575215D01*
X12728309Y-45703063D01*
X12675162Y-45748419D01*
X12605931Y-45757843D01*
X12542595Y-45728341D01*
X12505264Y-45669281D01*
X12500500Y-45635241D01*
X12500500Y-42864758D01*
X12520185Y-42797719D01*
X12572989Y-42751964D01*
X12642147Y-42742020D01*
X12705703Y-42771045D01*
X12728309Y-42796937D01*
X12811833Y-42924782D01*
X12811836Y-42924785D01*
X12980256Y-43107738D01*
X13176491Y-43260474D01*
X13395190Y-43378828D01*
X13630386Y-43459571D01*
X13875665Y-43500500D01*
X14124335Y-43500500D01*
X14369614Y-43459571D01*
X14604810Y-43378828D01*
X14823509Y-43260474D01*
X15019744Y-43107738D01*
X15188164Y-42924785D01*
X15324173Y-42716607D01*
X15424063Y-42488881D01*
X15485108Y-42247821D01*
X15486962Y-42225451D01*
X15505643Y-42000005D01*
X15505643Y-41999994D01*
X15485109Y-41752187D01*
X15485108Y-41752184D01*
X15485108Y-41752179D01*
X15466856Y-41680105D01*
X15469480Y-41610288D01*
X15499378Y-41561987D01*
X16274548Y-40786819D01*
X16335871Y-40753334D01*
X16362229Y-40750500D01*
X19919057Y-40750500D01*
X19986096Y-40770185D01*
X20031851Y-40822989D01*
X20039263Y-40844060D01*
X20075936Y-40988881D01*
X20175826Y-41216606D01*
X20311833Y-41424782D01*
X20311836Y-41424785D01*
X20480256Y-41607738D01*
X20676491Y-41760474D01*
X20895190Y-41878828D01*
X21130386Y-41959571D01*
X21375665Y-42000500D01*
X21624335Y-42000500D01*
X21869614Y-41959571D01*
X22104810Y-41878828D01*
X22323509Y-41760474D01*
X22519744Y-41607738D01*
X22688164Y-41424785D01*
X22824173Y-41216607D01*
X22924063Y-40988881D01*
X22985108Y-40747821D01*
X22985109Y-40747812D01*
X23005643Y-40500005D01*
X23005643Y-40499994D01*
X22985109Y-40252187D01*
X22985107Y-40252175D01*
X22924063Y-40011118D01*
X22824173Y-39783393D01*
X22688166Y-39575217D01*
X22666557Y-39551744D01*
X22519744Y-39392262D01*
X22323509Y-39239526D01*
X22323507Y-39239525D01*
X22323506Y-39239524D01*
X22104811Y-39121172D01*
X22104802Y-39121169D01*
X21869616Y-39040429D01*
X21624335Y-38999500D01*
X21375665Y-38999500D01*
X21130383Y-39040429D01*
X20895197Y-39121169D01*
X20895183Y-39121175D01*
X20685676Y-39234555D01*
X20626659Y-39249500D01*
X15926080Y-39249500D01*
X15781092Y-39278340D01*
X15781082Y-39278343D01*
X15644511Y-39334912D01*
X15644498Y-39334919D01*
X15521584Y-39417048D01*
X15521580Y-39417051D01*
X14439247Y-40499383D01*
X14377924Y-40532868D01*
X14331157Y-40534011D01*
X14124335Y-40499500D01*
X13875665Y-40499500D01*
X13630383Y-40540429D01*
X13395197Y-40621169D01*
X13395188Y-40621172D01*
X13176493Y-40739524D01*
X12980257Y-40892261D01*
X12811836Y-41075215D01*
X12728309Y-41203063D01*
X12675162Y-41248419D01*
X12605931Y-41257843D01*
X12542595Y-41228341D01*
X12505264Y-41169281D01*
X12500500Y-41135241D01*
X12500500Y-37864758D01*
X12520185Y-37797719D01*
X12572989Y-37751964D01*
X12642147Y-37742020D01*
X12705703Y-37771045D01*
X12728309Y-37796937D01*
X12811833Y-37924782D01*
X12811835Y-37924784D01*
X12811836Y-37924785D01*
X12980256Y-38107738D01*
X13176491Y-38260474D01*
X13395190Y-38378828D01*
X13630386Y-38459571D01*
X13875665Y-38500500D01*
X14124335Y-38500500D01*
X14369614Y-38459571D01*
X14604810Y-38378828D01*
X14823509Y-38260474D01*
X15019744Y-38107738D01*
X15188164Y-37924785D01*
X15265327Y-37806677D01*
X15318474Y-37761322D01*
X15369136Y-37750500D01*
X20130864Y-37750500D01*
X20197903Y-37770185D01*
X20234672Y-37806677D01*
X20311836Y-37924785D01*
X20480256Y-38107738D01*
X20676491Y-38260474D01*
X20895190Y-38378828D01*
X21130386Y-38459571D01*
X21375665Y-38500500D01*
X21624335Y-38500500D01*
X21869614Y-38459571D01*
X22104810Y-38378828D01*
X22323509Y-38260474D01*
X22519744Y-38107738D01*
X22688164Y-37924785D01*
X22824173Y-37716607D01*
X22924063Y-37488881D01*
X22985108Y-37247821D01*
X23005643Y-37000000D01*
X22985108Y-36752179D01*
X22924063Y-36511119D01*
X22824173Y-36283393D01*
X22802030Y-36249500D01*
X22688166Y-36075217D01*
X22666557Y-36051744D01*
X22519744Y-35892262D01*
X22323509Y-35739526D01*
X22323507Y-35739525D01*
X22323506Y-35739524D01*
X22104811Y-35621172D01*
X22104802Y-35621169D01*
X21869616Y-35540429D01*
X21624335Y-35499500D01*
X21375665Y-35499500D01*
X21130383Y-35540429D01*
X20895197Y-35621169D01*
X20895188Y-35621172D01*
X20676493Y-35739524D01*
X20480257Y-35892261D01*
X20311836Y-36075215D01*
X20234673Y-36193322D01*
X20181526Y-36238678D01*
X20130864Y-36249500D01*
X15369136Y-36249500D01*
X15302097Y-36229815D01*
X15265327Y-36193322D01*
X15249620Y-36169281D01*
X15188164Y-36075215D01*
X15019744Y-35892262D01*
X14823509Y-35739526D01*
X14823507Y-35739525D01*
X14823506Y-35739524D01*
X14604811Y-35621172D01*
X14604802Y-35621169D01*
X14369616Y-35540429D01*
X14124335Y-35499500D01*
X13875665Y-35499500D01*
X13630383Y-35540429D01*
X13395197Y-35621169D01*
X13395188Y-35621172D01*
X13176493Y-35739524D01*
X12980257Y-35892261D01*
X12811836Y-36075215D01*
X12728309Y-36203063D01*
X12675162Y-36248419D01*
X12605931Y-36257843D01*
X12542595Y-36228341D01*
X12505264Y-36169281D01*
X12500500Y-36135241D01*
X12500500Y-33364758D01*
X12520185Y-33297719D01*
X12572989Y-33251964D01*
X12642147Y-33242020D01*
X12705703Y-33271045D01*
X12728309Y-33296937D01*
X12811833Y-33424782D01*
X12811835Y-33424784D01*
X12811836Y-33424785D01*
X12980256Y-33607738D01*
X13176491Y-33760474D01*
X13395190Y-33878828D01*
X13630386Y-33959571D01*
X13875665Y-34000500D01*
X14124335Y-34000500D01*
X14369614Y-33959571D01*
X14604810Y-33878828D01*
X14823509Y-33760474D01*
X15019744Y-33607738D01*
X15188164Y-33424785D01*
X15265327Y-33306677D01*
X15318474Y-33261322D01*
X15369136Y-33250500D01*
X20130864Y-33250500D01*
X20197903Y-33270185D01*
X20234672Y-33306677D01*
X20311836Y-33424785D01*
X20480256Y-33607738D01*
X20676491Y-33760474D01*
X20895190Y-33878828D01*
X21130386Y-33959571D01*
X21375665Y-34000500D01*
X21624335Y-34000500D01*
X21869614Y-33959571D01*
X22104810Y-33878828D01*
X22323509Y-33760474D01*
X22519744Y-33607738D01*
X22688164Y-33424785D01*
X22824173Y-33216607D01*
X22924063Y-32988881D01*
X22985108Y-32747821D01*
X23005643Y-32500000D01*
X22985108Y-32252179D01*
X22924063Y-32011119D01*
X22824173Y-31783393D01*
X22802030Y-31749500D01*
X22688166Y-31575217D01*
X22666557Y-31551744D01*
X22519744Y-31392262D01*
X22323509Y-31239526D01*
X22323507Y-31239525D01*
X22323506Y-31239524D01*
X22104811Y-31121172D01*
X22104802Y-31121169D01*
X21869616Y-31040429D01*
X21624335Y-30999500D01*
X21375665Y-30999500D01*
X21130383Y-31040429D01*
X20895197Y-31121169D01*
X20895188Y-31121172D01*
X20676493Y-31239524D01*
X20480257Y-31392261D01*
X20311836Y-31575215D01*
X20234673Y-31693322D01*
X20181526Y-31738678D01*
X20130864Y-31749500D01*
X15369136Y-31749500D01*
X15302097Y-31729815D01*
X15265327Y-31693322D01*
X15249620Y-31669281D01*
X15188164Y-31575215D01*
X15019744Y-31392262D01*
X14823509Y-31239526D01*
X14823507Y-31239525D01*
X14823506Y-31239524D01*
X14604811Y-31121172D01*
X14604802Y-31121169D01*
X14369616Y-31040429D01*
X14124335Y-30999500D01*
X13875665Y-30999500D01*
X13630383Y-31040429D01*
X13395197Y-31121169D01*
X13395188Y-31121172D01*
X13176493Y-31239524D01*
X12980257Y-31392261D01*
X12811836Y-31575215D01*
X12728309Y-31703063D01*
X12675162Y-31748419D01*
X12605931Y-31757843D01*
X12542595Y-31728341D01*
X12505264Y-31669281D01*
X12500500Y-31635241D01*
X12500500Y-28864758D01*
X12520185Y-28797719D01*
X12572989Y-28751964D01*
X12642147Y-28742020D01*
X12705703Y-28771045D01*
X12728309Y-28796937D01*
X12811833Y-28924782D01*
X12811835Y-28924784D01*
X12811836Y-28924785D01*
X12980256Y-29107738D01*
X13176491Y-29260474D01*
X13395190Y-29378828D01*
X13630386Y-29459571D01*
X13875665Y-29500500D01*
X14124335Y-29500500D01*
X14369614Y-29459571D01*
X14604810Y-29378828D01*
X14823509Y-29260474D01*
X15019744Y-29107738D01*
X15188164Y-28924785D01*
X15265327Y-28806677D01*
X15318474Y-28761322D01*
X15369136Y-28750500D01*
X20626659Y-28750500D01*
X20685676Y-28765445D01*
X20761868Y-28806678D01*
X20895190Y-28878828D01*
X21130386Y-28959571D01*
X21375665Y-29000500D01*
X21624335Y-29000500D01*
X21869614Y-28959571D01*
X22104810Y-28878828D01*
X22323509Y-28760474D01*
X22519744Y-28607738D01*
X22688164Y-28424785D01*
X22824173Y-28216607D01*
X22924063Y-27988881D01*
X22985108Y-27747821D01*
X23005643Y-27500000D01*
X22987694Y-27283393D01*
X22985109Y-27252187D01*
X22985107Y-27252175D01*
X22924063Y-27011118D01*
X22824173Y-26783393D01*
X22688166Y-26575217D01*
X22618463Y-26499500D01*
X22519744Y-26392262D01*
X22323509Y-26239526D01*
X22323507Y-26239525D01*
X22323506Y-26239524D01*
X22104811Y-26121172D01*
X22104802Y-26121169D01*
X21869616Y-26040429D01*
X21624335Y-25999500D01*
X21375665Y-25999500D01*
X21130383Y-26040429D01*
X20895197Y-26121169D01*
X20895188Y-26121172D01*
X20676493Y-26239524D01*
X20480257Y-26392261D01*
X20311833Y-26575217D01*
X20175826Y-26783393D01*
X20075936Y-27011118D01*
X20039263Y-27155940D01*
X20003723Y-27216096D01*
X19941303Y-27247488D01*
X19919057Y-27249500D01*
X15369136Y-27249500D01*
X15302097Y-27229815D01*
X15265327Y-27193322D01*
X15240904Y-27155940D01*
X15188164Y-27075215D01*
X15019744Y-26892262D01*
X14823509Y-26739526D01*
X14823507Y-26739525D01*
X14823506Y-26739524D01*
X14604811Y-26621172D01*
X14604802Y-26621169D01*
X14369616Y-26540429D01*
X14124335Y-26499500D01*
X13875665Y-26499500D01*
X13630383Y-26540429D01*
X13395197Y-26621169D01*
X13395188Y-26621172D01*
X13176493Y-26739524D01*
X12980257Y-26892261D01*
X12980256Y-26892262D01*
X12811836Y-27075215D01*
X12728309Y-27203063D01*
X12675162Y-27248419D01*
X12605931Y-27257843D01*
X12542595Y-27228341D01*
X12505264Y-27169281D01*
X12500500Y-27135241D01*
X12500500Y-23864758D01*
X12520185Y-23797719D01*
X12572989Y-23751964D01*
X12642147Y-23742020D01*
X12705703Y-23771045D01*
X12728309Y-23796937D01*
X12811833Y-23924782D01*
X12811835Y-23924784D01*
X12811836Y-23924785D01*
X12980256Y-24107738D01*
X13176491Y-24260474D01*
X13395190Y-24378828D01*
X13630386Y-24459571D01*
X13875665Y-24500500D01*
X14124335Y-24500500D01*
X14369614Y-24459571D01*
X14604810Y-24378828D01*
X14823509Y-24260474D01*
X15019744Y-24107738D01*
X15188164Y-23924785D01*
X15265327Y-23806677D01*
X15318474Y-23761322D01*
X15369136Y-23750500D01*
X20130864Y-23750500D01*
X20197903Y-23770185D01*
X20234672Y-23806677D01*
X20311836Y-23924785D01*
X20480256Y-24107738D01*
X20676491Y-24260474D01*
X20895190Y-24378828D01*
X21130386Y-24459571D01*
X21375665Y-24500500D01*
X21624335Y-24500500D01*
X21869614Y-24459571D01*
X22104810Y-24378828D01*
X22323509Y-24260474D01*
X22519744Y-24107738D01*
X22688164Y-23924785D01*
X22824173Y-23716607D01*
X22924063Y-23488881D01*
X22985108Y-23247821D01*
X23005643Y-23000000D01*
X22985108Y-22752179D01*
X22924063Y-22511119D01*
X22824173Y-22283393D01*
X22802030Y-22249500D01*
X22688166Y-22075217D01*
X22666557Y-22051744D01*
X22519744Y-21892262D01*
X22323509Y-21739526D01*
X22323507Y-21739525D01*
X22323506Y-21739524D01*
X22104811Y-21621172D01*
X22104802Y-21621169D01*
X21869616Y-21540429D01*
X21624335Y-21499500D01*
X21375665Y-21499500D01*
X21130383Y-21540429D01*
X20895197Y-21621169D01*
X20895188Y-21621172D01*
X20676493Y-21739524D01*
X20480257Y-21892261D01*
X20311836Y-22075215D01*
X20234673Y-22193322D01*
X20181526Y-22238678D01*
X20130864Y-22249500D01*
X15369136Y-22249500D01*
X15302097Y-22229815D01*
X15265327Y-22193322D01*
X15249620Y-22169281D01*
X15188164Y-22075215D01*
X15019744Y-21892262D01*
X14823509Y-21739526D01*
X14823507Y-21739525D01*
X14823506Y-21739524D01*
X14604811Y-21621172D01*
X14604802Y-21621169D01*
X14369616Y-21540429D01*
X14124335Y-21499500D01*
X13875665Y-21499500D01*
X13630383Y-21540429D01*
X13395197Y-21621169D01*
X13395188Y-21621172D01*
X13176493Y-21739524D01*
X12980257Y-21892261D01*
X12811836Y-22075215D01*
X12728309Y-22203063D01*
X12675162Y-22248419D01*
X12605931Y-22257843D01*
X12542595Y-22228341D01*
X12505264Y-22169281D01*
X12500500Y-22135241D01*
X12500500Y-19364758D01*
X12520185Y-19297719D01*
X12572989Y-19251964D01*
X12642147Y-19242020D01*
X12705703Y-19271045D01*
X12728309Y-19296937D01*
X12811833Y-19424782D01*
X12811835Y-19424784D01*
X12811836Y-19424785D01*
X12980256Y-19607738D01*
X13176491Y-19760474D01*
X13285840Y-19819651D01*
X13394332Y-19878364D01*
X13395190Y-19878828D01*
X13614141Y-19953994D01*
X13628964Y-19959083D01*
X13630386Y-19959571D01*
X13875665Y-20000500D01*
X14124335Y-20000500D01*
X14369614Y-19959571D01*
X14604810Y-19878828D01*
X14823509Y-19760474D01*
X15019744Y-19607738D01*
X15188164Y-19424785D01*
X15265327Y-19306677D01*
X15318474Y-19261322D01*
X15369136Y-19250500D01*
X17630864Y-19250500D01*
X17697903Y-19270185D01*
X17734672Y-19306677D01*
X17811836Y-19424785D01*
X17980256Y-19607738D01*
X18176491Y-19760474D01*
X18285840Y-19819651D01*
X18394332Y-19878364D01*
X18395190Y-19878828D01*
X18614141Y-19953994D01*
X18628964Y-19959083D01*
X18630386Y-19959571D01*
X18875665Y-20000500D01*
X19124335Y-20000500D01*
X19369614Y-19959571D01*
X19604810Y-19878828D01*
X19823509Y-19760474D01*
X20019744Y-19607738D01*
X20188164Y-19424785D01*
X20324173Y-19216607D01*
X20424063Y-18988881D01*
X20485108Y-18747821D01*
X20505643Y-18500000D01*
X20505643Y-18499994D01*
X21994859Y-18499994D01*
X21994859Y-18500005D01*
X22015385Y-18747729D01*
X22015387Y-18747738D01*
X22076412Y-18988717D01*
X22176266Y-19216364D01*
X22276564Y-19369882D01*
X23017037Y-18629409D01*
X23034075Y-18692993D01*
X23099901Y-18807007D01*
X23192993Y-18900099D01*
X23307007Y-18965925D01*
X23370590Y-18982962D01*
X22629942Y-19723609D01*
X22676768Y-19760055D01*
X22676770Y-19760056D01*
X22895385Y-19878364D01*
X22895396Y-19878369D01*
X23130506Y-19959083D01*
X23375707Y-20000000D01*
X23624293Y-20000000D01*
X23869493Y-19959083D01*
X24104603Y-19878369D01*
X24104614Y-19878364D01*
X24323228Y-19760057D01*
X24323231Y-19760055D01*
X24370056Y-19723609D01*
X23629409Y-18982962D01*
X23692993Y-18965925D01*
X23807007Y-18900099D01*
X23900099Y-18807007D01*
X23965925Y-18692993D01*
X23982962Y-18629409D01*
X24723434Y-19369882D01*
X24823731Y-19216369D01*
X24923587Y-18988717D01*
X24984612Y-18747738D01*
X24984614Y-18747729D01*
X25005141Y-18500005D01*
X25005141Y-18499994D01*
X24984614Y-18252270D01*
X24984612Y-18252261D01*
X24923587Y-18011282D01*
X24823731Y-17783630D01*
X24723434Y-17630116D01*
X23982962Y-18370589D01*
X23965925Y-18307007D01*
X23900099Y-18192993D01*
X23807007Y-18099901D01*
X23692993Y-18034075D01*
X23629410Y-18017037D01*
X24370057Y-17276390D01*
X24370056Y-17276389D01*
X24323229Y-17239943D01*
X24104614Y-17121635D01*
X24104603Y-17121630D01*
X23869493Y-17040916D01*
X23624293Y-17000000D01*
X23375707Y-17000000D01*
X23130506Y-17040916D01*
X22895396Y-17121630D01*
X22895390Y-17121632D01*
X22676761Y-17239949D01*
X22629942Y-17276388D01*
X22629942Y-17276390D01*
X23370590Y-18017037D01*
X23307007Y-18034075D01*
X23192993Y-18099901D01*
X23099901Y-18192993D01*
X23034075Y-18307007D01*
X23017037Y-18370589D01*
X22276564Y-17630116D01*
X22176267Y-17783632D01*
X22076412Y-18011282D01*
X22015387Y-18252261D01*
X22015385Y-18252270D01*
X21994859Y-18499994D01*
X20505643Y-18499994D01*
X20489651Y-18307007D01*
X20485109Y-18252187D01*
X20485108Y-18252184D01*
X20485108Y-18252179D01*
X20479732Y-18230950D01*
X20466857Y-18180107D01*
X20469481Y-18110287D01*
X20499379Y-18061987D01*
X24274549Y-14286819D01*
X24335872Y-14253334D01*
X24362230Y-14250500D01*
X46637770Y-14250500D01*
X46704809Y-14270185D01*
X46725451Y-14286819D01*
X47213181Y-14774548D01*
X47246666Y-14835871D01*
X47249500Y-14862229D01*
X47249500Y-41637769D01*
X47229815Y-41704808D01*
X47213181Y-41725450D01*
X26939247Y-61999383D01*
X26877924Y-62032868D01*
X26831157Y-62034011D01*
X26624335Y-61999500D01*
X26375665Y-61999500D01*
X26130383Y-62040429D01*
X25895197Y-62121169D01*
X25895188Y-62121172D01*
X25676493Y-62239524D01*
X25480257Y-62392261D01*
X25311833Y-62575217D01*
X25175826Y-62783393D01*
X25075936Y-63011118D01*
X25014892Y-63252175D01*
X25014890Y-63252187D01*
X24994357Y-63499994D01*
X24994357Y-63500005D01*
X25014890Y-63747812D01*
X25014892Y-63747824D01*
X25075936Y-63988881D01*
X25175826Y-64216606D01*
X25311833Y-64424782D01*
X25311836Y-64424785D01*
X25480256Y-64607738D01*
X25676491Y-64760474D01*
X25895190Y-64878828D01*
X26130386Y-64959571D01*
X26375665Y-65000500D01*
X26624335Y-65000500D01*
X26693965Y-64988881D01*
X26831158Y-64965988D01*
X26900523Y-64974370D01*
X26939248Y-65000616D01*
X29713181Y-67774548D01*
X29746666Y-67835871D01*
X29749500Y-67862229D01*
X29749500Y-69137770D01*
X29729815Y-69204809D01*
X29713181Y-69225451D01*
X29225451Y-69713181D01*
X29164128Y-69746666D01*
X29137770Y-69749500D01*
X21369136Y-69749500D01*
X21302097Y-69729815D01*
X21265327Y-69693322D01*
X21209412Y-69607738D01*
X21188164Y-69575215D01*
X21019744Y-69392262D01*
X20823509Y-69239526D01*
X20823507Y-69239525D01*
X20823506Y-69239524D01*
X20604811Y-69121172D01*
X20604802Y-69121169D01*
X20369616Y-69040429D01*
X20124335Y-68999500D01*
X19875665Y-68999500D01*
X19630383Y-69040429D01*
X19395197Y-69121169D01*
X19395188Y-69121172D01*
X19176493Y-69239524D01*
X18980257Y-69392261D01*
X18811833Y-69575217D01*
X18675826Y-69783393D01*
X18575936Y-70011118D01*
X18514892Y-70252175D01*
X18514890Y-70252187D01*
X18494357Y-70499994D01*
X18494357Y-70500005D01*
X18514890Y-70747812D01*
X18514892Y-70747824D01*
X18575936Y-70988881D01*
X18675826Y-71216606D01*
X18811833Y-71424782D01*
X18811835Y-71424784D01*
X18811836Y-71424785D01*
X18980256Y-71607738D01*
X19176491Y-71760474D01*
X19395190Y-71878828D01*
X19630386Y-71959571D01*
X19875665Y-72000500D01*
X20124335Y-72000500D01*
X20369614Y-71959571D01*
X20604810Y-71878828D01*
X20823509Y-71760474D01*
X21019744Y-71607738D01*
X21188164Y-71424785D01*
X21265327Y-71306677D01*
X21318474Y-71261322D01*
X21369136Y-71250500D01*
X25552690Y-71250500D01*
X25619729Y-71270185D01*
X25640371Y-71286819D01*
X26370590Y-72017037D01*
X26307007Y-72034075D01*
X26192993Y-72099901D01*
X26099901Y-72192993D01*
X26034075Y-72307007D01*
X26017037Y-72370589D01*
X25276564Y-71630116D01*
X25176267Y-71783632D01*
X25076412Y-72011282D01*
X25015387Y-72252261D01*
X25015385Y-72252270D01*
X24994859Y-72499994D01*
X24994859Y-72500005D01*
X25015385Y-72747729D01*
X25015387Y-72747738D01*
X25076412Y-72988717D01*
X25176266Y-73216364D01*
X25276564Y-73369882D01*
X26017037Y-72629409D01*
X26034075Y-72692993D01*
X26099901Y-72807007D01*
X26192993Y-72900099D01*
X26307007Y-72965925D01*
X26370590Y-72982962D01*
X25629942Y-73723609D01*
X25676768Y-73760055D01*
X25676770Y-73760056D01*
X25895385Y-73878364D01*
X25895396Y-73878369D01*
X26130506Y-73959083D01*
X26375707Y-74000000D01*
X26624293Y-74000000D01*
X26869493Y-73959083D01*
X27104603Y-73878369D01*
X27104614Y-73878364D01*
X27323228Y-73760057D01*
X27323231Y-73760055D01*
X27370056Y-73723609D01*
X26629409Y-72982962D01*
X26692993Y-72965925D01*
X26807007Y-72900099D01*
X26900099Y-72807007D01*
X26965925Y-72692993D01*
X26982962Y-72629410D01*
X27723434Y-73369882D01*
X27823731Y-73216369D01*
X27923587Y-72988717D01*
X27984612Y-72747738D01*
X27984614Y-72747729D01*
X28005141Y-72500005D01*
X28005141Y-72499994D01*
X27984614Y-72252270D01*
X27984612Y-72252261D01*
X27923587Y-72011282D01*
X27823731Y-71783630D01*
X27723434Y-71630116D01*
X26982962Y-72370589D01*
X26965925Y-72307007D01*
X26900099Y-72192993D01*
X26807007Y-72099901D01*
X26692993Y-72034075D01*
X26629410Y-72017037D01*
X27359628Y-71286819D01*
X27420951Y-71253334D01*
X27447309Y-71250500D01*
X29573920Y-71250500D01*
X29671462Y-71231096D01*
X29718913Y-71221658D01*
X29855495Y-71165084D01*
X29904729Y-71132186D01*
X29978416Y-71082952D01*
X31082952Y-69978415D01*
X31149493Y-69878828D01*
X31165084Y-69855495D01*
X31204443Y-69760474D01*
X31221659Y-69718912D01*
X31250500Y-69573917D01*
X31250500Y-69426082D01*
X31250500Y-67426082D01*
X31250500Y-67426079D01*
X31221659Y-67281092D01*
X31221658Y-67281091D01*
X31221658Y-67281087D01*
X31202644Y-67235182D01*
X31165087Y-67144511D01*
X31165080Y-67144498D01*
X31082952Y-67021585D01*
X31082951Y-67021584D01*
X30978416Y-66917049D01*
X27999381Y-63938014D01*
X27965896Y-63876691D01*
X27966857Y-63819891D01*
X27985106Y-63747829D01*
X27985107Y-63747824D01*
X27985108Y-63747821D01*
X27985109Y-63747812D01*
X28005643Y-63500005D01*
X28005643Y-63499994D01*
X27985109Y-63252187D01*
X27985108Y-63252182D01*
X27985108Y-63252179D01*
X27968339Y-63185961D01*
X27966857Y-63180107D01*
X27969481Y-63110287D01*
X27999379Y-63061987D01*
X29561372Y-61499994D01*
X41994357Y-61499994D01*
X41994357Y-61500005D01*
X42014890Y-61747812D01*
X42014892Y-61747824D01*
X42075936Y-61988881D01*
X42175826Y-62216606D01*
X42311833Y-62424782D01*
X42311836Y-62424785D01*
X42480256Y-62607738D01*
X42676491Y-62760474D01*
X42684513Y-62764815D01*
X42734106Y-62814032D01*
X42749500Y-62873872D01*
X42749500Y-63126128D01*
X42729815Y-63193167D01*
X42684522Y-63235179D01*
X42676491Y-63239526D01*
X42545667Y-63341350D01*
X42480257Y-63392261D01*
X42311833Y-63575217D01*
X42175826Y-63783393D01*
X42075936Y-64011118D01*
X42014892Y-64252175D01*
X42014890Y-64252187D01*
X41994357Y-64499994D01*
X41994357Y-64500005D01*
X42014890Y-64747812D01*
X42014892Y-64747824D01*
X42075936Y-64988881D01*
X42175826Y-65216606D01*
X42311833Y-65424782D01*
X42311836Y-65424785D01*
X42480256Y-65607738D01*
X42676491Y-65760474D01*
X42684513Y-65764815D01*
X42734106Y-65814032D01*
X42749500Y-65873872D01*
X42749500Y-66626128D01*
X42729815Y-66693167D01*
X42684522Y-66735179D01*
X42676491Y-66739526D01*
X42545667Y-66841350D01*
X42480257Y-66892261D01*
X42311833Y-67075217D01*
X42175826Y-67283393D01*
X42075936Y-67511118D01*
X42014892Y-67752175D01*
X42014890Y-67752187D01*
X41994357Y-67999994D01*
X41994357Y-68000005D01*
X42014890Y-68247812D01*
X42014892Y-68247824D01*
X42075936Y-68488881D01*
X42175826Y-68716606D01*
X42311833Y-68924782D01*
X42311835Y-68924784D01*
X42311836Y-68924785D01*
X42480256Y-69107738D01*
X42676491Y-69260474D01*
X42676493Y-69260475D01*
X42895182Y-69378824D01*
X42895190Y-69378828D01*
X43130386Y-69459571D01*
X43375665Y-69500500D01*
X43624335Y-69500500D01*
X43869614Y-69459571D01*
X44104810Y-69378828D01*
X44323509Y-69260474D01*
X44519744Y-69107738D01*
X44688164Y-68924785D01*
X44824173Y-68716607D01*
X44924063Y-68488881D01*
X44985108Y-68247821D01*
X45005643Y-68000000D01*
X44987694Y-67783393D01*
X44985109Y-67752187D01*
X44985107Y-67752175D01*
X44924063Y-67511118D01*
X44824173Y-67283393D01*
X44688166Y-67075217D01*
X44638793Y-67021584D01*
X44519744Y-66892262D01*
X44323509Y-66739526D01*
X44315477Y-66735179D01*
X44265891Y-66685961D01*
X44250500Y-66626128D01*
X44250500Y-65873872D01*
X44270185Y-65806833D01*
X44315487Y-65764815D01*
X44323509Y-65760474D01*
X44519744Y-65607738D01*
X44688164Y-65424785D01*
X44824173Y-65216607D01*
X44924063Y-64988881D01*
X44985108Y-64747821D01*
X45005643Y-64500000D01*
X44999410Y-64424782D01*
X44985109Y-64252187D01*
X44985107Y-64252175D01*
X44924063Y-64011118D01*
X44824173Y-63783393D01*
X44688166Y-63575217D01*
X44618928Y-63500005D01*
X44519744Y-63392262D01*
X44323509Y-63239526D01*
X44315477Y-63235179D01*
X44265891Y-63185961D01*
X44250500Y-63126128D01*
X44250500Y-62873872D01*
X44270185Y-62806833D01*
X44315487Y-62764815D01*
X44323509Y-62760474D01*
X44519744Y-62607738D01*
X44688164Y-62424785D01*
X44824173Y-62216607D01*
X44924063Y-61988881D01*
X44985108Y-61747821D01*
X45005643Y-61500000D01*
X45005643Y-61499994D01*
X46494357Y-61499994D01*
X46494357Y-61500005D01*
X46514890Y-61747812D01*
X46514892Y-61747824D01*
X46575936Y-61988881D01*
X46675826Y-62216606D01*
X46811833Y-62424782D01*
X46811836Y-62424785D01*
X46980256Y-62607738D01*
X47176491Y-62760474D01*
X47184513Y-62764815D01*
X47234106Y-62814032D01*
X47249500Y-62873872D01*
X47249500Y-63126128D01*
X47229815Y-63193167D01*
X47184522Y-63235179D01*
X47176491Y-63239526D01*
X47045667Y-63341350D01*
X46980257Y-63392261D01*
X46811833Y-63575217D01*
X46675826Y-63783393D01*
X46575936Y-64011118D01*
X46514892Y-64252175D01*
X46514890Y-64252187D01*
X46494357Y-64499994D01*
X46494357Y-64500005D01*
X46514890Y-64747812D01*
X46514892Y-64747824D01*
X46575936Y-64988881D01*
X46675826Y-65216606D01*
X46811833Y-65424782D01*
X46811836Y-65424785D01*
X46980256Y-65607738D01*
X47176491Y-65760474D01*
X47184513Y-65764815D01*
X47234106Y-65814032D01*
X47249500Y-65873872D01*
X47249500Y-66626128D01*
X47229815Y-66693167D01*
X47184522Y-66735179D01*
X47176491Y-66739526D01*
X47045667Y-66841350D01*
X46980257Y-66892261D01*
X46811833Y-67075217D01*
X46675826Y-67283393D01*
X46575936Y-67511118D01*
X46514892Y-67752175D01*
X46514890Y-67752187D01*
X46494357Y-67999994D01*
X46494357Y-68000005D01*
X46514890Y-68247812D01*
X46514892Y-68247824D01*
X46575936Y-68488881D01*
X46675826Y-68716606D01*
X46811833Y-68924782D01*
X46811835Y-68924784D01*
X46811836Y-68924785D01*
X46980256Y-69107738D01*
X47176491Y-69260474D01*
X47176493Y-69260475D01*
X47395182Y-69378824D01*
X47395190Y-69378828D01*
X47630386Y-69459571D01*
X47875665Y-69500500D01*
X48124335Y-69500500D01*
X48369614Y-69459571D01*
X48604810Y-69378828D01*
X48823509Y-69260474D01*
X49019744Y-69107738D01*
X49188164Y-68924785D01*
X49324173Y-68716607D01*
X49424063Y-68488881D01*
X49485108Y-68247821D01*
X49505643Y-68000000D01*
X49487694Y-67783393D01*
X49485109Y-67752187D01*
X49485107Y-67752175D01*
X49424063Y-67511118D01*
X49324173Y-67283393D01*
X49188166Y-67075217D01*
X49138793Y-67021584D01*
X49019744Y-66892262D01*
X48823509Y-66739526D01*
X48815477Y-66735179D01*
X48765891Y-66685961D01*
X48750500Y-66626128D01*
X48750500Y-65873872D01*
X48770185Y-65806833D01*
X48815487Y-65764815D01*
X48823509Y-65760474D01*
X49019744Y-65607738D01*
X49188164Y-65424785D01*
X49324173Y-65216607D01*
X49424063Y-64988881D01*
X49485108Y-64747821D01*
X49505643Y-64500000D01*
X49499410Y-64424782D01*
X49485109Y-64252187D01*
X49485107Y-64252175D01*
X49424063Y-64011118D01*
X49324173Y-63783393D01*
X49188166Y-63575217D01*
X49118928Y-63500005D01*
X49019744Y-63392262D01*
X48823509Y-63239526D01*
X48815477Y-63235179D01*
X48765891Y-63185961D01*
X48750500Y-63126128D01*
X48750500Y-62873872D01*
X48770185Y-62806833D01*
X48815487Y-62764815D01*
X48823509Y-62760474D01*
X49019744Y-62607738D01*
X49188164Y-62424785D01*
X49324173Y-62216607D01*
X49424063Y-61988881D01*
X49485108Y-61747821D01*
X49505643Y-61500000D01*
X49505643Y-61499994D01*
X50994357Y-61499994D01*
X50994357Y-61500005D01*
X51014890Y-61747812D01*
X51014892Y-61747824D01*
X51075936Y-61988881D01*
X51175826Y-62216606D01*
X51311833Y-62424782D01*
X51311836Y-62424785D01*
X51480256Y-62607738D01*
X51676491Y-62760474D01*
X51684513Y-62764815D01*
X51734106Y-62814032D01*
X51749500Y-62873872D01*
X51749500Y-63126128D01*
X51729815Y-63193167D01*
X51684522Y-63235179D01*
X51676491Y-63239526D01*
X51545667Y-63341350D01*
X51480257Y-63392261D01*
X51311833Y-63575217D01*
X51175826Y-63783393D01*
X51075936Y-64011118D01*
X51014892Y-64252175D01*
X51014890Y-64252187D01*
X50994357Y-64499994D01*
X50994357Y-64500005D01*
X51014890Y-64747812D01*
X51014892Y-64747824D01*
X51075936Y-64988881D01*
X51175826Y-65216606D01*
X51311833Y-65424782D01*
X51311836Y-65424785D01*
X51480256Y-65607738D01*
X51676491Y-65760474D01*
X51684513Y-65764815D01*
X51734106Y-65814032D01*
X51749500Y-65873872D01*
X51749500Y-67126128D01*
X51729815Y-67193167D01*
X51684522Y-67235179D01*
X51676491Y-67239526D01*
X51623087Y-67281092D01*
X51480257Y-67392261D01*
X51311833Y-67575217D01*
X51175826Y-67783393D01*
X51075936Y-68011118D01*
X51014892Y-68252175D01*
X51014890Y-68252187D01*
X50994357Y-68499994D01*
X50994357Y-68500005D01*
X51014890Y-68747812D01*
X51014892Y-68747824D01*
X51075936Y-68988881D01*
X51175826Y-69216606D01*
X51311833Y-69424782D01*
X51311836Y-69424785D01*
X51480256Y-69607738D01*
X51676491Y-69760474D01*
X51895190Y-69878828D01*
X52130386Y-69959571D01*
X52375665Y-70000500D01*
X52624335Y-70000500D01*
X52869614Y-69959571D01*
X53104810Y-69878828D01*
X53323509Y-69760474D01*
X53519744Y-69607738D01*
X53688164Y-69424785D01*
X53824173Y-69216607D01*
X53924063Y-68988881D01*
X53985108Y-68747821D01*
X53985109Y-68747812D01*
X54005643Y-68500005D01*
X54005643Y-68499994D01*
X53985109Y-68252187D01*
X53985107Y-68252175D01*
X53924063Y-68011118D01*
X53824173Y-67783393D01*
X53688166Y-67575217D01*
X53666557Y-67551744D01*
X53519744Y-67392262D01*
X53323509Y-67239526D01*
X53315477Y-67235179D01*
X53265891Y-67185961D01*
X53250500Y-67126128D01*
X53250500Y-65873872D01*
X53270185Y-65806833D01*
X53315487Y-65764815D01*
X53323509Y-65760474D01*
X53519744Y-65607738D01*
X53688164Y-65424785D01*
X53824173Y-65216607D01*
X53924063Y-64988881D01*
X53985108Y-64747821D01*
X54005643Y-64500000D01*
X53999410Y-64424782D01*
X53985109Y-64252187D01*
X53985107Y-64252175D01*
X53924063Y-64011118D01*
X53824173Y-63783393D01*
X53688166Y-63575217D01*
X53618928Y-63500005D01*
X53519744Y-63392262D01*
X53323509Y-63239526D01*
X53315477Y-63235179D01*
X53265891Y-63185961D01*
X53250500Y-63126128D01*
X53250500Y-62873872D01*
X53270185Y-62806833D01*
X53315487Y-62764815D01*
X53323509Y-62760474D01*
X53519744Y-62607738D01*
X53688164Y-62424785D01*
X53824173Y-62216607D01*
X53924063Y-61988881D01*
X53985108Y-61747821D01*
X54005643Y-61500000D01*
X54005643Y-61499994D01*
X55494357Y-61499994D01*
X55494357Y-61500005D01*
X55514890Y-61747812D01*
X55514892Y-61747824D01*
X55575936Y-61988881D01*
X55675826Y-62216606D01*
X55811833Y-62424782D01*
X55811836Y-62424785D01*
X55980256Y-62607738D01*
X56176491Y-62760474D01*
X56184513Y-62764815D01*
X56234106Y-62814032D01*
X56249500Y-62873872D01*
X56249500Y-63126128D01*
X56229815Y-63193167D01*
X56184522Y-63235179D01*
X56176491Y-63239526D01*
X56045667Y-63341350D01*
X55980257Y-63392261D01*
X55811833Y-63575217D01*
X55675826Y-63783393D01*
X55575936Y-64011118D01*
X55514892Y-64252175D01*
X55514890Y-64252187D01*
X55494357Y-64499994D01*
X55494357Y-64500005D01*
X55514890Y-64747812D01*
X55514892Y-64747824D01*
X55575936Y-64988881D01*
X55675826Y-65216606D01*
X55811833Y-65424782D01*
X55811836Y-65424785D01*
X55980256Y-65607738D01*
X56176491Y-65760474D01*
X56184513Y-65764815D01*
X56234106Y-65814032D01*
X56249500Y-65873872D01*
X56249500Y-67126128D01*
X56229815Y-67193167D01*
X56184522Y-67235179D01*
X56176491Y-67239526D01*
X56123087Y-67281092D01*
X55980257Y-67392261D01*
X55811833Y-67575217D01*
X55675826Y-67783393D01*
X55575936Y-68011118D01*
X55514892Y-68252175D01*
X55514890Y-68252187D01*
X55494357Y-68499994D01*
X55494357Y-68500005D01*
X55514890Y-68747812D01*
X55514892Y-68747824D01*
X55575936Y-68988881D01*
X55675826Y-69216606D01*
X55811833Y-69424782D01*
X55811836Y-69424785D01*
X55980256Y-69607738D01*
X56176491Y-69760474D01*
X56395190Y-69878828D01*
X56630386Y-69959571D01*
X56875665Y-70000500D01*
X57124335Y-70000500D01*
X57369614Y-69959571D01*
X57604810Y-69878828D01*
X57823509Y-69760474D01*
X58019744Y-69607738D01*
X58188164Y-69424785D01*
X58324173Y-69216607D01*
X58424063Y-68988881D01*
X58485108Y-68747821D01*
X58485109Y-68747812D01*
X58505643Y-68500005D01*
X58505643Y-68499994D01*
X58485109Y-68252187D01*
X58485107Y-68252175D01*
X58424063Y-68011118D01*
X58324173Y-67783393D01*
X58188166Y-67575217D01*
X58166557Y-67551744D01*
X58019744Y-67392262D01*
X57823509Y-67239526D01*
X57815477Y-67235179D01*
X57765891Y-67185961D01*
X57750500Y-67126128D01*
X57750500Y-65873872D01*
X57770185Y-65806833D01*
X57815487Y-65764815D01*
X57823509Y-65760474D01*
X58019744Y-65607738D01*
X58188164Y-65424785D01*
X58324173Y-65216607D01*
X58424063Y-64988881D01*
X58485108Y-64747821D01*
X58505643Y-64500000D01*
X58499410Y-64424782D01*
X58485109Y-64252187D01*
X58485107Y-64252175D01*
X58424063Y-64011118D01*
X58324173Y-63783393D01*
X58188166Y-63575217D01*
X58118928Y-63500005D01*
X58019744Y-63392262D01*
X57823509Y-63239526D01*
X57815477Y-63235179D01*
X57765891Y-63185961D01*
X57750500Y-63126128D01*
X57750500Y-62873872D01*
X57770185Y-62806833D01*
X57815487Y-62764815D01*
X57823509Y-62760474D01*
X58019744Y-62607738D01*
X58188164Y-62424785D01*
X58324173Y-62216607D01*
X58424063Y-61988881D01*
X58485108Y-61747821D01*
X58505643Y-61500000D01*
X58499410Y-61424782D01*
X58485109Y-61252187D01*
X58485107Y-61252175D01*
X58424063Y-61011118D01*
X58324173Y-60783393D01*
X58188166Y-60575217D01*
X58118928Y-60500005D01*
X58019744Y-60392262D01*
X57823509Y-60239526D01*
X57823507Y-60239525D01*
X57823506Y-60239524D01*
X57604811Y-60121172D01*
X57604802Y-60121169D01*
X57369616Y-60040429D01*
X57124335Y-59999500D01*
X56875665Y-59999500D01*
X56630383Y-60040429D01*
X56395197Y-60121169D01*
X56395188Y-60121172D01*
X56176493Y-60239524D01*
X55980257Y-60392261D01*
X55811833Y-60575217D01*
X55675826Y-60783393D01*
X55575936Y-61011118D01*
X55514892Y-61252175D01*
X55514890Y-61252187D01*
X55494357Y-61499994D01*
X54005643Y-61499994D01*
X53999410Y-61424782D01*
X53985109Y-61252187D01*
X53985107Y-61252175D01*
X53924063Y-61011118D01*
X53824173Y-60783393D01*
X53688166Y-60575217D01*
X53618928Y-60500005D01*
X53519744Y-60392262D01*
X53323509Y-60239526D01*
X53323507Y-60239525D01*
X53323506Y-60239524D01*
X53104811Y-60121172D01*
X53104802Y-60121169D01*
X52869616Y-60040429D01*
X52624335Y-59999500D01*
X52375665Y-59999500D01*
X52130383Y-60040429D01*
X51895197Y-60121169D01*
X51895188Y-60121172D01*
X51676493Y-60239524D01*
X51480257Y-60392261D01*
X51311833Y-60575217D01*
X51175826Y-60783393D01*
X51075936Y-61011118D01*
X51014892Y-61252175D01*
X51014890Y-61252187D01*
X50994357Y-61499994D01*
X49505643Y-61499994D01*
X49499410Y-61424782D01*
X49485109Y-61252187D01*
X49485107Y-61252175D01*
X49424063Y-61011118D01*
X49324173Y-60783393D01*
X49188166Y-60575217D01*
X49118928Y-60500005D01*
X49019744Y-60392262D01*
X48823509Y-60239526D01*
X48823507Y-60239525D01*
X48823506Y-60239524D01*
X48604811Y-60121172D01*
X48604802Y-60121169D01*
X48369616Y-60040429D01*
X48124335Y-59999500D01*
X47875665Y-59999500D01*
X47630383Y-60040429D01*
X47395197Y-60121169D01*
X47395188Y-60121172D01*
X47176493Y-60239524D01*
X46980257Y-60392261D01*
X46811833Y-60575217D01*
X46675826Y-60783393D01*
X46575936Y-61011118D01*
X46514892Y-61252175D01*
X46514890Y-61252187D01*
X46494357Y-61499994D01*
X45005643Y-61499994D01*
X44999410Y-61424782D01*
X44985109Y-61252187D01*
X44985107Y-61252175D01*
X44924063Y-61011118D01*
X44824173Y-60783393D01*
X44688166Y-60575217D01*
X44618928Y-60500005D01*
X44519744Y-60392262D01*
X44323509Y-60239526D01*
X44323507Y-60239525D01*
X44323506Y-60239524D01*
X44104811Y-60121172D01*
X44104802Y-60121169D01*
X43869616Y-60040429D01*
X43624335Y-59999500D01*
X43375665Y-59999500D01*
X43130383Y-60040429D01*
X42895197Y-60121169D01*
X42895188Y-60121172D01*
X42676493Y-60239524D01*
X42480257Y-60392261D01*
X42311833Y-60575217D01*
X42175826Y-60783393D01*
X42075936Y-61011118D01*
X42014892Y-61252175D01*
X42014890Y-61252187D01*
X41994357Y-61499994D01*
X29561372Y-61499994D01*
X35239231Y-55822135D01*
X39229500Y-55822135D01*
X39229500Y-58457870D01*
X39229501Y-58457876D01*
X39235908Y-58517483D01*
X39286202Y-58652328D01*
X39286206Y-58652335D01*
X39372452Y-58767544D01*
X39372455Y-58767547D01*
X39487664Y-58853793D01*
X39487671Y-58853797D01*
X39622517Y-58904091D01*
X39622516Y-58904091D01*
X39629444Y-58904835D01*
X39682127Y-58910500D01*
X42317872Y-58910499D01*
X42377483Y-58904091D01*
X42512331Y-58853796D01*
X42627546Y-58767546D01*
X42713796Y-58652331D01*
X42764091Y-58517483D01*
X42770500Y-58457873D01*
X42770499Y-57139995D01*
X57005037Y-57139995D01*
X57005037Y-57140004D01*
X57024860Y-57404535D01*
X57024861Y-57404540D01*
X57083890Y-57663166D01*
X57083896Y-57663185D01*
X57180814Y-57910128D01*
X57180813Y-57910128D01*
X57313457Y-58139871D01*
X57363642Y-58202803D01*
X57363643Y-58202803D01*
X58297037Y-57269409D01*
X58314075Y-57332993D01*
X58379901Y-57447007D01*
X58472993Y-57540099D01*
X58587007Y-57605925D01*
X58650590Y-57622962D01*
X57716438Y-58557112D01*
X57892525Y-58677166D01*
X57892526Y-58677167D01*
X58131530Y-58792264D01*
X58131528Y-58792264D01*
X58385025Y-58870458D01*
X58385031Y-58870459D01*
X58647351Y-58909999D01*
X58647358Y-58910000D01*
X58912642Y-58910000D01*
X58912648Y-58909999D01*
X59174968Y-58870459D01*
X59174974Y-58870458D01*
X59428470Y-58792264D01*
X59667479Y-58677164D01*
X59843560Y-58557112D01*
X58909409Y-57622962D01*
X58972993Y-57605925D01*
X59087007Y-57540099D01*
X59180099Y-57447007D01*
X59245925Y-57332993D01*
X59262962Y-57269409D01*
X60196355Y-58202803D01*
X60196356Y-58202802D01*
X60246545Y-58139869D01*
X60379185Y-57910128D01*
X60476103Y-57663185D01*
X60476109Y-57663166D01*
X60535138Y-57404540D01*
X60535139Y-57404535D01*
X60554963Y-57140004D01*
X60554963Y-57139995D01*
X60535139Y-56875464D01*
X60535138Y-56875459D01*
X60476109Y-56616833D01*
X60476103Y-56616814D01*
X60379185Y-56369871D01*
X60379186Y-56369871D01*
X60246543Y-56140129D01*
X60246536Y-56140118D01*
X60196356Y-56077196D01*
X60196355Y-56077195D01*
X59262962Y-57010589D01*
X59245925Y-56947007D01*
X59180099Y-56832993D01*
X59087007Y-56739901D01*
X58972993Y-56674075D01*
X58909410Y-56657037D01*
X59843560Y-55722886D01*
X59667484Y-55602839D01*
X59667474Y-55602832D01*
X59428469Y-55487735D01*
X59428471Y-55487735D01*
X59174974Y-55409541D01*
X59174968Y-55409540D01*
X58912648Y-55370000D01*
X58647351Y-55370000D01*
X58385031Y-55409540D01*
X58385025Y-55409541D01*
X58131529Y-55487735D01*
X57892526Y-55602832D01*
X57892518Y-55602837D01*
X57716438Y-55722886D01*
X58650590Y-56657037D01*
X58587007Y-56674075D01*
X58472993Y-56739901D01*
X58379901Y-56832993D01*
X58314075Y-56947007D01*
X58297037Y-57010590D01*
X57363643Y-56077196D01*
X57313456Y-56140128D01*
X57180814Y-56369871D01*
X57083896Y-56616814D01*
X57083890Y-56616833D01*
X57024861Y-56875459D01*
X57024860Y-56875464D01*
X57005037Y-57139995D01*
X42770499Y-57139995D01*
X42770499Y-55822128D01*
X42764091Y-55762517D01*
X42763173Y-55760057D01*
X42713797Y-55627671D01*
X42713793Y-55627664D01*
X42627547Y-55512455D01*
X42627544Y-55512452D01*
X42512335Y-55426206D01*
X42512328Y-55426202D01*
X42377482Y-55375908D01*
X42377483Y-55375908D01*
X42317883Y-55369501D01*
X42317881Y-55369500D01*
X42317873Y-55369500D01*
X42317864Y-55369500D01*
X39682129Y-55369500D01*
X39682123Y-55369501D01*
X39622516Y-55375908D01*
X39487671Y-55426202D01*
X39487664Y-55426206D01*
X39372455Y-55512452D01*
X39372452Y-55512455D01*
X39286206Y-55627664D01*
X39286202Y-55627671D01*
X39235908Y-55762517D01*
X39229501Y-55822116D01*
X39229501Y-55822123D01*
X39229500Y-55822135D01*
X35239231Y-55822135D01*
X48582952Y-42478415D01*
X48617919Y-42426083D01*
X48665084Y-42355495D01*
X48709684Y-42247821D01*
X48721659Y-42218912D01*
X48750500Y-42073917D01*
X48750500Y-41926082D01*
X48750500Y-16499995D01*
X57005037Y-16499995D01*
X57005037Y-16500004D01*
X57024860Y-16764535D01*
X57024861Y-16764540D01*
X57083890Y-17023166D01*
X57083896Y-17023185D01*
X57180814Y-17270128D01*
X57180813Y-17270128D01*
X57313457Y-17499871D01*
X57363642Y-17562803D01*
X57363643Y-17562803D01*
X58297037Y-16629409D01*
X58314075Y-16692993D01*
X58379901Y-16807007D01*
X58472993Y-16900099D01*
X58587007Y-16965925D01*
X58650590Y-16982962D01*
X57716438Y-17917112D01*
X57892525Y-18037166D01*
X57892526Y-18037167D01*
X58131530Y-18152264D01*
X58131528Y-18152264D01*
X58385025Y-18230458D01*
X58385031Y-18230459D01*
X58647351Y-18269999D01*
X58647358Y-18270000D01*
X58912642Y-18270000D01*
X58912648Y-18269999D01*
X59174968Y-18230459D01*
X59174974Y-18230458D01*
X59428470Y-18152264D01*
X59667479Y-18037164D01*
X59843560Y-17917112D01*
X58909409Y-16982962D01*
X58972993Y-16965925D01*
X59087007Y-16900099D01*
X59180099Y-16807007D01*
X59245925Y-16692993D01*
X59262962Y-16629409D01*
X60196355Y-17562803D01*
X60196356Y-17562802D01*
X60246545Y-17499869D01*
X60379185Y-17270128D01*
X60476103Y-17023185D01*
X60476109Y-17023166D01*
X60535138Y-16764540D01*
X60535139Y-16764535D01*
X60554963Y-16500004D01*
X60554963Y-16499995D01*
X60535139Y-16235464D01*
X60535138Y-16235459D01*
X60476109Y-15976833D01*
X60476103Y-15976814D01*
X60379185Y-15729871D01*
X60379186Y-15729871D01*
X60246543Y-15500129D01*
X60246536Y-15500118D01*
X60196356Y-15437196D01*
X60196355Y-15437195D01*
X59262962Y-16370589D01*
X59245925Y-16307007D01*
X59180099Y-16192993D01*
X59087007Y-16099901D01*
X58972993Y-16034075D01*
X58909410Y-16017037D01*
X59843560Y-15082886D01*
X59667484Y-14962839D01*
X59667474Y-14962832D01*
X59428469Y-14847735D01*
X59428471Y-14847735D01*
X59174974Y-14769541D01*
X59174968Y-14769540D01*
X58912648Y-14730000D01*
X58647351Y-14730000D01*
X58385031Y-14769540D01*
X58385025Y-14769541D01*
X58131529Y-14847735D01*
X57892526Y-14962832D01*
X57892518Y-14962837D01*
X57716438Y-15082886D01*
X58650590Y-16017037D01*
X58587007Y-16034075D01*
X58472993Y-16099901D01*
X58379901Y-16192993D01*
X58314075Y-16307007D01*
X58297037Y-16370590D01*
X57363643Y-15437196D01*
X57313456Y-15500128D01*
X57180814Y-15729871D01*
X57083896Y-15976814D01*
X57083890Y-15976833D01*
X57024861Y-16235459D01*
X57024860Y-16235464D01*
X57005037Y-16499995D01*
X48750500Y-16499995D01*
X48750500Y-14426082D01*
X48744763Y-14397241D01*
X48721659Y-14281088D01*
X48667408Y-14150117D01*
X48665764Y-14145522D01*
X48582954Y-14021588D01*
X48582953Y-14021587D01*
X48582951Y-14021584D01*
X48478416Y-13917049D01*
X48254360Y-13692993D01*
X47478421Y-12917052D01*
X47478414Y-12917046D01*
X47404729Y-12867812D01*
X47404729Y-12867813D01*
X47355491Y-12834913D01*
X47218917Y-12778343D01*
X47218907Y-12778340D01*
X47073920Y-12749500D01*
X47073918Y-12749500D01*
X23926082Y-12749500D01*
X23926080Y-12749500D01*
X23781092Y-12778340D01*
X23781086Y-12778342D01*
X23644508Y-12834914D01*
X23644496Y-12834921D01*
X23595269Y-12867813D01*
X23521588Y-12917044D01*
X23521580Y-12917050D01*
X19439247Y-16999383D01*
X19377924Y-17032868D01*
X19331157Y-17034011D01*
X19124335Y-16999500D01*
X18875665Y-16999500D01*
X18630383Y-17040429D01*
X18395197Y-17121169D01*
X18395188Y-17121172D01*
X18176493Y-17239524D01*
X18129129Y-17276389D01*
X17980256Y-17392262D01*
X17880934Y-17500155D01*
X17811836Y-17575215D01*
X17734673Y-17693322D01*
X17681526Y-17738678D01*
X17630864Y-17749500D01*
X15369136Y-17749500D01*
X15302097Y-17729815D01*
X15265327Y-17693322D01*
X15249620Y-17669281D01*
X15188164Y-17575215D01*
X15019744Y-17392262D01*
X14823509Y-17239526D01*
X14823507Y-17239525D01*
X14823506Y-17239524D01*
X14604811Y-17121172D01*
X14604802Y-17121169D01*
X14369616Y-17040429D01*
X14124335Y-16999500D01*
X13875665Y-16999500D01*
X13630383Y-17040429D01*
X13395197Y-17121169D01*
X13395188Y-17121172D01*
X13176493Y-17239524D01*
X13129129Y-17276389D01*
X12980256Y-17392262D01*
X12880934Y-17500155D01*
X12811836Y-17575215D01*
X12728309Y-17703063D01*
X12675162Y-17748419D01*
X12605931Y-17757843D01*
X12542595Y-17728341D01*
X12505264Y-17669281D01*
X12500500Y-17635241D01*
X12500500Y-14863843D01*
X12520185Y-14796804D01*
X12572989Y-14751049D01*
X12642147Y-14741105D01*
X12705703Y-14770130D01*
X12728309Y-14796022D01*
X12776564Y-14869882D01*
X13517037Y-14129409D01*
X13534075Y-14192993D01*
X13599901Y-14307007D01*
X13692993Y-14400099D01*
X13807007Y-14465925D01*
X13870590Y-14482962D01*
X13129942Y-15223609D01*
X13176768Y-15260055D01*
X13176770Y-15260056D01*
X13395385Y-15378364D01*
X13395396Y-15378369D01*
X13630506Y-15459083D01*
X13875707Y-15500000D01*
X14124293Y-15500000D01*
X14369493Y-15459083D01*
X14604603Y-15378369D01*
X14604614Y-15378364D01*
X14823228Y-15260057D01*
X14823231Y-15260055D01*
X14870056Y-15223609D01*
X14129409Y-14482962D01*
X14192993Y-14465925D01*
X14307007Y-14400099D01*
X14400099Y-14307007D01*
X14465925Y-14192993D01*
X14482962Y-14129409D01*
X15223434Y-14869882D01*
X15323731Y-14716369D01*
X15423587Y-14488717D01*
X15484612Y-14247738D01*
X15484614Y-14247729D01*
X15505141Y-14000005D01*
X15505141Y-13999994D01*
X15484614Y-13752270D01*
X15484612Y-13752261D01*
X15423587Y-13511282D01*
X15323731Y-13283630D01*
X15223434Y-13130116D01*
X14482962Y-13870589D01*
X14465925Y-13807007D01*
X14400099Y-13692993D01*
X14307007Y-13599901D01*
X14192993Y-13534075D01*
X14129410Y-13517037D01*
X14870057Y-12776390D01*
X14870056Y-12776389D01*
X14823231Y-12739945D01*
X14811424Y-12733555D01*
X14761834Y-12684335D01*
X14746726Y-12616118D01*
X14770897Y-12550563D01*
X14826672Y-12508482D01*
X14870442Y-12500500D01*
X61375500Y-12500500D01*
X61442539Y-12520185D01*
G37*
%TD.AperFunction*%
%TA.AperFunction,Conductor*%
G36*
X13196598Y-12520185D02*
G01*
X13242353Y-12572989D01*
X13252297Y-12642147D01*
X13223272Y-12705703D01*
X13188577Y-12733555D01*
X13176761Y-12739949D01*
X13129942Y-12776388D01*
X13129942Y-12776390D01*
X13870590Y-13517037D01*
X13807007Y-13534075D01*
X13692993Y-13599901D01*
X13599901Y-13692993D01*
X13534075Y-13807007D01*
X13517037Y-13870589D01*
X12776564Y-13130116D01*
X12728309Y-13203977D01*
X12675162Y-13249333D01*
X12605931Y-13258757D01*
X12542595Y-13229255D01*
X12505264Y-13170194D01*
X12500500Y-13136155D01*
X12500500Y-12624500D01*
X12520185Y-12557461D01*
X12572989Y-12511706D01*
X12624500Y-12500500D01*
X13129559Y-12500500D01*
X13196598Y-12520185D01*
G37*
%TD.AperFunction*%
%TD*%
M02*
