%TF.GenerationSoftware,KiCad,Pcbnew,8.0.5*%
%TF.CreationDate,2025-07-12T19:06:12-04:00*%
%TF.ProjectId,Car,4361722e-6b69-4636-9164-5f7063625858,rev?*%
%TF.SameCoordinates,Original*%
%TF.FileFunction,Legend,Top*%
%TF.FilePolarity,Positive*%
%FSLAX46Y46*%
G04 Gerber Fmt 4.6, Leading zero omitted, Abs format (unit mm)*
G04 Created by KiCad (PCBNEW 8.0.5) date 2025-07-12 19:06:12*
%MOMM*%
%LPD*%
G01*
G04 APERTURE LIST*
%ADD10C,0.150000*%
%ADD11C,0.120000*%
G04 APERTURE END LIST*
D10*
X26380476Y-130829146D02*
X26380476Y-131543431D01*
X26380476Y-131543431D02*
X26332857Y-131686288D01*
X26332857Y-131686288D02*
X26237619Y-131781527D01*
X26237619Y-131781527D02*
X26094762Y-131829146D01*
X26094762Y-131829146D02*
X25999524Y-131829146D01*
X27380476Y-131829146D02*
X26809048Y-131829146D01*
X27094762Y-131829146D02*
X27094762Y-130829146D01*
X27094762Y-130829146D02*
X26999524Y-130972003D01*
X26999524Y-130972003D02*
X26904286Y-131067241D01*
X26904286Y-131067241D02*
X26809048Y-131114860D01*
X27761429Y-130924384D02*
X27809048Y-130876765D01*
X27809048Y-130876765D02*
X27904286Y-130829146D01*
X27904286Y-130829146D02*
X28142381Y-130829146D01*
X28142381Y-130829146D02*
X28237619Y-130876765D01*
X28237619Y-130876765D02*
X28285238Y-130924384D01*
X28285238Y-130924384D02*
X28332857Y-131019622D01*
X28332857Y-131019622D02*
X28332857Y-131114860D01*
X28332857Y-131114860D02*
X28285238Y-131257717D01*
X28285238Y-131257717D02*
X27713810Y-131829146D01*
X27713810Y-131829146D02*
X28332857Y-131829146D01*
X26380476Y-138829146D02*
X26380476Y-139543431D01*
X26380476Y-139543431D02*
X26332857Y-139686288D01*
X26332857Y-139686288D02*
X26237619Y-139781527D01*
X26237619Y-139781527D02*
X26094762Y-139829146D01*
X26094762Y-139829146D02*
X25999524Y-139829146D01*
X27380476Y-139829146D02*
X26809048Y-139829146D01*
X27094762Y-139829146D02*
X27094762Y-138829146D01*
X27094762Y-138829146D02*
X26999524Y-138972003D01*
X26999524Y-138972003D02*
X26904286Y-139067241D01*
X26904286Y-139067241D02*
X26809048Y-139114860D01*
X28332857Y-139829146D02*
X27761429Y-139829146D01*
X28047143Y-139829146D02*
X28047143Y-138829146D01*
X28047143Y-138829146D02*
X27951905Y-138972003D01*
X27951905Y-138972003D02*
X27856667Y-139067241D01*
X27856667Y-139067241D02*
X27761429Y-139114860D01*
X17960476Y-131399146D02*
X17960476Y-132113431D01*
X17960476Y-132113431D02*
X17912857Y-132256288D01*
X17912857Y-132256288D02*
X17817619Y-132351527D01*
X17817619Y-132351527D02*
X17674762Y-132399146D01*
X17674762Y-132399146D02*
X17579524Y-132399146D01*
X18960476Y-132399146D02*
X18389048Y-132399146D01*
X18674762Y-132399146D02*
X18674762Y-131399146D01*
X18674762Y-131399146D02*
X18579524Y-131542003D01*
X18579524Y-131542003D02*
X18484286Y-131637241D01*
X18484286Y-131637241D02*
X18389048Y-131684860D01*
X19579524Y-131399146D02*
X19674762Y-131399146D01*
X19674762Y-131399146D02*
X19770000Y-131446765D01*
X19770000Y-131446765D02*
X19817619Y-131494384D01*
X19817619Y-131494384D02*
X19865238Y-131589622D01*
X19865238Y-131589622D02*
X19912857Y-131780098D01*
X19912857Y-131780098D02*
X19912857Y-132018193D01*
X19912857Y-132018193D02*
X19865238Y-132208669D01*
X19865238Y-132208669D02*
X19817619Y-132303907D01*
X19817619Y-132303907D02*
X19770000Y-132351527D01*
X19770000Y-132351527D02*
X19674762Y-132399146D01*
X19674762Y-132399146D02*
X19579524Y-132399146D01*
X19579524Y-132399146D02*
X19484286Y-132351527D01*
X19484286Y-132351527D02*
X19436667Y-132303907D01*
X19436667Y-132303907D02*
X19389048Y-132208669D01*
X19389048Y-132208669D02*
X19341429Y-132018193D01*
X19341429Y-132018193D02*
X19341429Y-131780098D01*
X19341429Y-131780098D02*
X19389048Y-131589622D01*
X19389048Y-131589622D02*
X19436667Y-131494384D01*
X19436667Y-131494384D02*
X19484286Y-131446765D01*
X19484286Y-131446765D02*
X19579524Y-131399146D01*
X16436666Y-192059146D02*
X16436666Y-192773431D01*
X16436666Y-192773431D02*
X16389047Y-192916288D01*
X16389047Y-192916288D02*
X16293809Y-193011527D01*
X16293809Y-193011527D02*
X16150952Y-193059146D01*
X16150952Y-193059146D02*
X16055714Y-193059146D01*
X16960476Y-193059146D02*
X17150952Y-193059146D01*
X17150952Y-193059146D02*
X17246190Y-193011527D01*
X17246190Y-193011527D02*
X17293809Y-192963907D01*
X17293809Y-192963907D02*
X17389047Y-192821050D01*
X17389047Y-192821050D02*
X17436666Y-192630574D01*
X17436666Y-192630574D02*
X17436666Y-192249622D01*
X17436666Y-192249622D02*
X17389047Y-192154384D01*
X17389047Y-192154384D02*
X17341428Y-192106765D01*
X17341428Y-192106765D02*
X17246190Y-192059146D01*
X17246190Y-192059146D02*
X17055714Y-192059146D01*
X17055714Y-192059146D02*
X16960476Y-192106765D01*
X16960476Y-192106765D02*
X16912857Y-192154384D01*
X16912857Y-192154384D02*
X16865238Y-192249622D01*
X16865238Y-192249622D02*
X16865238Y-192487717D01*
X16865238Y-192487717D02*
X16912857Y-192582955D01*
X16912857Y-192582955D02*
X16960476Y-192630574D01*
X16960476Y-192630574D02*
X17055714Y-192678193D01*
X17055714Y-192678193D02*
X17246190Y-192678193D01*
X17246190Y-192678193D02*
X17341428Y-192630574D01*
X17341428Y-192630574D02*
X17389047Y-192582955D01*
X17389047Y-192582955D02*
X17436666Y-192487717D01*
X30274819Y-153987660D02*
X30989104Y-153987660D01*
X30989104Y-153987660D02*
X31131961Y-154035279D01*
X31131961Y-154035279D02*
X31227200Y-154130517D01*
X31227200Y-154130517D02*
X31274819Y-154273374D01*
X31274819Y-154273374D02*
X31274819Y-154368612D01*
X30703390Y-153368612D02*
X30655771Y-153463850D01*
X30655771Y-153463850D02*
X30608152Y-153511469D01*
X30608152Y-153511469D02*
X30512914Y-153559088D01*
X30512914Y-153559088D02*
X30465295Y-153559088D01*
X30465295Y-153559088D02*
X30370057Y-153511469D01*
X30370057Y-153511469D02*
X30322438Y-153463850D01*
X30322438Y-153463850D02*
X30274819Y-153368612D01*
X30274819Y-153368612D02*
X30274819Y-153178136D01*
X30274819Y-153178136D02*
X30322438Y-153082898D01*
X30322438Y-153082898D02*
X30370057Y-153035279D01*
X30370057Y-153035279D02*
X30465295Y-152987660D01*
X30465295Y-152987660D02*
X30512914Y-152987660D01*
X30512914Y-152987660D02*
X30608152Y-153035279D01*
X30608152Y-153035279D02*
X30655771Y-153082898D01*
X30655771Y-153082898D02*
X30703390Y-153178136D01*
X30703390Y-153178136D02*
X30703390Y-153368612D01*
X30703390Y-153368612D02*
X30751009Y-153463850D01*
X30751009Y-153463850D02*
X30798628Y-153511469D01*
X30798628Y-153511469D02*
X30893866Y-153559088D01*
X30893866Y-153559088D02*
X31084342Y-153559088D01*
X31084342Y-153559088D02*
X31179580Y-153511469D01*
X31179580Y-153511469D02*
X31227200Y-153463850D01*
X31227200Y-153463850D02*
X31274819Y-153368612D01*
X31274819Y-153368612D02*
X31274819Y-153178136D01*
X31274819Y-153178136D02*
X31227200Y-153082898D01*
X31227200Y-153082898D02*
X31179580Y-153035279D01*
X31179580Y-153035279D02*
X31084342Y-152987660D01*
X31084342Y-152987660D02*
X30893866Y-152987660D01*
X30893866Y-152987660D02*
X30798628Y-153035279D01*
X30798628Y-153035279D02*
X30751009Y-153082898D01*
X30751009Y-153082898D02*
X30703390Y-153178136D01*
X31990476Y-186649146D02*
X31990476Y-187363431D01*
X31990476Y-187363431D02*
X31942857Y-187506288D01*
X31942857Y-187506288D02*
X31847619Y-187601527D01*
X31847619Y-187601527D02*
X31704762Y-187649146D01*
X31704762Y-187649146D02*
X31609524Y-187649146D01*
X32990476Y-187649146D02*
X32419048Y-187649146D01*
X32704762Y-187649146D02*
X32704762Y-186649146D01*
X32704762Y-186649146D02*
X32609524Y-186792003D01*
X32609524Y-186792003D02*
X32514286Y-186887241D01*
X32514286Y-186887241D02*
X32419048Y-186934860D01*
X33942857Y-187649146D02*
X33371429Y-187649146D01*
X33657143Y-187649146D02*
X33657143Y-186649146D01*
X33657143Y-186649146D02*
X33561905Y-186792003D01*
X33561905Y-186792003D02*
X33466667Y-186887241D01*
X33466667Y-186887241D02*
X33371429Y-186934860D01*
X31990476Y-176999146D02*
X31990476Y-177713431D01*
X31990476Y-177713431D02*
X31942857Y-177856288D01*
X31942857Y-177856288D02*
X31847619Y-177951527D01*
X31847619Y-177951527D02*
X31704762Y-177999146D01*
X31704762Y-177999146D02*
X31609524Y-177999146D01*
X32990476Y-177999146D02*
X32419048Y-177999146D01*
X32704762Y-177999146D02*
X32704762Y-176999146D01*
X32704762Y-176999146D02*
X32609524Y-177142003D01*
X32609524Y-177142003D02*
X32514286Y-177237241D01*
X32514286Y-177237241D02*
X32419048Y-177284860D01*
X33609524Y-176999146D02*
X33704762Y-176999146D01*
X33704762Y-176999146D02*
X33800000Y-177046765D01*
X33800000Y-177046765D02*
X33847619Y-177094384D01*
X33847619Y-177094384D02*
X33895238Y-177189622D01*
X33895238Y-177189622D02*
X33942857Y-177380098D01*
X33942857Y-177380098D02*
X33942857Y-177618193D01*
X33942857Y-177618193D02*
X33895238Y-177808669D01*
X33895238Y-177808669D02*
X33847619Y-177903907D01*
X33847619Y-177903907D02*
X33800000Y-177951527D01*
X33800000Y-177951527D02*
X33704762Y-177999146D01*
X33704762Y-177999146D02*
X33609524Y-177999146D01*
X33609524Y-177999146D02*
X33514286Y-177951527D01*
X33514286Y-177951527D02*
X33466667Y-177903907D01*
X33466667Y-177903907D02*
X33419048Y-177808669D01*
X33419048Y-177808669D02*
X33371429Y-177618193D01*
X33371429Y-177618193D02*
X33371429Y-177380098D01*
X33371429Y-177380098D02*
X33419048Y-177189622D01*
X33419048Y-177189622D02*
X33466667Y-177094384D01*
X33466667Y-177094384D02*
X33514286Y-177046765D01*
X33514286Y-177046765D02*
X33609524Y-176999146D01*
X32466666Y-167649146D02*
X32466666Y-168363431D01*
X32466666Y-168363431D02*
X32419047Y-168506288D01*
X32419047Y-168506288D02*
X32323809Y-168601527D01*
X32323809Y-168601527D02*
X32180952Y-168649146D01*
X32180952Y-168649146D02*
X32085714Y-168649146D01*
X32990476Y-168649146D02*
X33180952Y-168649146D01*
X33180952Y-168649146D02*
X33276190Y-168601527D01*
X33276190Y-168601527D02*
X33323809Y-168553907D01*
X33323809Y-168553907D02*
X33419047Y-168411050D01*
X33419047Y-168411050D02*
X33466666Y-168220574D01*
X33466666Y-168220574D02*
X33466666Y-167839622D01*
X33466666Y-167839622D02*
X33419047Y-167744384D01*
X33419047Y-167744384D02*
X33371428Y-167696765D01*
X33371428Y-167696765D02*
X33276190Y-167649146D01*
X33276190Y-167649146D02*
X33085714Y-167649146D01*
X33085714Y-167649146D02*
X32990476Y-167696765D01*
X32990476Y-167696765D02*
X32942857Y-167744384D01*
X32942857Y-167744384D02*
X32895238Y-167839622D01*
X32895238Y-167839622D02*
X32895238Y-168077717D01*
X32895238Y-168077717D02*
X32942857Y-168172955D01*
X32942857Y-168172955D02*
X32990476Y-168220574D01*
X32990476Y-168220574D02*
X33085714Y-168268193D01*
X33085714Y-168268193D02*
X33276190Y-168268193D01*
X33276190Y-168268193D02*
X33371428Y-168220574D01*
X33371428Y-168220574D02*
X33419047Y-168172955D01*
X33419047Y-168172955D02*
X33466666Y-168077717D01*
X51466666Y-186649146D02*
X51466666Y-187363431D01*
X51466666Y-187363431D02*
X51419047Y-187506288D01*
X51419047Y-187506288D02*
X51323809Y-187601527D01*
X51323809Y-187601527D02*
X51180952Y-187649146D01*
X51180952Y-187649146D02*
X51085714Y-187649146D01*
X52371428Y-186649146D02*
X52180952Y-186649146D01*
X52180952Y-186649146D02*
X52085714Y-186696765D01*
X52085714Y-186696765D02*
X52038095Y-186744384D01*
X52038095Y-186744384D02*
X51942857Y-186887241D01*
X51942857Y-186887241D02*
X51895238Y-187077717D01*
X51895238Y-187077717D02*
X51895238Y-187458669D01*
X51895238Y-187458669D02*
X51942857Y-187553907D01*
X51942857Y-187553907D02*
X51990476Y-187601527D01*
X51990476Y-187601527D02*
X52085714Y-187649146D01*
X52085714Y-187649146D02*
X52276190Y-187649146D01*
X52276190Y-187649146D02*
X52371428Y-187601527D01*
X52371428Y-187601527D02*
X52419047Y-187553907D01*
X52419047Y-187553907D02*
X52466666Y-187458669D01*
X52466666Y-187458669D02*
X52466666Y-187220574D01*
X52466666Y-187220574D02*
X52419047Y-187125336D01*
X52419047Y-187125336D02*
X52371428Y-187077717D01*
X52371428Y-187077717D02*
X52276190Y-187030098D01*
X52276190Y-187030098D02*
X52085714Y-187030098D01*
X52085714Y-187030098D02*
X51990476Y-187077717D01*
X51990476Y-187077717D02*
X51942857Y-187125336D01*
X51942857Y-187125336D02*
X51895238Y-187220574D01*
X41966666Y-186649146D02*
X41966666Y-187363431D01*
X41966666Y-187363431D02*
X41919047Y-187506288D01*
X41919047Y-187506288D02*
X41823809Y-187601527D01*
X41823809Y-187601527D02*
X41680952Y-187649146D01*
X41680952Y-187649146D02*
X41585714Y-187649146D01*
X42919047Y-186649146D02*
X42442857Y-186649146D01*
X42442857Y-186649146D02*
X42395238Y-187125336D01*
X42395238Y-187125336D02*
X42442857Y-187077717D01*
X42442857Y-187077717D02*
X42538095Y-187030098D01*
X42538095Y-187030098D02*
X42776190Y-187030098D01*
X42776190Y-187030098D02*
X42871428Y-187077717D01*
X42871428Y-187077717D02*
X42919047Y-187125336D01*
X42919047Y-187125336D02*
X42966666Y-187220574D01*
X42966666Y-187220574D02*
X42966666Y-187458669D01*
X42966666Y-187458669D02*
X42919047Y-187553907D01*
X42919047Y-187553907D02*
X42871428Y-187601527D01*
X42871428Y-187601527D02*
X42776190Y-187649146D01*
X42776190Y-187649146D02*
X42538095Y-187649146D01*
X42538095Y-187649146D02*
X42442857Y-187601527D01*
X42442857Y-187601527D02*
X42395238Y-187553907D01*
X41966666Y-176999146D02*
X41966666Y-177713431D01*
X41966666Y-177713431D02*
X41919047Y-177856288D01*
X41919047Y-177856288D02*
X41823809Y-177951527D01*
X41823809Y-177951527D02*
X41680952Y-177999146D01*
X41680952Y-177999146D02*
X41585714Y-177999146D01*
X42871428Y-177332479D02*
X42871428Y-177999146D01*
X42633333Y-176951527D02*
X42395238Y-177665812D01*
X42395238Y-177665812D02*
X43014285Y-177665812D01*
X41966666Y-167649146D02*
X41966666Y-168363431D01*
X41966666Y-168363431D02*
X41919047Y-168506288D01*
X41919047Y-168506288D02*
X41823809Y-168601527D01*
X41823809Y-168601527D02*
X41680952Y-168649146D01*
X41680952Y-168649146D02*
X41585714Y-168649146D01*
X42347619Y-167649146D02*
X42966666Y-167649146D01*
X42966666Y-167649146D02*
X42633333Y-168030098D01*
X42633333Y-168030098D02*
X42776190Y-168030098D01*
X42776190Y-168030098D02*
X42871428Y-168077717D01*
X42871428Y-168077717D02*
X42919047Y-168125336D01*
X42919047Y-168125336D02*
X42966666Y-168220574D01*
X42966666Y-168220574D02*
X42966666Y-168458669D01*
X42966666Y-168458669D02*
X42919047Y-168553907D01*
X42919047Y-168553907D02*
X42871428Y-168601527D01*
X42871428Y-168601527D02*
X42776190Y-168649146D01*
X42776190Y-168649146D02*
X42490476Y-168649146D01*
X42490476Y-168649146D02*
X42395238Y-168601527D01*
X42395238Y-168601527D02*
X42347619Y-168553907D01*
X51466666Y-177299146D02*
X51466666Y-178013431D01*
X51466666Y-178013431D02*
X51419047Y-178156288D01*
X51419047Y-178156288D02*
X51323809Y-178251527D01*
X51323809Y-178251527D02*
X51180952Y-178299146D01*
X51180952Y-178299146D02*
X51085714Y-178299146D01*
X51895238Y-177394384D02*
X51942857Y-177346765D01*
X51942857Y-177346765D02*
X52038095Y-177299146D01*
X52038095Y-177299146D02*
X52276190Y-177299146D01*
X52276190Y-177299146D02*
X52371428Y-177346765D01*
X52371428Y-177346765D02*
X52419047Y-177394384D01*
X52419047Y-177394384D02*
X52466666Y-177489622D01*
X52466666Y-177489622D02*
X52466666Y-177584860D01*
X52466666Y-177584860D02*
X52419047Y-177727717D01*
X52419047Y-177727717D02*
X51847619Y-178299146D01*
X51847619Y-178299146D02*
X52466666Y-178299146D01*
X51466666Y-167649146D02*
X51466666Y-168363431D01*
X51466666Y-168363431D02*
X51419047Y-168506288D01*
X51419047Y-168506288D02*
X51323809Y-168601527D01*
X51323809Y-168601527D02*
X51180952Y-168649146D01*
X51180952Y-168649146D02*
X51085714Y-168649146D01*
X52466666Y-168649146D02*
X51895238Y-168649146D01*
X52180952Y-168649146D02*
X52180952Y-167649146D01*
X52180952Y-167649146D02*
X52085714Y-167792003D01*
X52085714Y-167792003D02*
X51990476Y-167887241D01*
X51990476Y-167887241D02*
X51895238Y-167934860D01*
X32024819Y-145266231D02*
X32834342Y-145266231D01*
X32834342Y-145266231D02*
X32929580Y-145218612D01*
X32929580Y-145218612D02*
X32977200Y-145170993D01*
X32977200Y-145170993D02*
X33024819Y-145075755D01*
X33024819Y-145075755D02*
X33024819Y-144885279D01*
X33024819Y-144885279D02*
X32977200Y-144790041D01*
X32977200Y-144790041D02*
X32929580Y-144742422D01*
X32929580Y-144742422D02*
X32834342Y-144694803D01*
X32834342Y-144694803D02*
X32024819Y-144694803D01*
X32024819Y-144313850D02*
X32024819Y-143694803D01*
X32024819Y-143694803D02*
X32405771Y-144028136D01*
X32405771Y-144028136D02*
X32405771Y-143885279D01*
X32405771Y-143885279D02*
X32453390Y-143790041D01*
X32453390Y-143790041D02*
X32501009Y-143742422D01*
X32501009Y-143742422D02*
X32596247Y-143694803D01*
X32596247Y-143694803D02*
X32834342Y-143694803D01*
X32834342Y-143694803D02*
X32929580Y-143742422D01*
X32929580Y-143742422D02*
X32977200Y-143790041D01*
X32977200Y-143790041D02*
X33024819Y-143885279D01*
X33024819Y-143885279D02*
X33024819Y-144170993D01*
X33024819Y-144170993D02*
X32977200Y-144266231D01*
X32977200Y-144266231D02*
X32929580Y-144313850D01*
X26856666Y-122829146D02*
X26856666Y-123543431D01*
X26856666Y-123543431D02*
X26809047Y-123686288D01*
X26809047Y-123686288D02*
X26713809Y-123781527D01*
X26713809Y-123781527D02*
X26570952Y-123829146D01*
X26570952Y-123829146D02*
X26475714Y-123829146D01*
X27237619Y-122829146D02*
X27904285Y-122829146D01*
X27904285Y-122829146D02*
X27475714Y-123829146D01*
D11*
%TO.C,J12*%
X23340000Y-132124327D02*
X31140000Y-132124327D01*
X23340000Y-138174327D02*
X23340000Y-132124327D01*
X24690000Y-137064327D02*
X29770000Y-137064327D01*
X24690000Y-138074327D02*
X24690000Y-137064327D01*
X29770000Y-137064327D02*
X29770000Y-138074327D01*
X31140000Y-132124327D02*
X31140000Y-138174327D01*
X31140000Y-138174327D02*
X23340000Y-138174327D01*
%TO.C,J11*%
X23340000Y-140124327D02*
X31140000Y-140124327D01*
X23340000Y-146174327D02*
X23340000Y-140124327D01*
X24690000Y-145064327D02*
X29770000Y-145064327D01*
X24690000Y-146074327D02*
X24690000Y-145064327D01*
X29770000Y-145064327D02*
X29770000Y-146074327D01*
X31140000Y-140124327D02*
X31140000Y-146174327D01*
X31140000Y-146174327D02*
X23340000Y-146174327D01*
%TO.C,J10*%
X17440000Y-132944327D02*
X18770000Y-132944327D01*
X17440000Y-134274327D02*
X17440000Y-132944327D01*
X17440000Y-135544327D02*
X17440000Y-163544327D01*
X17440000Y-135544327D02*
X20100000Y-135544327D01*
X17440000Y-163544327D02*
X20100000Y-163544327D01*
X20100000Y-135544327D02*
X20100000Y-163544327D01*
%TO.C,J9*%
X18100000Y-191604327D02*
X16770000Y-191604327D01*
X18100000Y-190274327D02*
X18100000Y-191604327D01*
X18100000Y-189004327D02*
X18100000Y-176244327D01*
X18100000Y-189004327D02*
X15440000Y-189004327D01*
X18100000Y-176244327D02*
X15440000Y-176244327D01*
X15440000Y-189004327D02*
X15440000Y-176244327D01*
%TO.C,J8*%
X23870000Y-158604327D02*
X23870000Y-148304327D01*
X29820000Y-158604327D02*
X23870000Y-158604327D01*
X29820000Y-155404327D02*
X29820000Y-158604327D01*
X24980000Y-154734327D02*
X23970000Y-154734327D01*
X23970000Y-149654327D02*
X24980000Y-149654327D01*
X24980000Y-149654327D02*
X24980000Y-154734327D01*
X23870000Y-148304327D02*
X29870000Y-148304327D01*
X29870000Y-148304327D02*
X29870000Y-154054327D01*
%TO.C,J11*%
X28390000Y-190074327D02*
X28390000Y-192274327D01*
X28730000Y-190364327D02*
X28730000Y-192274327D01*
X28730000Y-190364327D02*
X36860000Y-190364327D01*
X28730000Y-192274327D02*
X28730000Y-197104327D01*
X29690000Y-190074327D02*
X28390000Y-190074327D01*
X30000000Y-188974327D02*
X35590000Y-188974327D01*
X30000000Y-189224327D02*
X35590000Y-189224327D01*
X30000000Y-190114327D02*
X35590000Y-190114327D01*
X30000000Y-190364327D02*
X30000000Y-188974327D01*
X32410000Y-196844327D02*
X33180000Y-196844327D01*
X32410000Y-197104327D02*
X28730000Y-197104327D01*
X32410000Y-197104327D02*
X32410000Y-196844327D01*
X33180000Y-196844327D02*
X33180000Y-197104327D01*
X33180000Y-197104327D02*
X36860000Y-197104327D01*
X35590000Y-190364327D02*
X35590000Y-188974327D01*
X36860000Y-190364327D02*
X36860000Y-192274327D01*
X36860000Y-197104327D02*
X36860000Y-192274327D01*
%TO.C,J10*%
X28390000Y-180424327D02*
X28390000Y-182624327D01*
X28730000Y-180714327D02*
X28730000Y-182624327D01*
X28730000Y-180714327D02*
X36860000Y-180714327D01*
X28730000Y-182624327D02*
X28730000Y-187454327D01*
X29690000Y-180424327D02*
X28390000Y-180424327D01*
X30000000Y-179324327D02*
X35590000Y-179324327D01*
X30000000Y-179574327D02*
X35590000Y-179574327D01*
X30000000Y-180464327D02*
X35590000Y-180464327D01*
X30000000Y-180714327D02*
X30000000Y-179324327D01*
X32410000Y-187194327D02*
X33180000Y-187194327D01*
X32410000Y-187454327D02*
X28730000Y-187454327D01*
X32410000Y-187454327D02*
X32410000Y-187194327D01*
X33180000Y-187194327D02*
X33180000Y-187454327D01*
X33180000Y-187454327D02*
X36860000Y-187454327D01*
X35590000Y-180714327D02*
X35590000Y-179324327D01*
X36860000Y-180714327D02*
X36860000Y-182624327D01*
X36860000Y-187454327D02*
X36860000Y-182624327D01*
%TO.C,J9*%
X28390000Y-171074327D02*
X28390000Y-173274327D01*
X28730000Y-171364327D02*
X28730000Y-173274327D01*
X28730000Y-171364327D02*
X36860000Y-171364327D01*
X28730000Y-173274327D02*
X28730000Y-178104327D01*
X29690000Y-171074327D02*
X28390000Y-171074327D01*
X30000000Y-169974327D02*
X35590000Y-169974327D01*
X30000000Y-170224327D02*
X35590000Y-170224327D01*
X30000000Y-171114327D02*
X35590000Y-171114327D01*
X30000000Y-171364327D02*
X30000000Y-169974327D01*
X32410000Y-177844327D02*
X33180000Y-177844327D01*
X32410000Y-178104327D02*
X28730000Y-178104327D01*
X32410000Y-178104327D02*
X32410000Y-177844327D01*
X33180000Y-177844327D02*
X33180000Y-178104327D01*
X33180000Y-178104327D02*
X36860000Y-178104327D01*
X35590000Y-171364327D02*
X35590000Y-169974327D01*
X36860000Y-171364327D02*
X36860000Y-173274327D01*
X36860000Y-178104327D02*
X36860000Y-173274327D01*
%TO.C,J6*%
X47390000Y-190074327D02*
X47390000Y-192274327D01*
X47730000Y-190364327D02*
X47730000Y-192274327D01*
X47730000Y-190364327D02*
X55860000Y-190364327D01*
X47730000Y-192274327D02*
X47730000Y-197104327D01*
X48690000Y-190074327D02*
X47390000Y-190074327D01*
X49000000Y-188974327D02*
X54590000Y-188974327D01*
X49000000Y-189224327D02*
X54590000Y-189224327D01*
X49000000Y-190114327D02*
X54590000Y-190114327D01*
X49000000Y-190364327D02*
X49000000Y-188974327D01*
X51410000Y-196844327D02*
X52180000Y-196844327D01*
X51410000Y-197104327D02*
X47730000Y-197104327D01*
X51410000Y-197104327D02*
X51410000Y-196844327D01*
X52180000Y-196844327D02*
X52180000Y-197104327D01*
X52180000Y-197104327D02*
X55860000Y-197104327D01*
X54590000Y-190364327D02*
X54590000Y-188974327D01*
X55860000Y-190364327D02*
X55860000Y-192274327D01*
X55860000Y-197104327D02*
X55860000Y-192274327D01*
%TO.C,J5*%
X37890000Y-190074327D02*
X37890000Y-192274327D01*
X38230000Y-190364327D02*
X38230000Y-192274327D01*
X38230000Y-190364327D02*
X46360000Y-190364327D01*
X38230000Y-192274327D02*
X38230000Y-197104327D01*
X39190000Y-190074327D02*
X37890000Y-190074327D01*
X39500000Y-188974327D02*
X45090000Y-188974327D01*
X39500000Y-189224327D02*
X45090000Y-189224327D01*
X39500000Y-190114327D02*
X45090000Y-190114327D01*
X39500000Y-190364327D02*
X39500000Y-188974327D01*
X41910000Y-196844327D02*
X42680000Y-196844327D01*
X41910000Y-197104327D02*
X38230000Y-197104327D01*
X41910000Y-197104327D02*
X41910000Y-196844327D01*
X42680000Y-196844327D02*
X42680000Y-197104327D01*
X42680000Y-197104327D02*
X46360000Y-197104327D01*
X45090000Y-190364327D02*
X45090000Y-188974327D01*
X46360000Y-190364327D02*
X46360000Y-192274327D01*
X46360000Y-197104327D02*
X46360000Y-192274327D01*
%TO.C,J4*%
X37890000Y-180424327D02*
X37890000Y-182624327D01*
X38230000Y-180714327D02*
X38230000Y-182624327D01*
X38230000Y-180714327D02*
X46360000Y-180714327D01*
X38230000Y-182624327D02*
X38230000Y-187454327D01*
X39190000Y-180424327D02*
X37890000Y-180424327D01*
X39500000Y-179324327D02*
X45090000Y-179324327D01*
X39500000Y-179574327D02*
X45090000Y-179574327D01*
X39500000Y-180464327D02*
X45090000Y-180464327D01*
X39500000Y-180714327D02*
X39500000Y-179324327D01*
X41910000Y-187194327D02*
X42680000Y-187194327D01*
X41910000Y-187454327D02*
X38230000Y-187454327D01*
X41910000Y-187454327D02*
X41910000Y-187194327D01*
X42680000Y-187194327D02*
X42680000Y-187454327D01*
X42680000Y-187454327D02*
X46360000Y-187454327D01*
X45090000Y-180714327D02*
X45090000Y-179324327D01*
X46360000Y-180714327D02*
X46360000Y-182624327D01*
X46360000Y-187454327D02*
X46360000Y-182624327D01*
%TO.C,J3*%
X37890000Y-171074327D02*
X37890000Y-173274327D01*
X38230000Y-171364327D02*
X38230000Y-173274327D01*
X38230000Y-171364327D02*
X46360000Y-171364327D01*
X38230000Y-173274327D02*
X38230000Y-178104327D01*
X39190000Y-171074327D02*
X37890000Y-171074327D01*
X39500000Y-169974327D02*
X45090000Y-169974327D01*
X39500000Y-170224327D02*
X45090000Y-170224327D01*
X39500000Y-171114327D02*
X45090000Y-171114327D01*
X39500000Y-171364327D02*
X39500000Y-169974327D01*
X41910000Y-177844327D02*
X42680000Y-177844327D01*
X41910000Y-178104327D02*
X38230000Y-178104327D01*
X41910000Y-178104327D02*
X41910000Y-177844327D01*
X42680000Y-177844327D02*
X42680000Y-178104327D01*
X42680000Y-178104327D02*
X46360000Y-178104327D01*
X45090000Y-171364327D02*
X45090000Y-169974327D01*
X46360000Y-171364327D02*
X46360000Y-173274327D01*
X46360000Y-178104327D02*
X46360000Y-173274327D01*
%TO.C,J2*%
X47390000Y-180724327D02*
X47390000Y-182924327D01*
X47730000Y-181014327D02*
X47730000Y-182924327D01*
X47730000Y-181014327D02*
X55860000Y-181014327D01*
X47730000Y-182924327D02*
X47730000Y-187754327D01*
X48690000Y-180724327D02*
X47390000Y-180724327D01*
X49000000Y-179624327D02*
X54590000Y-179624327D01*
X49000000Y-179874327D02*
X54590000Y-179874327D01*
X49000000Y-180764327D02*
X54590000Y-180764327D01*
X49000000Y-181014327D02*
X49000000Y-179624327D01*
X51410000Y-187494327D02*
X52180000Y-187494327D01*
X51410000Y-187754327D02*
X47730000Y-187754327D01*
X51410000Y-187754327D02*
X51410000Y-187494327D01*
X52180000Y-187494327D02*
X52180000Y-187754327D01*
X52180000Y-187754327D02*
X55860000Y-187754327D01*
X54590000Y-181014327D02*
X54590000Y-179624327D01*
X55860000Y-181014327D02*
X55860000Y-182924327D01*
X55860000Y-187754327D02*
X55860000Y-182924327D01*
%TO.C,J1*%
X47390000Y-171074327D02*
X47390000Y-173274327D01*
X47730000Y-171364327D02*
X47730000Y-173274327D01*
X47730000Y-171364327D02*
X55860000Y-171364327D01*
X47730000Y-173274327D02*
X47730000Y-178104327D01*
X48690000Y-171074327D02*
X47390000Y-171074327D01*
X49000000Y-169974327D02*
X54590000Y-169974327D01*
X49000000Y-170224327D02*
X54590000Y-170224327D01*
X49000000Y-171114327D02*
X54590000Y-171114327D01*
X49000000Y-171364327D02*
X49000000Y-169974327D01*
X51410000Y-177844327D02*
X52180000Y-177844327D01*
X51410000Y-178104327D02*
X47730000Y-178104327D01*
X51410000Y-178104327D02*
X51410000Y-177844327D01*
X52180000Y-177844327D02*
X52180000Y-178104327D01*
X52180000Y-178104327D02*
X55860000Y-178104327D01*
X54590000Y-171364327D02*
X54590000Y-169974327D01*
X55860000Y-171364327D02*
X55860000Y-173274327D01*
X55860000Y-178104327D02*
X55860000Y-173274327D01*
%TO.C,U3*%
X37360295Y-129445646D02*
X35760296Y-129445646D01*
X35760296Y-128645646D02*
X37360295Y-128645646D01*
X37360295Y-128645646D02*
X37360295Y-129445646D01*
X37040295Y-128645646D02*
X37040295Y-129445646D01*
X35011295Y-134152015D02*
X35011295Y-134185970D01*
X35011295Y-134235349D02*
X35011295Y-134280221D01*
X35062295Y-132794544D02*
X39962294Y-132794544D01*
X40012294Y-132844544D02*
X40012294Y-142744544D01*
X39962294Y-142794544D02*
X35062295Y-142794544D01*
X35012295Y-142744544D02*
X35012295Y-132844544D01*
X36387294Y-141745733D02*
X36356075Y-141738563D01*
X36387294Y-141745733D02*
X36382062Y-141770180D01*
X36387294Y-141745733D02*
X36362295Y-141733774D01*
X36330900Y-141757942D02*
X36362295Y-141733774D01*
X36362295Y-139655313D02*
X36362295Y-141733774D01*
X36862294Y-141733774D02*
X36862294Y-139655313D01*
X55165796Y-144126930D02*
X55165796Y-134426930D01*
X53665796Y-132926930D02*
X43965796Y-132926930D01*
X42465796Y-134426930D02*
X42465796Y-144126930D01*
X43965796Y-145626930D02*
X53665796Y-145626930D01*
X36080296Y-129445646D02*
X36080296Y-128645646D01*
X35760296Y-128645646D02*
X35760296Y-129445646D01*
X55995000Y-123899327D02*
X34545000Y-123899327D01*
X34545000Y-123899327D02*
X34545000Y-167649327D01*
X34545000Y-167649327D02*
X55995000Y-167649327D01*
X55995000Y-167649327D02*
X55995000Y-123899327D01*
X52938217Y-157062691D02*
X52938217Y-156612691D01*
X54688217Y-157062691D02*
X52938217Y-157062691D01*
X54688217Y-156612691D02*
X54688217Y-157062691D01*
X52938217Y-152812691D02*
X52938217Y-152362691D01*
X54688217Y-152362691D02*
X54688217Y-152812691D01*
X52938217Y-152362691D02*
X54688217Y-152362691D01*
X52563217Y-156512691D02*
X52563217Y-152912691D01*
X52663217Y-152812691D02*
X54963217Y-152812691D01*
X55063217Y-152912691D02*
X55063217Y-156512691D01*
X54963217Y-156612691D02*
X52663217Y-156612691D01*
X35726671Y-148834094D02*
X36017610Y-147184094D01*
X35726671Y-155694094D02*
X35726671Y-148834094D01*
X36017610Y-157344094D02*
X35726671Y-155694094D01*
X36806670Y-147184094D02*
X36806670Y-157344094D01*
X45446670Y-147261657D02*
X45369106Y-147184094D01*
X45369106Y-147184094D02*
X36017610Y-147184094D01*
X45446670Y-157266530D02*
X45446670Y-147261657D01*
X45369106Y-157344094D02*
X45446670Y-157266530D01*
X45369106Y-157344094D02*
X36017610Y-157344094D01*
X37384149Y-157345094D02*
X37545687Y-157345094D01*
X50076670Y-149284094D02*
X50076670Y-148444094D01*
X50076670Y-148444094D02*
X45446670Y-148444094D01*
X50076670Y-149284094D02*
X45446670Y-149284094D01*
X50076670Y-150984094D02*
X50076670Y-150144094D01*
X50076670Y-150144094D02*
X45446670Y-150144094D01*
X50076670Y-150984094D02*
X45446670Y-150984094D01*
X50076670Y-152684094D02*
X50076670Y-151844094D01*
X50076670Y-151844094D02*
X45446670Y-151844094D01*
X50076670Y-152684094D02*
X45446670Y-152684094D01*
X50076670Y-154384094D02*
X50076670Y-153544094D01*
X50076670Y-153544094D02*
X45446670Y-153544094D01*
X50076670Y-154384094D02*
X45446670Y-154384094D01*
X50076670Y-156084094D02*
X50076670Y-155244094D01*
X50076670Y-155244094D02*
X45446670Y-155244094D01*
X50076670Y-156084094D02*
X45446670Y-156084094D01*
X52663217Y-153682969D02*
X54963217Y-153682969D01*
X53174696Y-152811691D02*
X53080144Y-152811691D01*
X49337418Y-163447661D02*
G75*
G02*
X41337418Y-163447661I-4000000J0D01*
G01*
X41337418Y-163447661D02*
G75*
G02*
X49337418Y-163447661I4000000J0D01*
G01*
X49835206Y-128065020D02*
G75*
G02*
X41835206Y-128065020I-4000000J0D01*
G01*
X41835206Y-128065020D02*
G75*
G02*
X49835206Y-128065020I4000000J0D01*
G01*
X54065796Y-139276930D02*
G75*
G02*
X43565796Y-139276930I-5250000J0D01*
G01*
X43565796Y-139276930D02*
G75*
G02*
X54065796Y-139276930I5250000J0D01*
G01*
X38613999Y-161014327D02*
G75*
G02*
X35416001Y-161014327I-1598999J0D01*
G01*
X35416001Y-161014327D02*
G75*
G02*
X38613999Y-161014327I1598999J0D01*
G01*
X55124000Y-130534327D02*
G75*
G02*
X51926000Y-130534327I-1599000J0D01*
G01*
X51926000Y-130534327D02*
G75*
G02*
X55124000Y-130534327I1599000J0D01*
G01*
X44909594Y-156421148D02*
G75*
G02*
X44159594Y-156421148I-375000J0D01*
G01*
X44159594Y-156421148D02*
G75*
G02*
X44909594Y-156421148I375000J0D01*
G01*
X55740000Y-127034327D02*
X52580000Y-127034327D01*
X55740000Y-127034327D02*
X55740000Y-123919327D01*
X52580000Y-127034327D02*
X52580000Y-123919327D01*
X37960000Y-127034327D02*
X34800000Y-127034327D01*
X37960000Y-127034327D02*
X37960000Y-123874327D01*
X34800000Y-127034327D02*
X34800000Y-123919327D01*
X55740000Y-167644327D02*
X55740000Y-164514327D01*
X52580000Y-164514327D02*
X55740000Y-164514327D01*
X52580000Y-167644327D02*
X52580000Y-164514327D01*
X37955000Y-167644327D02*
X37960000Y-164514327D01*
X34800000Y-167644327D02*
X34800000Y-166344327D01*
X37650000Y-164514327D02*
X37960000Y-164514327D01*
X55063217Y-156512691D02*
G75*
G02*
X54963217Y-156612691I-100000J0D01*
G01*
X54963217Y-152812691D02*
G75*
G02*
X55063217Y-152912691I0J-100000D01*
G01*
X52563217Y-152912691D02*
G75*
G02*
X52663217Y-152812691I100000J0D01*
G01*
X52663217Y-156612691D02*
G75*
G02*
X52563217Y-156512691I0J100000D01*
G01*
X45980184Y-134274750D02*
G75*
G02*
X45846011Y-134240665I-49316J86994D01*
G01*
X53817976Y-136441316D02*
G75*
G02*
X53817976Y-142112544I-5002180J-2835614D01*
G01*
X51785583Y-134240664D02*
G75*
G02*
X51651410Y-134274751I-84858J52908D01*
G01*
X45980183Y-134274751D02*
G75*
G02*
X51651410Y-134274751I2835613J-5002179D01*
G01*
X53665796Y-132926930D02*
G75*
G02*
X55165796Y-134426930I0J-1500000D01*
G01*
X43779531Y-136307144D02*
G75*
G02*
X45846011Y-134240665I793625J1272855D01*
G01*
X53852062Y-142246716D02*
G75*
G02*
X53817976Y-142112544I52908J84857D01*
G01*
X43965796Y-145626930D02*
G75*
G02*
X42465796Y-144126930I0J1500000D01*
G01*
X42465796Y-134426930D02*
G75*
G02*
X43965796Y-132926930I1500000J0D01*
G01*
X55165796Y-144126930D02*
G75*
G02*
X53665796Y-145626930I-1500000J0D01*
G01*
X53817976Y-136441316D02*
G75*
G02*
X53852062Y-136307144I86994J49315D01*
G01*
X53852062Y-142246716D02*
G75*
G02*
X51785582Y-144313195I-793625J-1272855D01*
G01*
X51651410Y-144279109D02*
G75*
G02*
X45980183Y-144279109I-2835614J5002179D01*
G01*
X43813617Y-142112543D02*
G75*
G02*
X43813617Y-136441316I5002179J2835613D01*
G01*
X51785582Y-134240665D02*
G75*
G02*
X53852062Y-136307144I1272855J-793624D01*
G01*
X45846011Y-144313195D02*
G75*
G02*
X43779531Y-142246716I-1272855J793624D01*
G01*
X43813617Y-142112544D02*
G75*
G02*
X43779531Y-142246716I-86994J-49315D01*
G01*
X45846010Y-144313196D02*
G75*
G02*
X45980183Y-144279109I84858J-52908D01*
G01*
X51651409Y-144279110D02*
G75*
G02*
X51785582Y-144313195I49316J-86994D01*
G01*
X43779531Y-136307144D02*
G75*
G02*
X43813617Y-136441316I-52908J-84857D01*
G01*
X36842527Y-141770179D02*
G75*
G02*
X36893690Y-141757942I-230233J1075635D01*
G01*
X39962294Y-132794544D02*
G75*
G02*
X40012294Y-132844544I0J-50000D01*
G01*
X35062295Y-142794544D02*
G75*
G02*
X35012295Y-142744544I0J50000D01*
G01*
X40012294Y-142744544D02*
G75*
G02*
X39962294Y-142794544I-50000J0D01*
G01*
X35012295Y-132844544D02*
G75*
G02*
X35062295Y-132794544I50000J0D01*
G01*
%TO.C,J7*%
X23340000Y-124124327D02*
X31140000Y-124124327D01*
X23340000Y-130174327D02*
X23340000Y-124124327D01*
X24690000Y-129064327D02*
X29770000Y-129064327D01*
X24690000Y-130074327D02*
X24690000Y-129064327D01*
X29770000Y-129064327D02*
X29770000Y-130074327D01*
X31140000Y-124124327D02*
X31140000Y-130174327D01*
X31140000Y-130174327D02*
X23340000Y-130174327D01*
%TD*%
M02*
