M48
; DRILL file {KiCad 8.0.5} date 2025-07-12T21:41:11-0400
; FORMAT={-:-/ absolute / inch / decimal}
; #@! TF.CreationDate,2025-07-12T21:41:11-04:00
; #@! TF.GenerationSoftware,Kicad,Pcbnew,8.0.5
; #@! TF.FileFunction,Plated,1,2,PTH
FMAT,2
INCH
; #@! TA.AperFunction,Plated,PTH,ComponentDrill
T1C0.0394
%
G90
G05
T1
X0.5512Y-0.5512
X0.5512Y-0.7283
X0.5512Y-0.9055
X0.5512Y-1.1024
X0.5512Y-1.2795
X0.5512Y-1.4567
X0.5512Y-1.6535
X0.5512Y-1.8307
X0.5512Y-2.0079
X0.5512Y-2.2047
X0.5512Y-2.3819
X0.5512Y-2.5591
X0.748Y-0.7283
X0.7874Y-2.7756
X0.7874Y-2.9528
X0.7874Y-3.1299
X0.8465Y-0.9055
X0.8465Y-1.0827
X0.8465Y-1.2795
X0.8465Y-1.4567
X0.8465Y-1.5748
X0.8465Y-1.752
X0.8465Y-1.9291
X0.8465Y-2.126
X0.8465Y-2.3031
X0.8465Y-2.4803
X0.9252Y-0.7283
X1.0433Y-2.5
X1.0433Y-2.6772
X1.0433Y-2.8543
X1.1024Y-0.7283
X1.6142Y-0.6496
X1.6142Y-2.2496
X1.7126Y-2.4213
X1.7126Y-2.5394
X1.7126Y-2.6772
X1.8898Y-2.4213
X1.8898Y-2.5394
X1.8898Y-2.6772
X2.0669Y-2.4213
X2.0669Y-2.5394
X2.0669Y-2.6969
X2.2441Y-2.4213
X2.2441Y-2.5394
X2.2441Y-2.6969
X2.3142Y-0.6496
X2.3142Y-2.2496
M30
