%TF.GenerationSoftware,KiCad,Pcbnew,8.0.5*%
%TF.CreationDate,2025-07-12T19:06:12-04:00*%
%TF.ProjectId,Car,4361722e-6b69-4636-9164-5f7063625858,rev?*%
%TF.SameCoordinates,Original*%
%TF.FileFunction,Copper,L1,Top*%
%TF.FilePolarity,Positive*%
%FSLAX46Y46*%
G04 Gerber Fmt 4.6, Leading zero omitted, Abs format (unit mm)*
G04 Created by KiCad (PCBNEW 8.0.5) date 2025-07-12 19:06:12*
%MOMM*%
%LPD*%
G01*
G04 APERTURE LIST*
%TA.AperFunction,ComponentPad*%
%ADD10R,1.730000X2.030000*%
%TD*%
%TA.AperFunction,ComponentPad*%
%ADD11O,1.730000X2.030000*%
%TD*%
%TA.AperFunction,ComponentPad*%
%ADD12R,1.700000X1.700000*%
%TD*%
%TA.AperFunction,ComponentPad*%
%ADD13O,1.700000X1.700000*%
%TD*%
%TA.AperFunction,ComponentPad*%
%ADD14O,2.030000X1.730000*%
%TD*%
%TA.AperFunction,ComponentPad*%
%ADD15R,2.030000X1.730000*%
%TD*%
%TA.AperFunction,ComponentPad*%
%ADD16R,3.000000X3.000000*%
%TD*%
%TA.AperFunction,ComponentPad*%
%ADD17C,3.000000*%
%TD*%
%TA.AperFunction,ComponentPad*%
%ADD18R,2.540000X2.540000*%
%TD*%
%TA.AperFunction,ComponentPad*%
%ADD19C,2.540000*%
%TD*%
%TA.AperFunction,Conductor*%
%ADD20C,0.200000*%
%TD*%
G04 APERTURE END LIST*
D10*
%TO.P,J12,1,Pin_1*%
%TO.N,GND*%
X24690000Y-134774327D03*
D11*
%TO.P,J12,2,Pin_2*%
%TO.N,LED2*%
X27230000Y-134774327D03*
%TO.P,J12,3,Pin_3*%
%TO.N,+5V*%
X29770000Y-134774327D03*
%TD*%
D10*
%TO.P,J11,1,Pin_1*%
%TO.N,GND*%
X24690000Y-142774327D03*
D11*
%TO.P,J11,2,Pin_2*%
%TO.N,LED1*%
X27230000Y-142774327D03*
%TO.P,J11,3,Pin_3*%
%TO.N,+5V*%
X29770000Y-142774327D03*
%TD*%
D12*
%TO.P,J10,1,Pin_1*%
%TO.N,LED2*%
X18770000Y-134274327D03*
D13*
%TO.P,J10,2,Pin_2*%
%TO.N,LED1*%
X18770000Y-136814327D03*
%TO.P,J10,3,Pin_3*%
%TO.N,BA*%
X18770000Y-139354327D03*
%TO.P,J10,4,Pin_4*%
%TO.N,BB*%
X18770000Y-141894327D03*
%TO.P,J10,5,Pin_5*%
%TO.N,AA*%
X18770000Y-144434327D03*
%TO.P,J10,6,Pin_6*%
%TO.N,AB*%
X18770000Y-146974327D03*
%TO.P,J10,7,Pin_7*%
%TO.N,IN4*%
X18770000Y-149514327D03*
%TO.P,J10,8,Pin_8*%
%TO.N,IN3*%
X18770000Y-152054327D03*
%TO.P,J10,9,Pin_9*%
%TO.N,IN2*%
X18770000Y-154594327D03*
%TO.P,J10,10,Pin_10*%
%TO.N,IN1*%
X18770000Y-157134327D03*
%TO.P,J10,11,Pin_11*%
%TO.N,+5V*%
X18770000Y-159674327D03*
%TO.P,J10,12,Pin_12*%
%TO.N,GND*%
X18770000Y-162214327D03*
%TD*%
D12*
%TO.P,J9,1,Pin_1*%
%TO.N,BA*%
X16770000Y-190274327D03*
D13*
%TO.P,J9,2,Pin_2*%
%TO.N,BB*%
X16770000Y-187734327D03*
%TO.P,J9,3,Pin_3*%
%TO.N,GND*%
X16770000Y-185194327D03*
%TO.P,J9,4,Pin_4*%
%TO.N,+6.5V*%
X16770000Y-182654327D03*
%TO.P,J9,5,Pin_5*%
%TO.N,AA*%
X16770000Y-180114327D03*
%TO.P,J9,6,Pin_6*%
%TO.N,AB*%
X16770000Y-177574327D03*
%TD*%
D14*
%TO.P,J8,4,Pin_4*%
%TO.N,IN1*%
X27270000Y-157274327D03*
%TO.P,J8,3,Pin_3*%
%TO.N,IN2*%
X27270000Y-154734327D03*
%TO.P,J8,2,Pin_2*%
%TO.N,IN3*%
X27270000Y-152194327D03*
D15*
%TO.P,J8,1,Pin_1*%
%TO.N,IN4*%
X27270000Y-149654327D03*
%TD*%
D16*
%TO.P,J11,1,Pin_1*%
%TO.N,Net-(J10-Pin_1)*%
X30890000Y-192274327D03*
D17*
%TO.P,J11,2,Pin_2*%
%TO.N,Net-(J10-Pin_2)*%
X34770000Y-192274327D03*
%TD*%
D16*
%TO.P,J10,1,Pin_1*%
%TO.N,Net-(J10-Pin_1)*%
X30890000Y-182624327D03*
D17*
%TO.P,J10,2,Pin_2*%
%TO.N,Net-(J10-Pin_2)*%
X34770000Y-182624327D03*
%TD*%
D16*
%TO.P,J9,1,Pin_1*%
%TO.N,Net-(J10-Pin_1)*%
X30890000Y-173274327D03*
D17*
%TO.P,J9,2,Pin_2*%
%TO.N,Net-(J10-Pin_2)*%
X34770000Y-173274327D03*
%TD*%
D16*
%TO.P,J6,1,Pin_1*%
%TO.N,Net-(J1-Pin_1)*%
X49890000Y-192274327D03*
D17*
%TO.P,J6,2,Pin_2*%
%TO.N,Net-(J1-Pin_2)*%
X53770000Y-192274327D03*
%TD*%
D16*
%TO.P,J5,1,Pin_1*%
%TO.N,Net-(J3-Pin_1)*%
X40390000Y-192274327D03*
D17*
%TO.P,J5,2,Pin_2*%
%TO.N,Net-(J3-Pin_2)*%
X44270000Y-192274327D03*
%TD*%
D16*
%TO.P,J4,1,Pin_1*%
%TO.N,Net-(J3-Pin_1)*%
X40390000Y-182624327D03*
D17*
%TO.P,J4,2,Pin_2*%
%TO.N,Net-(J3-Pin_2)*%
X44270000Y-182624327D03*
%TD*%
D16*
%TO.P,J3,1,Pin_1*%
%TO.N,Net-(J3-Pin_1)*%
X40390000Y-173274327D03*
D17*
%TO.P,J3,2,Pin_2*%
%TO.N,Net-(J3-Pin_2)*%
X44270000Y-173274327D03*
%TD*%
D16*
%TO.P,J2,1,Pin_1*%
%TO.N,Net-(J1-Pin_1)*%
X49890000Y-182924327D03*
D17*
%TO.P,J2,2,Pin_2*%
%TO.N,Net-(J1-Pin_2)*%
X53770000Y-182924327D03*
%TD*%
D16*
%TO.P,J1,1,Pin_1*%
%TO.N,Net-(J1-Pin_1)*%
X49890000Y-173274327D03*
D17*
%TO.P,J1,2,Pin_2*%
%TO.N,Net-(J1-Pin_2)*%
X53770000Y-173274327D03*
%TD*%
D18*
%TO.P,U3,1,Vin*%
%TO.N,VCC*%
X36380000Y-166094327D03*
D19*
%TO.P,U3,2,GND*%
%TO.N,GND*%
X54160000Y-166094327D03*
%TO.P,U3,4,Vout*%
%TO.N,+6.5V*%
X36380000Y-125454327D03*
%TO.P,U3,3,GND*%
%TO.N,GND*%
X54160000Y-125454327D03*
%TD*%
D10*
%TO.P,J7,1,Pin_1*%
%TO.N,+5V*%
X24690000Y-126774327D03*
D11*
%TO.P,J7,2,Pin_2*%
%TO.N,GND*%
X27230000Y-126774327D03*
%TO.P,J7,3,Pin_3*%
%TO.N,+6.5V*%
X29770000Y-126774327D03*
%TD*%
D20*
%TO.N,GND*%
X26690000Y-132774327D02*
X24690000Y-134774327D01*
X27955000Y-132774327D02*
X26690000Y-132774327D01*
X28500000Y-133319327D02*
X27955000Y-132774327D01*
X28500000Y-144044327D02*
X28500000Y-133319327D01*
X27770000Y-144774327D02*
X28500000Y-144044327D01*
X24690000Y-143734327D02*
X25730000Y-144774327D01*
X24690000Y-142774327D02*
X24690000Y-143734327D01*
X25730000Y-144774327D02*
X27770000Y-144774327D01*
%TO.N,+5V*%
X32770000Y-134774327D02*
X32020000Y-134024327D01*
X29770000Y-134774327D02*
X32770000Y-134774327D01*
X42270000Y-144274327D02*
X32770000Y-134774327D01*
X40770000Y-142774327D02*
X42270000Y-144274327D01*
X29770000Y-142774327D02*
X40770000Y-142774327D01*
%TO.N,LED1*%
X19230000Y-137274327D02*
X21770000Y-137274327D01*
X18770000Y-136814327D02*
X19230000Y-137274327D01*
X21770000Y-137274327D02*
X27230000Y-142734327D01*
X27230000Y-142734327D02*
X27230000Y-142774327D01*
%TO.N,GND*%
X21770000Y-125774327D02*
X22770000Y-124774327D01*
X21770000Y-131854327D02*
X21770000Y-125774327D01*
X25230000Y-124774327D02*
X27230000Y-126774327D01*
X24690000Y-134774327D02*
X21770000Y-131854327D01*
X22770000Y-124774327D02*
X25230000Y-124774327D01*
%TO.N,LED2*%
X25730000Y-136274327D02*
X27230000Y-134774327D01*
X20770000Y-136274327D02*
X25730000Y-136274327D01*
X18770000Y-134274327D02*
X20770000Y-136274327D01*
%TO.N,IN1*%
X27130000Y-157134327D02*
X27270000Y-157274327D01*
X18770000Y-157134327D02*
X27130000Y-157134327D01*
%TO.N,IN2*%
X27130000Y-154594327D02*
X27270000Y-154734327D01*
X18770000Y-154594327D02*
X27130000Y-154594327D01*
%TO.N,IN3*%
X27130000Y-152054327D02*
X27270000Y-152194327D01*
X18770000Y-152054327D02*
X27130000Y-152054327D01*
%TO.N,IN4*%
X27130000Y-149514327D02*
X27270000Y-149654327D01*
X18770000Y-149514327D02*
X27130000Y-149514327D01*
%TO.N,+6.5V*%
X35060000Y-126774327D02*
X36380000Y-125454327D01*
X29770000Y-126774327D02*
X35060000Y-126774327D01*
%TO.N,GND*%
X27500000Y-126504327D02*
X27230000Y-126774327D01*
X43770000Y-142774327D02*
X27500000Y-126504327D01*
X43770000Y-160274327D02*
X43770000Y-142774327D01*
X42270000Y-161774327D02*
X43770000Y-160274327D01*
X18770000Y-161774327D02*
X42270000Y-161774327D01*
%TO.N,+5V*%
X39270000Y-159274327D02*
X42270000Y-156274327D01*
X24770000Y-126774327D02*
X24690000Y-126774327D01*
X18770000Y-159274327D02*
X39270000Y-159274327D01*
X42270000Y-156274327D02*
X42270000Y-144274327D01*
%TO.N,+6.5V*%
X49270000Y-138344327D02*
X36380000Y-125454327D01*
X49270000Y-164774327D02*
X49270000Y-138344327D01*
X46380000Y-167664327D02*
X49270000Y-164774327D01*
X31880000Y-167664327D02*
X46380000Y-167664327D01*
X16770000Y-182774327D02*
X31880000Y-167664327D01*
%TO.N,GND*%
X15270000Y-183774327D02*
X16770000Y-185274327D01*
X15270000Y-182522981D02*
X15270000Y-183774327D01*
X17371346Y-181424327D02*
X16368654Y-181424327D01*
X18770000Y-180025673D02*
X17371346Y-181424327D01*
X18770000Y-161774327D02*
X18770000Y-180025673D01*
X16368654Y-181424327D02*
X15270000Y-182522981D01*
X55770000Y-167704327D02*
X54160000Y-166094327D01*
X55770000Y-194274327D02*
X55770000Y-167704327D01*
X26770000Y-195274327D02*
X54770000Y-195274327D01*
X16770000Y-185274327D02*
X26770000Y-195274327D01*
X54770000Y-195274327D02*
X55770000Y-194274327D01*
X51980000Y-123274327D02*
X54160000Y-125454327D01*
X30730000Y-123274327D02*
X51980000Y-123274327D01*
X27230000Y-126774327D02*
X30730000Y-123274327D01*
%TO.N,BB*%
X13270000Y-147274327D02*
X18770000Y-141774327D01*
X13270000Y-185774327D02*
X13270000Y-147274327D01*
X16770000Y-187774327D02*
X15270000Y-187774327D01*
X15270000Y-187774327D02*
X13270000Y-185774327D01*
%TO.N,AB*%
X14770000Y-150774327D02*
X18770000Y-146774327D01*
X17362830Y-177181497D02*
X14770000Y-174588667D01*
X16770000Y-177774327D02*
X17362830Y-177181497D01*
X14770000Y-174588667D02*
X14770000Y-150774327D01*
%TO.N,AA*%
X14270000Y-148774327D02*
X18770000Y-144274327D01*
X14270000Y-177774327D02*
X14270000Y-148774327D01*
X16770000Y-180274327D02*
X14270000Y-177774327D01*
%TO.N,BA*%
X12370000Y-145674327D02*
X12370000Y-185874327D01*
X12370000Y-185874327D02*
X16770000Y-190274327D01*
X18770000Y-139274327D02*
X12370000Y-145674327D01*
%TO.N,Net-(J1-Pin_2)*%
X53770000Y-173274327D02*
X53770000Y-192274327D01*
%TO.N,Net-(J1-Pin_1)*%
X49890000Y-173274327D02*
X49890000Y-192274327D01*
%TO.N,Net-(J3-Pin_2)*%
X44270000Y-192274327D02*
X44270000Y-173274327D01*
%TO.N,Net-(J3-Pin_1)*%
X40390000Y-173274327D02*
X40390000Y-192274327D01*
%TO.N,Net-(J10-Pin_2)*%
X34770000Y-192274327D02*
X34770000Y-172974327D01*
%TO.N,Net-(J10-Pin_1)*%
X30890000Y-172974327D02*
X30890000Y-192274327D01*
%TO.N,+5V*%
X32020000Y-134024327D02*
X24770000Y-126774327D01*
%TD*%
%TA.AperFunction,Conductor*%
%TO.N,GND*%
G36*
X56712539Y-122794512D02*
G01*
X56758294Y-122847316D01*
X56769500Y-122898827D01*
X56769500Y-197149827D01*
X56749815Y-197216866D01*
X56697011Y-197262621D01*
X56645500Y-197273827D01*
X12394500Y-197273827D01*
X12327461Y-197254142D01*
X12281706Y-197201338D01*
X12270500Y-197149827D01*
X12270500Y-186923424D01*
X12290185Y-186856385D01*
X12342989Y-186810630D01*
X12412147Y-186800686D01*
X12475703Y-186829711D01*
X12482181Y-186835743D01*
X15383181Y-189736744D01*
X15416666Y-189798067D01*
X15419500Y-189824425D01*
X15419500Y-191172197D01*
X15419501Y-191172203D01*
X15425908Y-191231810D01*
X15476202Y-191366655D01*
X15476206Y-191366662D01*
X15562452Y-191481871D01*
X15562455Y-191481874D01*
X15677664Y-191568120D01*
X15677671Y-191568124D01*
X15812517Y-191618418D01*
X15812516Y-191618418D01*
X15819444Y-191619162D01*
X15872127Y-191624827D01*
X17667872Y-191624826D01*
X17727483Y-191618418D01*
X17862331Y-191568123D01*
X17977546Y-191481873D01*
X18063796Y-191366658D01*
X18114091Y-191231810D01*
X18120500Y-191172200D01*
X18120499Y-189376455D01*
X18114091Y-189316844D01*
X18063796Y-189181996D01*
X18063795Y-189181995D01*
X18063793Y-189181991D01*
X17977547Y-189066782D01*
X17977544Y-189066779D01*
X17862335Y-188980533D01*
X17862328Y-188980529D01*
X17730917Y-188931516D01*
X17674983Y-188889645D01*
X17650566Y-188824180D01*
X17665418Y-188755907D01*
X17686563Y-188727659D01*
X17808495Y-188605728D01*
X17944035Y-188412157D01*
X18043903Y-188197990D01*
X18105063Y-187969735D01*
X18125659Y-187734327D01*
X18105063Y-187498919D01*
X18043903Y-187270664D01*
X17944035Y-187056498D01*
X17808495Y-186862926D01*
X17808494Y-186862924D01*
X17641402Y-186695833D01*
X17641401Y-186695832D01*
X17455405Y-186565596D01*
X17411781Y-186511019D01*
X17404588Y-186441520D01*
X17436110Y-186379166D01*
X17455405Y-186362446D01*
X17641082Y-186232432D01*
X17808105Y-186065409D01*
X17943600Y-185871905D01*
X18043429Y-185657819D01*
X18043432Y-185657813D01*
X18100636Y-185444327D01*
X17203012Y-185444327D01*
X17235925Y-185387320D01*
X17270000Y-185260153D01*
X17270000Y-185128501D01*
X17235925Y-185001334D01*
X17203012Y-184944327D01*
X18100636Y-184944327D01*
X18100635Y-184944326D01*
X18043432Y-184730840D01*
X18043429Y-184730834D01*
X17943600Y-184516749D01*
X17943599Y-184516747D01*
X17808113Y-184323253D01*
X17808108Y-184323247D01*
X17641078Y-184156217D01*
X17455405Y-184026206D01*
X17411780Y-183971629D01*
X17404588Y-183902131D01*
X17436110Y-183839776D01*
X17455406Y-183823057D01*
X17549048Y-183757488D01*
X17641401Y-183692822D01*
X17808495Y-183525728D01*
X17944035Y-183332157D01*
X18043903Y-183117990D01*
X18105063Y-182889735D01*
X18125659Y-182654327D01*
X18105063Y-182418919D01*
X18096031Y-182385210D01*
X18097692Y-182315362D01*
X18128122Y-182265438D01*
X28677820Y-171715741D01*
X28739142Y-171682257D01*
X28808834Y-171687241D01*
X28864767Y-171729113D01*
X28889184Y-171794577D01*
X28889500Y-171803423D01*
X28889500Y-174822197D01*
X28889501Y-174822203D01*
X28895908Y-174881810D01*
X28946202Y-175016655D01*
X28946206Y-175016662D01*
X29032452Y-175131871D01*
X29032455Y-175131874D01*
X29147664Y-175218120D01*
X29147671Y-175218124D01*
X29282517Y-175268418D01*
X29282516Y-175268418D01*
X29289444Y-175269162D01*
X29342127Y-175274827D01*
X30165500Y-175274826D01*
X30232539Y-175294510D01*
X30278294Y-175347314D01*
X30289500Y-175398826D01*
X30289500Y-180499827D01*
X30269815Y-180566866D01*
X30217011Y-180612621D01*
X30165500Y-180623827D01*
X29342129Y-180623827D01*
X29342123Y-180623828D01*
X29282516Y-180630235D01*
X29147671Y-180680529D01*
X29147664Y-180680533D01*
X29032455Y-180766779D01*
X29032452Y-180766782D01*
X28946206Y-180881991D01*
X28946202Y-180881998D01*
X28895908Y-181016844D01*
X28890540Y-181066779D01*
X28889501Y-181076450D01*
X28889500Y-181076462D01*
X28889500Y-184172197D01*
X28889501Y-184172203D01*
X28895908Y-184231810D01*
X28946202Y-184366655D01*
X28946206Y-184366662D01*
X29032452Y-184481871D01*
X29032455Y-184481874D01*
X29147664Y-184568120D01*
X29147671Y-184568124D01*
X29282517Y-184618418D01*
X29282516Y-184618418D01*
X29289444Y-184619162D01*
X29342127Y-184624827D01*
X30165500Y-184624826D01*
X30232539Y-184644510D01*
X30278294Y-184697314D01*
X30289500Y-184748826D01*
X30289500Y-190149827D01*
X30269815Y-190216866D01*
X30217011Y-190262621D01*
X30165500Y-190273827D01*
X29342129Y-190273827D01*
X29342123Y-190273828D01*
X29282516Y-190280235D01*
X29147671Y-190330529D01*
X29147664Y-190330533D01*
X29032455Y-190416779D01*
X29032452Y-190416782D01*
X28946206Y-190531991D01*
X28946202Y-190531998D01*
X28895908Y-190666844D01*
X28889501Y-190726443D01*
X28889501Y-190726450D01*
X28889500Y-190726462D01*
X28889500Y-193822197D01*
X28889501Y-193822203D01*
X28895908Y-193881810D01*
X28946202Y-194016655D01*
X28946206Y-194016662D01*
X29032452Y-194131871D01*
X29032455Y-194131874D01*
X29147664Y-194218120D01*
X29147671Y-194218124D01*
X29282517Y-194268418D01*
X29282516Y-194268418D01*
X29289444Y-194269162D01*
X29342127Y-194274827D01*
X32437872Y-194274826D01*
X32497483Y-194268418D01*
X32632331Y-194218123D01*
X32747546Y-194131873D01*
X32833796Y-194016658D01*
X32884091Y-193881810D01*
X32890500Y-193822200D01*
X32890499Y-193474350D01*
X32910183Y-193407314D01*
X32962987Y-193361559D01*
X33032146Y-193351615D01*
X33095701Y-193380640D01*
X33113766Y-193400043D01*
X33254254Y-193587714D01*
X33254270Y-193587732D01*
X33456594Y-193790056D01*
X33456612Y-193790072D01*
X33685682Y-193961551D01*
X33685690Y-193961556D01*
X33936833Y-194098691D01*
X33936832Y-194098691D01*
X33936836Y-194098692D01*
X33936839Y-194098694D01*
X34204954Y-194198696D01*
X34204960Y-194198697D01*
X34204962Y-194198698D01*
X34484566Y-194259522D01*
X34484568Y-194259522D01*
X34484572Y-194259523D01*
X34738220Y-194277664D01*
X34769999Y-194279937D01*
X34770000Y-194279937D01*
X34770001Y-194279937D01*
X34798595Y-194277891D01*
X35055428Y-194259523D01*
X35245742Y-194218123D01*
X35335037Y-194198698D01*
X35335037Y-194198697D01*
X35335046Y-194198696D01*
X35603161Y-194098694D01*
X35854315Y-193961553D01*
X36083395Y-193790066D01*
X36285739Y-193587722D01*
X36457226Y-193358642D01*
X36594367Y-193107488D01*
X36694369Y-192839373D01*
X36755196Y-192559755D01*
X36775610Y-192274327D01*
X36755196Y-191988899D01*
X36694369Y-191709281D01*
X36594367Y-191441166D01*
X36553682Y-191366658D01*
X36457229Y-191190017D01*
X36457224Y-191190009D01*
X36285745Y-190960939D01*
X36285729Y-190960921D01*
X36083405Y-190758597D01*
X36083387Y-190758581D01*
X35854317Y-190587102D01*
X35854309Y-190587097D01*
X35603166Y-190449962D01*
X35603154Y-190449957D01*
X35451166Y-190393267D01*
X35395232Y-190351396D01*
X35370816Y-190285931D01*
X35370500Y-190277086D01*
X35370500Y-184621566D01*
X35390185Y-184554527D01*
X35442989Y-184508772D01*
X35451147Y-184505391D01*
X35603161Y-184448694D01*
X35854315Y-184311553D01*
X36083395Y-184140066D01*
X36285739Y-183937722D01*
X36457226Y-183708642D01*
X36594367Y-183457488D01*
X36694369Y-183189373D01*
X36752026Y-182924327D01*
X36755195Y-182909760D01*
X36755195Y-182909759D01*
X36755196Y-182909755D01*
X36775610Y-182624327D01*
X36755196Y-182338899D01*
X36750227Y-182316059D01*
X36694371Y-182059289D01*
X36694370Y-182059287D01*
X36694369Y-182059281D01*
X36594367Y-181791166D01*
X36572248Y-181750659D01*
X36457229Y-181540017D01*
X36457224Y-181540009D01*
X36285745Y-181310939D01*
X36285729Y-181310921D01*
X36083405Y-181108597D01*
X36083387Y-181108581D01*
X35854317Y-180937102D01*
X35854309Y-180937097D01*
X35603166Y-180799962D01*
X35603154Y-180799957D01*
X35451166Y-180743267D01*
X35395232Y-180701396D01*
X35370816Y-180635931D01*
X35370500Y-180627086D01*
X35370500Y-175271566D01*
X35390185Y-175204527D01*
X35442989Y-175158772D01*
X35451147Y-175155391D01*
X35603161Y-175098694D01*
X35854315Y-174961553D01*
X36083395Y-174790066D01*
X36285739Y-174587722D01*
X36457226Y-174358642D01*
X36594367Y-174107488D01*
X36694369Y-173839373D01*
X36755196Y-173559755D01*
X36775610Y-173274327D01*
X36755196Y-172988899D01*
X36694369Y-172709281D01*
X36594367Y-172441166D01*
X36457226Y-172190012D01*
X36426234Y-172148611D01*
X36285745Y-171960939D01*
X36285729Y-171960921D01*
X36083405Y-171758597D01*
X36083387Y-171758581D01*
X36040481Y-171726462D01*
X38389500Y-171726462D01*
X38389500Y-174822197D01*
X38389501Y-174822203D01*
X38395908Y-174881810D01*
X38446202Y-175016655D01*
X38446206Y-175016662D01*
X38532452Y-175131871D01*
X38532455Y-175131874D01*
X38647664Y-175218120D01*
X38647671Y-175218124D01*
X38782517Y-175268418D01*
X38782516Y-175268418D01*
X38789444Y-175269162D01*
X38842127Y-175274827D01*
X39665500Y-175274826D01*
X39732539Y-175294510D01*
X39778294Y-175347314D01*
X39789500Y-175398826D01*
X39789500Y-180499827D01*
X39769815Y-180566866D01*
X39717011Y-180612621D01*
X39665500Y-180623827D01*
X38842129Y-180623827D01*
X38842123Y-180623828D01*
X38782516Y-180630235D01*
X38647671Y-180680529D01*
X38647664Y-180680533D01*
X38532455Y-180766779D01*
X38532452Y-180766782D01*
X38446206Y-180881991D01*
X38446202Y-180881998D01*
X38395908Y-181016844D01*
X38390540Y-181066779D01*
X38389501Y-181076450D01*
X38389500Y-181076462D01*
X38389500Y-184172197D01*
X38389501Y-184172203D01*
X38395908Y-184231810D01*
X38446202Y-184366655D01*
X38446206Y-184366662D01*
X38532452Y-184481871D01*
X38532455Y-184481874D01*
X38647664Y-184568120D01*
X38647671Y-184568124D01*
X38782517Y-184618418D01*
X38782516Y-184618418D01*
X38789444Y-184619162D01*
X38842127Y-184624827D01*
X39665500Y-184624826D01*
X39732539Y-184644510D01*
X39778294Y-184697314D01*
X39789500Y-184748826D01*
X39789500Y-190149827D01*
X39769815Y-190216866D01*
X39717011Y-190262621D01*
X39665500Y-190273827D01*
X38842129Y-190273827D01*
X38842123Y-190273828D01*
X38782516Y-190280235D01*
X38647671Y-190330529D01*
X38647664Y-190330533D01*
X38532455Y-190416779D01*
X38532452Y-190416782D01*
X38446206Y-190531991D01*
X38446202Y-190531998D01*
X38395908Y-190666844D01*
X38389501Y-190726443D01*
X38389501Y-190726450D01*
X38389500Y-190726462D01*
X38389500Y-193822197D01*
X38389501Y-193822203D01*
X38395908Y-193881810D01*
X38446202Y-194016655D01*
X38446206Y-194016662D01*
X38532452Y-194131871D01*
X38532455Y-194131874D01*
X38647664Y-194218120D01*
X38647671Y-194218124D01*
X38782517Y-194268418D01*
X38782516Y-194268418D01*
X38789444Y-194269162D01*
X38842127Y-194274827D01*
X41937872Y-194274826D01*
X41997483Y-194268418D01*
X42132331Y-194218123D01*
X42247546Y-194131873D01*
X42333796Y-194016658D01*
X42384091Y-193881810D01*
X42390500Y-193822200D01*
X42390499Y-193474350D01*
X42410183Y-193407314D01*
X42462987Y-193361559D01*
X42532146Y-193351615D01*
X42595701Y-193380640D01*
X42613766Y-193400043D01*
X42754254Y-193587714D01*
X42754270Y-193587732D01*
X42956594Y-193790056D01*
X42956612Y-193790072D01*
X43185682Y-193961551D01*
X43185690Y-193961556D01*
X43436833Y-194098691D01*
X43436832Y-194098691D01*
X43436836Y-194098692D01*
X43436839Y-194098694D01*
X43704954Y-194198696D01*
X43704960Y-194198697D01*
X43704962Y-194198698D01*
X43984566Y-194259522D01*
X43984568Y-194259522D01*
X43984572Y-194259523D01*
X44238220Y-194277664D01*
X44269999Y-194279937D01*
X44270000Y-194279937D01*
X44270001Y-194279937D01*
X44298595Y-194277891D01*
X44555428Y-194259523D01*
X44745742Y-194218123D01*
X44835037Y-194198698D01*
X44835037Y-194198697D01*
X44835046Y-194198696D01*
X45103161Y-194098694D01*
X45354315Y-193961553D01*
X45583395Y-193790066D01*
X45785739Y-193587722D01*
X45957226Y-193358642D01*
X46094367Y-193107488D01*
X46194369Y-192839373D01*
X46255196Y-192559755D01*
X46275610Y-192274327D01*
X46255196Y-191988899D01*
X46194369Y-191709281D01*
X46094367Y-191441166D01*
X46053682Y-191366658D01*
X45957229Y-191190017D01*
X45957224Y-191190009D01*
X45785745Y-190960939D01*
X45785729Y-190960921D01*
X45583405Y-190758597D01*
X45583387Y-190758581D01*
X45354317Y-190587102D01*
X45354309Y-190587097D01*
X45103166Y-190449962D01*
X45103154Y-190449957D01*
X44951166Y-190393267D01*
X44895232Y-190351396D01*
X44870816Y-190285931D01*
X44870500Y-190277086D01*
X44870500Y-184621566D01*
X44890185Y-184554527D01*
X44942989Y-184508772D01*
X44951147Y-184505391D01*
X45103161Y-184448694D01*
X45354315Y-184311553D01*
X45583395Y-184140066D01*
X45785739Y-183937722D01*
X45957226Y-183708642D01*
X46094367Y-183457488D01*
X46194369Y-183189373D01*
X46252026Y-182924327D01*
X46255195Y-182909760D01*
X46255195Y-182909759D01*
X46255196Y-182909755D01*
X46275610Y-182624327D01*
X46255196Y-182338899D01*
X46250227Y-182316059D01*
X46194371Y-182059289D01*
X46194370Y-182059287D01*
X46194369Y-182059281D01*
X46094367Y-181791166D01*
X46072248Y-181750659D01*
X45957229Y-181540017D01*
X45957224Y-181540009D01*
X45785745Y-181310939D01*
X45785729Y-181310921D01*
X45583405Y-181108597D01*
X45583387Y-181108581D01*
X45354317Y-180937102D01*
X45354309Y-180937097D01*
X45103166Y-180799962D01*
X45103154Y-180799957D01*
X44951166Y-180743267D01*
X44895232Y-180701396D01*
X44870816Y-180635931D01*
X44870500Y-180627086D01*
X44870500Y-175271566D01*
X44890185Y-175204527D01*
X44942989Y-175158772D01*
X44951147Y-175155391D01*
X45103161Y-175098694D01*
X45354315Y-174961553D01*
X45583395Y-174790066D01*
X45785739Y-174587722D01*
X45957226Y-174358642D01*
X46094367Y-174107488D01*
X46194369Y-173839373D01*
X46255196Y-173559755D01*
X46275610Y-173274327D01*
X46255196Y-172988899D01*
X46194369Y-172709281D01*
X46094367Y-172441166D01*
X45957226Y-172190012D01*
X45926234Y-172148611D01*
X45785745Y-171960939D01*
X45785729Y-171960921D01*
X45583405Y-171758597D01*
X45583387Y-171758581D01*
X45540481Y-171726462D01*
X47889500Y-171726462D01*
X47889500Y-174822197D01*
X47889501Y-174822203D01*
X47895908Y-174881810D01*
X47946202Y-175016655D01*
X47946206Y-175016662D01*
X48032452Y-175131871D01*
X48032455Y-175131874D01*
X48147664Y-175218120D01*
X48147671Y-175218124D01*
X48282517Y-175268418D01*
X48282516Y-175268418D01*
X48289444Y-175269162D01*
X48342127Y-175274827D01*
X49165500Y-175274826D01*
X49232539Y-175294510D01*
X49278294Y-175347314D01*
X49289500Y-175398826D01*
X49289500Y-180799827D01*
X49269815Y-180866866D01*
X49217011Y-180912621D01*
X49165500Y-180923827D01*
X48342129Y-180923827D01*
X48342123Y-180923828D01*
X48282516Y-180930235D01*
X48147671Y-180980529D01*
X48147664Y-180980533D01*
X48032455Y-181066779D01*
X48032452Y-181066782D01*
X47946206Y-181181991D01*
X47946202Y-181181998D01*
X47895908Y-181316844D01*
X47889501Y-181376443D01*
X47889501Y-181376450D01*
X47889500Y-181376462D01*
X47889500Y-184472197D01*
X47889501Y-184472203D01*
X47895908Y-184531810D01*
X47946202Y-184666655D01*
X47946206Y-184666662D01*
X48032452Y-184781871D01*
X48032455Y-184781874D01*
X48147664Y-184868120D01*
X48147671Y-184868124D01*
X48282517Y-184918418D01*
X48282516Y-184918418D01*
X48289444Y-184919162D01*
X48342127Y-184924827D01*
X49165500Y-184924826D01*
X49232539Y-184944510D01*
X49278294Y-184997314D01*
X49289500Y-185048826D01*
X49289500Y-190149827D01*
X49269815Y-190216866D01*
X49217011Y-190262621D01*
X49165500Y-190273827D01*
X48342129Y-190273827D01*
X48342123Y-190273828D01*
X48282516Y-190280235D01*
X48147671Y-190330529D01*
X48147664Y-190330533D01*
X48032455Y-190416779D01*
X48032452Y-190416782D01*
X47946206Y-190531991D01*
X47946202Y-190531998D01*
X47895908Y-190666844D01*
X47889501Y-190726443D01*
X47889501Y-190726450D01*
X47889500Y-190726462D01*
X47889500Y-193822197D01*
X47889501Y-193822203D01*
X47895908Y-193881810D01*
X47946202Y-194016655D01*
X47946206Y-194016662D01*
X48032452Y-194131871D01*
X48032455Y-194131874D01*
X48147664Y-194218120D01*
X48147671Y-194218124D01*
X48282517Y-194268418D01*
X48282516Y-194268418D01*
X48289444Y-194269162D01*
X48342127Y-194274827D01*
X51437872Y-194274826D01*
X51497483Y-194268418D01*
X51632331Y-194218123D01*
X51747546Y-194131873D01*
X51833796Y-194016658D01*
X51884091Y-193881810D01*
X51890500Y-193822200D01*
X51890499Y-193474350D01*
X51910183Y-193407314D01*
X51962987Y-193361559D01*
X52032146Y-193351615D01*
X52095701Y-193380640D01*
X52113766Y-193400043D01*
X52254254Y-193587714D01*
X52254270Y-193587732D01*
X52456594Y-193790056D01*
X52456612Y-193790072D01*
X52685682Y-193961551D01*
X52685690Y-193961556D01*
X52936833Y-194098691D01*
X52936832Y-194098691D01*
X52936836Y-194098692D01*
X52936839Y-194098694D01*
X53204954Y-194198696D01*
X53204960Y-194198697D01*
X53204962Y-194198698D01*
X53484566Y-194259522D01*
X53484568Y-194259522D01*
X53484572Y-194259523D01*
X53738220Y-194277664D01*
X53769999Y-194279937D01*
X53770000Y-194279937D01*
X53770001Y-194279937D01*
X53798595Y-194277891D01*
X54055428Y-194259523D01*
X54245742Y-194218123D01*
X54335037Y-194198698D01*
X54335037Y-194198697D01*
X54335046Y-194198696D01*
X54603161Y-194098694D01*
X54854315Y-193961553D01*
X55083395Y-193790066D01*
X55285739Y-193587722D01*
X55457226Y-193358642D01*
X55594367Y-193107488D01*
X55694369Y-192839373D01*
X55755196Y-192559755D01*
X55775610Y-192274327D01*
X55755196Y-191988899D01*
X55694369Y-191709281D01*
X55594367Y-191441166D01*
X55553682Y-191366658D01*
X55457229Y-191190017D01*
X55457224Y-191190009D01*
X55285745Y-190960939D01*
X55285729Y-190960921D01*
X55083405Y-190758597D01*
X55083387Y-190758581D01*
X54854317Y-190587102D01*
X54854309Y-190587097D01*
X54603166Y-190449962D01*
X54603154Y-190449957D01*
X54451166Y-190393267D01*
X54395232Y-190351396D01*
X54370816Y-190285931D01*
X54370500Y-190277086D01*
X54370500Y-184921566D01*
X54390185Y-184854527D01*
X54442989Y-184808772D01*
X54451147Y-184805391D01*
X54603161Y-184748694D01*
X54854315Y-184611553D01*
X55083395Y-184440066D01*
X55285739Y-184237722D01*
X55457226Y-184008642D01*
X55594367Y-183757488D01*
X55694369Y-183489373D01*
X55755196Y-183209755D01*
X55775610Y-182924327D01*
X55755196Y-182638899D01*
X55752026Y-182624328D01*
X55694371Y-182359289D01*
X55694370Y-182359287D01*
X55694369Y-182359281D01*
X55594367Y-182091166D01*
X55576956Y-182059281D01*
X55457229Y-181840017D01*
X55457224Y-181840009D01*
X55285745Y-181610939D01*
X55285729Y-181610921D01*
X55083405Y-181408597D01*
X55083387Y-181408581D01*
X54854317Y-181237102D01*
X54854309Y-181237097D01*
X54603166Y-181099962D01*
X54603154Y-181099957D01*
X54451166Y-181043267D01*
X54395232Y-181001396D01*
X54370816Y-180935931D01*
X54370500Y-180927086D01*
X54370500Y-175271566D01*
X54390185Y-175204527D01*
X54442989Y-175158772D01*
X54451147Y-175155391D01*
X54603161Y-175098694D01*
X54854315Y-174961553D01*
X55083395Y-174790066D01*
X55285739Y-174587722D01*
X55457226Y-174358642D01*
X55594367Y-174107488D01*
X55694369Y-173839373D01*
X55755196Y-173559755D01*
X55775610Y-173274327D01*
X55755196Y-172988899D01*
X55694369Y-172709281D01*
X55594367Y-172441166D01*
X55457226Y-172190012D01*
X55426234Y-172148611D01*
X55285745Y-171960939D01*
X55285729Y-171960921D01*
X55083405Y-171758597D01*
X55083387Y-171758581D01*
X54854317Y-171587102D01*
X54854309Y-171587097D01*
X54603166Y-171449962D01*
X54603167Y-171449962D01*
X54495915Y-171409959D01*
X54335046Y-171349958D01*
X54335043Y-171349957D01*
X54335037Y-171349955D01*
X54055433Y-171289131D01*
X53770001Y-171268717D01*
X53769999Y-171268717D01*
X53484566Y-171289131D01*
X53204962Y-171349955D01*
X52936833Y-171449962D01*
X52685690Y-171587097D01*
X52685682Y-171587102D01*
X52456612Y-171758581D01*
X52456594Y-171758597D01*
X52254270Y-171960921D01*
X52254254Y-171960939D01*
X52113766Y-172148611D01*
X52057833Y-172190483D01*
X51988141Y-172195467D01*
X51926818Y-172161982D01*
X51893333Y-172100659D01*
X51890499Y-172074301D01*
X51890499Y-171726456D01*
X51890498Y-171726450D01*
X51890497Y-171726443D01*
X51884091Y-171666844D01*
X51854347Y-171587097D01*
X51833797Y-171531998D01*
X51833793Y-171531991D01*
X51747547Y-171416782D01*
X51747544Y-171416779D01*
X51632335Y-171330533D01*
X51632328Y-171330529D01*
X51497482Y-171280235D01*
X51497483Y-171280235D01*
X51437883Y-171273828D01*
X51437881Y-171273827D01*
X51437873Y-171273827D01*
X51437864Y-171273827D01*
X48342129Y-171273827D01*
X48342123Y-171273828D01*
X48282516Y-171280235D01*
X48147671Y-171330529D01*
X48147664Y-171330533D01*
X48032455Y-171416779D01*
X48032452Y-171416782D01*
X47946206Y-171531991D01*
X47946202Y-171531998D01*
X47895908Y-171666844D01*
X47889501Y-171726443D01*
X47889501Y-171726450D01*
X47889500Y-171726462D01*
X45540481Y-171726462D01*
X45354317Y-171587102D01*
X45354309Y-171587097D01*
X45103166Y-171449962D01*
X45103167Y-171449962D01*
X44995915Y-171409959D01*
X44835046Y-171349958D01*
X44835043Y-171349957D01*
X44835037Y-171349955D01*
X44555433Y-171289131D01*
X44270001Y-171268717D01*
X44269999Y-171268717D01*
X43984566Y-171289131D01*
X43704962Y-171349955D01*
X43436833Y-171449962D01*
X43185690Y-171587097D01*
X43185682Y-171587102D01*
X42956612Y-171758581D01*
X42956594Y-171758597D01*
X42754270Y-171960921D01*
X42754254Y-171960939D01*
X42613766Y-172148611D01*
X42557833Y-172190483D01*
X42488141Y-172195467D01*
X42426818Y-172161982D01*
X42393333Y-172100659D01*
X42390499Y-172074301D01*
X42390499Y-171726456D01*
X42390498Y-171726450D01*
X42390497Y-171726443D01*
X42384091Y-171666844D01*
X42354347Y-171587097D01*
X42333797Y-171531998D01*
X42333793Y-171531991D01*
X42247547Y-171416782D01*
X42247544Y-171416779D01*
X42132335Y-171330533D01*
X42132328Y-171330529D01*
X41997482Y-171280235D01*
X41997483Y-171280235D01*
X41937883Y-171273828D01*
X41937881Y-171273827D01*
X41937873Y-171273827D01*
X41937864Y-171273827D01*
X38842129Y-171273827D01*
X38842123Y-171273828D01*
X38782516Y-171280235D01*
X38647671Y-171330529D01*
X38647664Y-171330533D01*
X38532455Y-171416779D01*
X38532452Y-171416782D01*
X38446206Y-171531991D01*
X38446202Y-171531998D01*
X38395908Y-171666844D01*
X38389501Y-171726443D01*
X38389501Y-171726450D01*
X38389500Y-171726462D01*
X36040481Y-171726462D01*
X35854317Y-171587102D01*
X35854309Y-171587097D01*
X35603166Y-171449962D01*
X35603167Y-171449962D01*
X35495915Y-171409959D01*
X35335046Y-171349958D01*
X35335043Y-171349957D01*
X35335037Y-171349955D01*
X35055433Y-171289131D01*
X34770001Y-171268717D01*
X34769999Y-171268717D01*
X34484566Y-171289131D01*
X34204962Y-171349955D01*
X33936833Y-171449962D01*
X33685690Y-171587097D01*
X33685682Y-171587102D01*
X33456612Y-171758581D01*
X33456594Y-171758597D01*
X33254270Y-171960921D01*
X33254254Y-171960939D01*
X33113766Y-172148611D01*
X33057833Y-172190483D01*
X32988141Y-172195467D01*
X32926818Y-172161982D01*
X32893333Y-172100659D01*
X32890499Y-172074301D01*
X32890499Y-171726456D01*
X32890498Y-171726450D01*
X32890497Y-171726443D01*
X32884091Y-171666844D01*
X32854347Y-171587097D01*
X32833797Y-171531998D01*
X32833793Y-171531991D01*
X32747547Y-171416782D01*
X32747544Y-171416779D01*
X32632335Y-171330533D01*
X32632328Y-171330529D01*
X32497482Y-171280235D01*
X32497483Y-171280235D01*
X32437883Y-171273828D01*
X32437881Y-171273827D01*
X32437873Y-171273827D01*
X32437865Y-171273827D01*
X29419095Y-171273827D01*
X29352056Y-171254142D01*
X29306301Y-171201338D01*
X29296357Y-171132180D01*
X29325382Y-171068624D01*
X29331389Y-171062172D01*
X32092416Y-168301146D01*
X32153739Y-168267661D01*
X32180097Y-168264827D01*
X46293331Y-168264827D01*
X46293347Y-168264828D01*
X46300943Y-168264828D01*
X46459054Y-168264828D01*
X46459057Y-168264828D01*
X46611785Y-168223904D01*
X46661904Y-168194966D01*
X46748716Y-168144847D01*
X46860520Y-168033043D01*
X46860520Y-168033041D01*
X46870728Y-168022834D01*
X46870730Y-168022831D01*
X48799239Y-166094322D01*
X52385037Y-166094322D01*
X52385037Y-166094331D01*
X52404860Y-166358862D01*
X52404861Y-166358867D01*
X52463890Y-166617493D01*
X52463896Y-166617512D01*
X52560814Y-166864455D01*
X52560813Y-166864455D01*
X52693457Y-167094198D01*
X52743642Y-167157130D01*
X52743643Y-167157130D01*
X53677037Y-166223736D01*
X53694075Y-166287320D01*
X53759901Y-166401334D01*
X53852993Y-166494426D01*
X53967007Y-166560252D01*
X54030590Y-166577289D01*
X53096438Y-167511439D01*
X53272525Y-167631493D01*
X53272526Y-167631494D01*
X53511530Y-167746591D01*
X53511528Y-167746591D01*
X53765025Y-167824785D01*
X53765031Y-167824786D01*
X54027351Y-167864326D01*
X54027358Y-167864327D01*
X54292642Y-167864327D01*
X54292648Y-167864326D01*
X54554968Y-167824786D01*
X54554974Y-167824785D01*
X54808470Y-167746591D01*
X55047479Y-167631491D01*
X55223560Y-167511439D01*
X54289409Y-166577289D01*
X54352993Y-166560252D01*
X54467007Y-166494426D01*
X54560099Y-166401334D01*
X54625925Y-166287320D01*
X54642962Y-166223736D01*
X55576355Y-167157130D01*
X55576356Y-167157129D01*
X55626545Y-167094196D01*
X55759185Y-166864455D01*
X55856103Y-166617512D01*
X55856109Y-166617493D01*
X55915138Y-166358867D01*
X55915139Y-166358862D01*
X55934963Y-166094331D01*
X55934963Y-166094322D01*
X55915139Y-165829791D01*
X55915138Y-165829786D01*
X55856109Y-165571160D01*
X55856103Y-165571141D01*
X55759185Y-165324198D01*
X55759186Y-165324198D01*
X55626543Y-165094456D01*
X55626536Y-165094445D01*
X55576356Y-165031523D01*
X55576355Y-165031522D01*
X54642962Y-165964916D01*
X54625925Y-165901334D01*
X54560099Y-165787320D01*
X54467007Y-165694228D01*
X54352993Y-165628402D01*
X54289410Y-165611364D01*
X55223560Y-164677213D01*
X55047484Y-164557166D01*
X55047474Y-164557159D01*
X54808469Y-164442062D01*
X54808471Y-164442062D01*
X54554974Y-164363868D01*
X54554968Y-164363867D01*
X54292648Y-164324327D01*
X54027351Y-164324327D01*
X53765031Y-164363867D01*
X53765025Y-164363868D01*
X53511529Y-164442062D01*
X53272526Y-164557159D01*
X53272518Y-164557164D01*
X53096438Y-164677213D01*
X54030590Y-165611364D01*
X53967007Y-165628402D01*
X53852993Y-165694228D01*
X53759901Y-165787320D01*
X53694075Y-165901334D01*
X53677037Y-165964917D01*
X52743643Y-165031523D01*
X52693456Y-165094455D01*
X52560814Y-165324198D01*
X52463896Y-165571141D01*
X52463890Y-165571160D01*
X52404861Y-165829786D01*
X52404860Y-165829791D01*
X52385037Y-166094322D01*
X48799239Y-166094322D01*
X49638713Y-165254848D01*
X49638716Y-165254847D01*
X49750520Y-165143043D01*
X49800639Y-165056231D01*
X49829577Y-165006112D01*
X49870500Y-164853385D01*
X49870500Y-164695270D01*
X49870500Y-138433386D01*
X49870501Y-138433373D01*
X49870501Y-138265272D01*
X49870501Y-138265270D01*
X49829577Y-138112542D01*
X49800639Y-138062422D01*
X49750520Y-137975611D01*
X49638716Y-137863807D01*
X49638715Y-137863806D01*
X49634385Y-137859476D01*
X49634374Y-137859466D01*
X38042667Y-126267759D01*
X38009182Y-126206436D01*
X38014166Y-126136744D01*
X38014920Y-126134776D01*
X38028015Y-126101410D01*
X38076586Y-125977654D01*
X38135635Y-125718946D01*
X38135642Y-125718862D01*
X38155465Y-125454329D01*
X38155465Y-125454322D01*
X52385037Y-125454322D01*
X52385037Y-125454329D01*
X52404860Y-125718862D01*
X52404861Y-125718867D01*
X52463890Y-125977493D01*
X52463896Y-125977512D01*
X52560814Y-126224455D01*
X52560813Y-126224455D01*
X52693457Y-126454198D01*
X52743642Y-126517130D01*
X52743643Y-126517130D01*
X53677037Y-125583736D01*
X53694075Y-125647320D01*
X53759901Y-125761334D01*
X53852993Y-125854426D01*
X53967007Y-125920252D01*
X54030590Y-125937289D01*
X53096438Y-126871439D01*
X53272525Y-126991493D01*
X53272526Y-126991494D01*
X53511530Y-127106591D01*
X53511528Y-127106591D01*
X53765025Y-127184785D01*
X53765031Y-127184786D01*
X54027351Y-127224326D01*
X54027358Y-127224327D01*
X54292642Y-127224327D01*
X54292648Y-127224326D01*
X54554968Y-127184786D01*
X54554974Y-127184785D01*
X54808470Y-127106591D01*
X55047479Y-126991491D01*
X55223560Y-126871439D01*
X54289409Y-125937289D01*
X54352993Y-125920252D01*
X54467007Y-125854426D01*
X54560099Y-125761334D01*
X54625925Y-125647320D01*
X54642962Y-125583736D01*
X55576355Y-126517130D01*
X55576356Y-126517129D01*
X55626545Y-126454196D01*
X55759185Y-126224455D01*
X55856103Y-125977512D01*
X55856109Y-125977493D01*
X55915138Y-125718867D01*
X55915139Y-125718862D01*
X55934963Y-125454329D01*
X55934963Y-125454322D01*
X55915139Y-125189791D01*
X55915138Y-125189786D01*
X55856109Y-124931160D01*
X55856103Y-124931141D01*
X55759185Y-124684198D01*
X55759186Y-124684198D01*
X55626543Y-124454456D01*
X55626536Y-124454445D01*
X55576356Y-124391523D01*
X55576355Y-124391522D01*
X54642962Y-125324916D01*
X54625925Y-125261334D01*
X54560099Y-125147320D01*
X54467007Y-125054228D01*
X54352993Y-124988402D01*
X54289410Y-124971364D01*
X55223560Y-124037213D01*
X55047484Y-123917166D01*
X55047474Y-123917159D01*
X54808469Y-123802062D01*
X54808471Y-123802062D01*
X54554974Y-123723868D01*
X54554968Y-123723867D01*
X54292648Y-123684327D01*
X54027351Y-123684327D01*
X53765031Y-123723867D01*
X53765025Y-123723868D01*
X53511529Y-123802062D01*
X53272526Y-123917159D01*
X53272518Y-123917164D01*
X53096438Y-124037213D01*
X54030590Y-124971364D01*
X53967007Y-124988402D01*
X53852993Y-125054228D01*
X53759901Y-125147320D01*
X53694075Y-125261334D01*
X53677037Y-125324917D01*
X52743643Y-124391523D01*
X52693456Y-124454455D01*
X52560814Y-124684198D01*
X52463896Y-124931141D01*
X52463890Y-124931160D01*
X52404861Y-125189786D01*
X52404860Y-125189791D01*
X52385037Y-125454322D01*
X38155465Y-125454322D01*
X38135636Y-125189717D01*
X38135635Y-125189712D01*
X38135635Y-125189708D01*
X38076586Y-124931000D01*
X37979639Y-124683982D01*
X37846958Y-124454172D01*
X37681508Y-124246704D01*
X37486984Y-124066213D01*
X37267733Y-123916729D01*
X37267732Y-123916728D01*
X37267725Y-123916724D01*
X37028655Y-123801595D01*
X37028636Y-123801588D01*
X36775083Y-123723378D01*
X36775073Y-123723375D01*
X36512688Y-123683827D01*
X36512681Y-123683827D01*
X36247319Y-123683827D01*
X36247311Y-123683827D01*
X35984926Y-123723375D01*
X35984916Y-123723378D01*
X35731363Y-123801588D01*
X35731344Y-123801595D01*
X35492276Y-123916724D01*
X35492274Y-123916725D01*
X35273015Y-124066213D01*
X35078494Y-124246702D01*
X35078492Y-124246704D01*
X34913042Y-124454172D01*
X34780361Y-124683981D01*
X34683416Y-124930994D01*
X34683410Y-124931013D01*
X34624364Y-125189712D01*
X34624363Y-125189717D01*
X34604535Y-125454322D01*
X34604535Y-125454329D01*
X34624363Y-125718936D01*
X34624364Y-125718941D01*
X34683410Y-125977640D01*
X34683412Y-125977647D01*
X34683414Y-125977654D01*
X34693961Y-126004528D01*
X34700129Y-126074122D01*
X34667691Y-126136005D01*
X34606945Y-126170528D01*
X34578532Y-126173827D01*
X31148828Y-126173827D01*
X31081789Y-126154142D01*
X31038434Y-126104108D01*
X31037670Y-126104498D01*
X31036096Y-126101410D01*
X31036034Y-126101338D01*
X31035881Y-126100988D01*
X31035458Y-126100157D01*
X30937880Y-125908649D01*
X30811545Y-125734764D01*
X30659563Y-125582782D01*
X30485678Y-125456447D01*
X30481507Y-125454322D01*
X30294170Y-125358868D01*
X30294167Y-125358867D01*
X30089757Y-125292451D01*
X29948229Y-125270035D01*
X29877467Y-125258827D01*
X29662533Y-125258827D01*
X29591770Y-125270035D01*
X29450243Y-125292451D01*
X29450240Y-125292451D01*
X29245832Y-125358867D01*
X29245829Y-125358868D01*
X29054321Y-125456447D01*
X28970981Y-125516998D01*
X28880437Y-125582782D01*
X28880435Y-125582784D01*
X28880434Y-125582784D01*
X28728457Y-125734761D01*
X28728457Y-125734762D01*
X28728455Y-125734764D01*
X28709151Y-125761334D01*
X28600009Y-125911554D01*
X28544679Y-125954219D01*
X28475065Y-125960198D01*
X28413270Y-125927592D01*
X28399373Y-125911554D01*
X28271161Y-125735086D01*
X28119240Y-125583165D01*
X27945416Y-125456874D01*
X27753975Y-125359330D01*
X27549635Y-125292937D01*
X27549636Y-125292937D01*
X27480000Y-125281908D01*
X27480000Y-126329766D01*
X27426853Y-126299082D01*
X27297143Y-126264327D01*
X27162857Y-126264327D01*
X27033147Y-126299082D01*
X26980000Y-126329766D01*
X26980000Y-125281908D01*
X26910364Y-125292937D01*
X26706024Y-125359330D01*
X26514583Y-125456874D01*
X26340763Y-125583162D01*
X26246102Y-125677823D01*
X26184778Y-125711307D01*
X26115087Y-125706323D01*
X26059154Y-125664451D01*
X26042239Y-125633473D01*
X25998798Y-125517000D01*
X25998793Y-125516991D01*
X25912547Y-125401782D01*
X25912544Y-125401779D01*
X25797335Y-125315533D01*
X25797328Y-125315529D01*
X25662482Y-125265235D01*
X25662483Y-125265235D01*
X25602883Y-125258828D01*
X25602881Y-125258827D01*
X25602873Y-125258827D01*
X25602864Y-125258827D01*
X23777129Y-125258827D01*
X23777123Y-125258828D01*
X23717516Y-125265235D01*
X23582671Y-125315529D01*
X23582664Y-125315533D01*
X23467455Y-125401779D01*
X23467452Y-125401782D01*
X23381206Y-125516991D01*
X23381202Y-125516998D01*
X23330908Y-125651844D01*
X23324501Y-125711443D01*
X23324500Y-125711462D01*
X23324500Y-127837197D01*
X23324501Y-127837203D01*
X23330908Y-127896810D01*
X23381202Y-128031655D01*
X23381206Y-128031662D01*
X23467452Y-128146871D01*
X23467455Y-128146874D01*
X23582664Y-128233120D01*
X23582671Y-128233124D01*
X23717517Y-128283418D01*
X23717516Y-128283418D01*
X23724444Y-128284162D01*
X23777127Y-128289827D01*
X25384902Y-128289826D01*
X25451941Y-128309511D01*
X25472583Y-128326145D01*
X30241709Y-133095271D01*
X30275194Y-133156594D01*
X30270210Y-133226286D01*
X30228338Y-133282219D01*
X30162874Y-133306636D01*
X30115712Y-133300884D01*
X30089756Y-133292451D01*
X29983611Y-133275639D01*
X29877467Y-133258827D01*
X29662533Y-133258827D01*
X29591770Y-133270035D01*
X29450243Y-133292451D01*
X29450240Y-133292451D01*
X29245832Y-133358867D01*
X29245829Y-133358868D01*
X29054321Y-133456447D01*
X28970657Y-133517233D01*
X28880437Y-133582782D01*
X28880435Y-133582784D01*
X28880434Y-133582784D01*
X28728457Y-133734761D01*
X28728457Y-133734762D01*
X28728455Y-133734764D01*
X28631023Y-133868866D01*
X28600318Y-133911129D01*
X28544988Y-133953794D01*
X28475374Y-133959773D01*
X28413579Y-133927167D01*
X28399682Y-133911129D01*
X28386836Y-133893448D01*
X28271545Y-133734764D01*
X28119563Y-133582782D01*
X27945678Y-133456447D01*
X27754170Y-133358868D01*
X27754167Y-133358867D01*
X27549757Y-133292451D01*
X27408229Y-133270035D01*
X27337467Y-133258827D01*
X27122533Y-133258827D01*
X27051770Y-133270035D01*
X26910243Y-133292451D01*
X26910240Y-133292451D01*
X26705832Y-133358867D01*
X26705829Y-133358868D01*
X26514321Y-133456447D01*
X26340438Y-133582781D01*
X26245522Y-133677697D01*
X26184198Y-133711181D01*
X26114507Y-133706197D01*
X26058574Y-133664325D01*
X26041659Y-133633348D01*
X25998354Y-133517240D01*
X25998350Y-133517233D01*
X25912190Y-133402139D01*
X25912187Y-133402136D01*
X25797093Y-133315976D01*
X25797086Y-133315972D01*
X25662379Y-133265730D01*
X25662372Y-133265728D01*
X25602844Y-133259327D01*
X24940000Y-133259327D01*
X24940000Y-134329766D01*
X24886853Y-134299082D01*
X24757143Y-134264327D01*
X24622857Y-134264327D01*
X24493147Y-134299082D01*
X24440000Y-134329766D01*
X24440000Y-133259327D01*
X23777155Y-133259327D01*
X23717627Y-133265728D01*
X23717620Y-133265730D01*
X23582913Y-133315972D01*
X23582906Y-133315976D01*
X23467812Y-133402136D01*
X23467809Y-133402139D01*
X23381649Y-133517233D01*
X23381645Y-133517240D01*
X23331403Y-133651947D01*
X23331401Y-133651954D01*
X23325000Y-133711482D01*
X23325000Y-134524327D01*
X24245440Y-134524327D01*
X24214755Y-134577474D01*
X24180000Y-134707184D01*
X24180000Y-134841470D01*
X24214755Y-134971180D01*
X24245440Y-135024327D01*
X23325000Y-135024327D01*
X23325000Y-135549827D01*
X23305315Y-135616866D01*
X23252511Y-135662621D01*
X23201000Y-135673827D01*
X21070097Y-135673827D01*
X21003058Y-135654142D01*
X20982416Y-135637508D01*
X20156818Y-134811910D01*
X20123333Y-134750587D01*
X20120499Y-134724229D01*
X20120499Y-133376456D01*
X20120498Y-133376450D01*
X20120497Y-133376443D01*
X20114091Y-133316844D01*
X20113767Y-133315976D01*
X20063797Y-133181998D01*
X20063793Y-133181991D01*
X19977547Y-133066782D01*
X19977544Y-133066779D01*
X19862335Y-132980533D01*
X19862328Y-132980529D01*
X19727482Y-132930235D01*
X19727483Y-132930235D01*
X19667883Y-132923828D01*
X19667881Y-132923827D01*
X19667873Y-132923827D01*
X19667864Y-132923827D01*
X17872129Y-132923827D01*
X17872123Y-132923828D01*
X17812516Y-132930235D01*
X17677671Y-132980529D01*
X17677664Y-132980533D01*
X17562455Y-133066779D01*
X17562452Y-133066782D01*
X17476206Y-133181991D01*
X17476202Y-133181998D01*
X17425908Y-133316844D01*
X17419501Y-133376443D01*
X17419501Y-133376450D01*
X17419500Y-133376462D01*
X17419500Y-135172197D01*
X17419501Y-135172203D01*
X17425908Y-135231810D01*
X17476202Y-135366655D01*
X17476206Y-135366662D01*
X17562452Y-135481871D01*
X17562455Y-135481874D01*
X17677664Y-135568120D01*
X17677671Y-135568124D01*
X17809081Y-135617137D01*
X17865015Y-135659008D01*
X17889432Y-135724472D01*
X17874580Y-135792745D01*
X17853430Y-135821000D01*
X17731503Y-135942927D01*
X17595965Y-136136496D01*
X17595964Y-136136498D01*
X17496098Y-136350662D01*
X17496094Y-136350671D01*
X17434938Y-136578913D01*
X17434936Y-136578923D01*
X17414341Y-136814326D01*
X17414341Y-136814327D01*
X17434936Y-137049730D01*
X17434938Y-137049740D01*
X17496094Y-137277982D01*
X17496096Y-137277986D01*
X17496097Y-137277990D01*
X17595965Y-137492157D01*
X17595967Y-137492161D01*
X17731501Y-137685722D01*
X17731506Y-137685729D01*
X17898597Y-137852820D01*
X17898603Y-137852825D01*
X18084158Y-137982752D01*
X18127783Y-138037329D01*
X18134977Y-138106827D01*
X18103454Y-138169182D01*
X18084158Y-138185902D01*
X17898597Y-138315832D01*
X17731505Y-138482924D01*
X17595965Y-138676496D01*
X17595964Y-138676498D01*
X17496098Y-138890662D01*
X17496094Y-138890671D01*
X17434938Y-139118913D01*
X17434936Y-139118923D01*
X17414341Y-139354326D01*
X17414341Y-139354327D01*
X17434936Y-139589730D01*
X17434938Y-139589740D01*
X17452421Y-139654988D01*
X17450758Y-139724838D01*
X17420327Y-139774762D01*
X12482181Y-144712909D01*
X12420858Y-144746394D01*
X12351166Y-144741410D01*
X12295233Y-144699538D01*
X12270816Y-144634074D01*
X12270500Y-144625228D01*
X12270500Y-122898827D01*
X12290185Y-122831788D01*
X12342989Y-122786033D01*
X12394500Y-122774827D01*
X56645500Y-122774827D01*
X56712539Y-122794512D01*
G37*
%TD.AperFunction*%
%TA.AperFunction,Conductor*%
G36*
X14075703Y-178429711D02*
G01*
X14082181Y-178435743D01*
X15403422Y-179756984D01*
X15436907Y-179818307D01*
X15435593Y-179873535D01*
X15435878Y-179873586D01*
X15435547Y-179875459D01*
X15435517Y-179876752D01*
X15434940Y-179878905D01*
X15434936Y-179878924D01*
X15414341Y-180114326D01*
X15414341Y-180114327D01*
X15434936Y-180349730D01*
X15434938Y-180349740D01*
X15496094Y-180577982D01*
X15496096Y-180577986D01*
X15496097Y-180577990D01*
X15559138Y-180713181D01*
X15595965Y-180792157D01*
X15595967Y-180792161D01*
X15658871Y-180881996D01*
X15727867Y-180980533D01*
X15731501Y-180985722D01*
X15731506Y-180985729D01*
X15898597Y-181152820D01*
X15898603Y-181152825D01*
X16084158Y-181282752D01*
X16127783Y-181337329D01*
X16134977Y-181406827D01*
X16103454Y-181469182D01*
X16084158Y-181485902D01*
X15898597Y-181615832D01*
X15731505Y-181782924D01*
X15595965Y-181976496D01*
X15595964Y-181976498D01*
X15496098Y-182190662D01*
X15496094Y-182190671D01*
X15434938Y-182418913D01*
X15434936Y-182418923D01*
X15414341Y-182654326D01*
X15414341Y-182654327D01*
X15434936Y-182889730D01*
X15434938Y-182889740D01*
X15496094Y-183117982D01*
X15496096Y-183117986D01*
X15496097Y-183117990D01*
X15529384Y-183189373D01*
X15595965Y-183332157D01*
X15595967Y-183332161D01*
X15731501Y-183525722D01*
X15731506Y-183525729D01*
X15898597Y-183692820D01*
X15898603Y-183692825D01*
X16084594Y-183823057D01*
X16128219Y-183877634D01*
X16135413Y-183947132D01*
X16103890Y-184009487D01*
X16084595Y-184026207D01*
X15898922Y-184156217D01*
X15898920Y-184156218D01*
X15731891Y-184323247D01*
X15731886Y-184323253D01*
X15596400Y-184516747D01*
X15596399Y-184516749D01*
X15496570Y-184730834D01*
X15496567Y-184730840D01*
X15439364Y-184944326D01*
X15439364Y-184944327D01*
X16336988Y-184944327D01*
X16304075Y-185001334D01*
X16270000Y-185128501D01*
X16270000Y-185260153D01*
X16304075Y-185387320D01*
X16336988Y-185444327D01*
X15439364Y-185444327D01*
X15496567Y-185657813D01*
X15496570Y-185657819D01*
X15596399Y-185871905D01*
X15731894Y-186065409D01*
X15898917Y-186232432D01*
X16084595Y-186362446D01*
X16128219Y-186417023D01*
X16135412Y-186486522D01*
X16103890Y-186548876D01*
X16084595Y-186565596D01*
X15898594Y-186695835D01*
X15731505Y-186862924D01*
X15600600Y-187049878D01*
X15546023Y-187093503D01*
X15476525Y-187100697D01*
X15414170Y-187069174D01*
X15411344Y-187066436D01*
X13906819Y-185561911D01*
X13873334Y-185500588D01*
X13870500Y-185474230D01*
X13870500Y-178523424D01*
X13890185Y-178456385D01*
X13942989Y-178410630D01*
X14012147Y-178400686D01*
X14075703Y-178429711D01*
G37*
%TD.AperFunction*%
%TA.AperFunction,Conductor*%
G36*
X37186969Y-127111270D02*
G01*
X37195379Y-127118941D01*
X48633181Y-138556743D01*
X48666666Y-138618066D01*
X48669500Y-138644424D01*
X48669500Y-164474230D01*
X48649815Y-164541269D01*
X48633181Y-164561911D01*
X46167584Y-167027508D01*
X46106261Y-167060993D01*
X46079903Y-167063827D01*
X38274500Y-167063827D01*
X38207461Y-167044142D01*
X38161706Y-166991338D01*
X38150500Y-166939827D01*
X38150499Y-164776456D01*
X38150498Y-164776450D01*
X38150497Y-164776443D01*
X38144091Y-164716844D01*
X38136044Y-164695270D01*
X38093797Y-164581998D01*
X38093793Y-164581991D01*
X38007547Y-164466782D01*
X38007544Y-164466779D01*
X37892335Y-164380533D01*
X37892328Y-164380529D01*
X37757482Y-164330235D01*
X37757483Y-164330235D01*
X37697883Y-164323828D01*
X37697881Y-164323827D01*
X37697873Y-164323827D01*
X37697864Y-164323827D01*
X35062129Y-164323827D01*
X35062123Y-164323828D01*
X35002516Y-164330235D01*
X34867671Y-164380529D01*
X34867664Y-164380533D01*
X34752455Y-164466779D01*
X34752452Y-164466782D01*
X34666206Y-164581991D01*
X34666202Y-164581998D01*
X34615908Y-164716844D01*
X34609501Y-164776443D01*
X34609500Y-164776454D01*
X34609500Y-165901334D01*
X34609501Y-166939827D01*
X34589816Y-167006866D01*
X34537013Y-167052621D01*
X34485501Y-167063827D01*
X31966669Y-167063827D01*
X31966653Y-167063826D01*
X31959057Y-167063826D01*
X31800943Y-167063826D01*
X31693587Y-167092592D01*
X31648210Y-167104751D01*
X31648209Y-167104752D01*
X31598096Y-167133686D01*
X31598095Y-167133687D01*
X31557492Y-167157129D01*
X31511285Y-167183806D01*
X31511282Y-167183808D01*
X31399478Y-167295613D01*
X18322926Y-180372164D01*
X18261603Y-180405649D01*
X18191911Y-180400665D01*
X18135978Y-180358793D01*
X18111561Y-180293329D01*
X18111716Y-180273681D01*
X18125659Y-180114327D01*
X18105063Y-179878919D01*
X18043903Y-179650664D01*
X17944035Y-179436498D01*
X17808495Y-179242926D01*
X17808494Y-179242924D01*
X17641402Y-179075833D01*
X17641396Y-179075828D01*
X17455842Y-178945902D01*
X17412217Y-178891325D01*
X17405023Y-178821827D01*
X17436546Y-178759472D01*
X17455842Y-178742752D01*
X17478026Y-178727218D01*
X17641401Y-178612822D01*
X17808495Y-178445728D01*
X17944035Y-178252157D01*
X18043903Y-178037990D01*
X18105063Y-177809735D01*
X18125659Y-177574327D01*
X18105063Y-177338919D01*
X18043903Y-177110664D01*
X17944035Y-176896498D01*
X17808495Y-176702926D01*
X17808494Y-176702924D01*
X17641402Y-176535833D01*
X17641395Y-176535828D01*
X17447831Y-176400292D01*
X17435843Y-176394702D01*
X17400570Y-176370002D01*
X15406819Y-174376251D01*
X15373334Y-174314928D01*
X15370500Y-174288570D01*
X15370500Y-151074423D01*
X15390185Y-151007384D01*
X15406814Y-150986747D01*
X17225416Y-149168144D01*
X17286737Y-149134661D01*
X17356429Y-149139645D01*
X17412362Y-149181517D01*
X17436779Y-149246981D01*
X17435214Y-149277341D01*
X17434938Y-149278905D01*
X17414341Y-149514326D01*
X17414341Y-149514327D01*
X17434936Y-149749730D01*
X17434938Y-149749740D01*
X17496094Y-149977982D01*
X17496096Y-149977986D01*
X17496097Y-149977990D01*
X17568839Y-150133985D01*
X17595965Y-150192157D01*
X17595967Y-150192161D01*
X17731501Y-150385722D01*
X17731506Y-150385729D01*
X17898597Y-150552820D01*
X17898603Y-150552825D01*
X18084158Y-150682752D01*
X18127783Y-150737329D01*
X18134977Y-150806827D01*
X18103454Y-150869182D01*
X18084158Y-150885902D01*
X17898597Y-151015832D01*
X17731505Y-151182924D01*
X17595965Y-151376496D01*
X17595964Y-151376498D01*
X17496098Y-151590662D01*
X17496094Y-151590671D01*
X17434938Y-151818913D01*
X17434936Y-151818923D01*
X17414341Y-152054326D01*
X17414341Y-152054327D01*
X17434936Y-152289730D01*
X17434938Y-152289740D01*
X17496094Y-152517982D01*
X17496096Y-152517986D01*
X17496097Y-152517990D01*
X17568839Y-152673985D01*
X17595965Y-152732157D01*
X17595967Y-152732161D01*
X17731501Y-152925722D01*
X17731506Y-152925729D01*
X17898597Y-153092820D01*
X17898603Y-153092825D01*
X18084158Y-153222752D01*
X18127783Y-153277329D01*
X18134977Y-153346827D01*
X18103454Y-153409182D01*
X18084158Y-153425902D01*
X17898597Y-153555832D01*
X17731505Y-153722924D01*
X17595965Y-153916496D01*
X17595964Y-153916498D01*
X17496098Y-154130662D01*
X17496094Y-154130671D01*
X17434938Y-154358913D01*
X17434936Y-154358923D01*
X17414341Y-154594326D01*
X17414341Y-154594327D01*
X17434936Y-154829730D01*
X17434938Y-154829740D01*
X17496094Y-155057982D01*
X17496096Y-155057986D01*
X17496097Y-155057990D01*
X17568839Y-155213985D01*
X17595965Y-155272157D01*
X17595967Y-155272161D01*
X17731501Y-155465722D01*
X17731506Y-155465729D01*
X17898597Y-155632820D01*
X17898603Y-155632825D01*
X18084158Y-155762752D01*
X18127783Y-155817329D01*
X18134977Y-155886827D01*
X18103454Y-155949182D01*
X18084158Y-155965902D01*
X17898597Y-156095832D01*
X17731505Y-156262924D01*
X17595965Y-156456496D01*
X17595964Y-156456498D01*
X17496098Y-156670662D01*
X17496094Y-156670671D01*
X17434938Y-156898913D01*
X17434936Y-156898923D01*
X17414341Y-157134326D01*
X17414341Y-157134327D01*
X17434936Y-157369730D01*
X17434938Y-157369740D01*
X17496094Y-157597982D01*
X17496096Y-157597986D01*
X17496097Y-157597990D01*
X17568839Y-157753985D01*
X17595965Y-157812157D01*
X17595967Y-157812161D01*
X17731501Y-158005722D01*
X17731506Y-158005729D01*
X17898597Y-158172820D01*
X17898603Y-158172825D01*
X18084158Y-158302752D01*
X18127783Y-158357329D01*
X18134977Y-158426827D01*
X18103454Y-158489182D01*
X18084158Y-158505902D01*
X17898597Y-158635832D01*
X17731505Y-158802924D01*
X17595965Y-158996496D01*
X17595964Y-158996498D01*
X17496098Y-159210662D01*
X17496094Y-159210671D01*
X17434938Y-159438913D01*
X17434936Y-159438923D01*
X17414341Y-159674326D01*
X17414341Y-159674327D01*
X17434936Y-159909730D01*
X17434938Y-159909740D01*
X17496094Y-160137982D01*
X17496096Y-160137986D01*
X17496097Y-160137990D01*
X17595965Y-160352157D01*
X17595967Y-160352161D01*
X17731501Y-160545722D01*
X17731506Y-160545729D01*
X17898597Y-160712820D01*
X17898603Y-160712825D01*
X18084594Y-160843057D01*
X18128219Y-160897634D01*
X18135413Y-160967132D01*
X18103890Y-161029487D01*
X18084595Y-161046207D01*
X17898922Y-161176217D01*
X17898920Y-161176218D01*
X17731891Y-161343247D01*
X17731886Y-161343253D01*
X17596400Y-161536747D01*
X17596399Y-161536749D01*
X17496570Y-161750834D01*
X17496567Y-161750840D01*
X17439364Y-161964326D01*
X17439364Y-161964327D01*
X18336988Y-161964327D01*
X18304075Y-162021334D01*
X18270000Y-162148501D01*
X18270000Y-162280153D01*
X18304075Y-162407320D01*
X18336988Y-162464327D01*
X17439364Y-162464327D01*
X17496567Y-162677813D01*
X17496570Y-162677819D01*
X17596399Y-162891905D01*
X17731894Y-163085409D01*
X17898917Y-163252432D01*
X18092421Y-163387927D01*
X18306507Y-163487756D01*
X18306516Y-163487760D01*
X18520000Y-163544961D01*
X18520000Y-162647339D01*
X18577007Y-162680252D01*
X18704174Y-162714327D01*
X18835826Y-162714327D01*
X18962993Y-162680252D01*
X19020000Y-162647339D01*
X19020000Y-163544960D01*
X19233483Y-163487760D01*
X19233492Y-163487756D01*
X19447578Y-163387927D01*
X19641082Y-163252432D01*
X19808105Y-163085409D01*
X19943600Y-162891905D01*
X20043429Y-162677819D01*
X20043432Y-162677813D01*
X20100636Y-162464327D01*
X19203012Y-162464327D01*
X19235925Y-162407320D01*
X19270000Y-162280153D01*
X19270000Y-162148501D01*
X19235925Y-162021334D01*
X19203012Y-161964327D01*
X20100636Y-161964327D01*
X20100635Y-161964326D01*
X20043432Y-161750840D01*
X20043429Y-161750834D01*
X19943600Y-161536749D01*
X19943599Y-161536747D01*
X19808113Y-161343253D01*
X19808108Y-161343247D01*
X19641078Y-161176217D01*
X19455405Y-161046206D01*
X19411780Y-160991629D01*
X19404588Y-160922131D01*
X19436110Y-160859776D01*
X19455406Y-160843057D01*
X19641401Y-160712822D01*
X19808495Y-160545728D01*
X19944035Y-160352157D01*
X20043903Y-160137990D01*
X20089790Y-159966732D01*
X20126154Y-159907074D01*
X20189001Y-159876544D01*
X20209565Y-159874827D01*
X39183331Y-159874827D01*
X39183347Y-159874828D01*
X39190943Y-159874828D01*
X39349054Y-159874828D01*
X39349057Y-159874828D01*
X39501785Y-159833904D01*
X39551904Y-159804966D01*
X39638716Y-159754847D01*
X39750520Y-159643043D01*
X39750520Y-159643041D01*
X39760728Y-159632834D01*
X39760729Y-159632831D01*
X42750520Y-156643043D01*
X42829577Y-156506111D01*
X42870501Y-156353384D01*
X42870501Y-156195269D01*
X42870501Y-156187674D01*
X42870500Y-156187656D01*
X42870500Y-144363386D01*
X42870501Y-144363373D01*
X42870501Y-144195272D01*
X42870501Y-144195270D01*
X42829577Y-144042542D01*
X42785311Y-143965872D01*
X42750520Y-143905611D01*
X42638716Y-143793807D01*
X42638715Y-143793806D01*
X42634385Y-143789476D01*
X42634374Y-143789466D01*
X41257590Y-142412682D01*
X41257587Y-142412678D01*
X41257587Y-142412679D01*
X41250520Y-142405612D01*
X41250520Y-142405611D01*
X41138716Y-142293807D01*
X41138715Y-142293806D01*
X41134385Y-142289476D01*
X41134374Y-142289466D01*
X33257590Y-134412682D01*
X33257587Y-134412678D01*
X33257587Y-134412679D01*
X33250520Y-134405612D01*
X33250520Y-134405611D01*
X33138716Y-134293807D01*
X33138715Y-134293806D01*
X33134385Y-134289476D01*
X33134374Y-134289466D01*
X27334100Y-128489192D01*
X27300615Y-128427869D01*
X27305599Y-128358177D01*
X27347471Y-128302244D01*
X27402384Y-128279038D01*
X27549638Y-128255716D01*
X27549642Y-128255715D01*
X27753975Y-128189323D01*
X27945416Y-128091779D01*
X28119240Y-127965488D01*
X28271161Y-127813567D01*
X28271166Y-127813561D01*
X28399373Y-127637100D01*
X28454703Y-127594434D01*
X28524316Y-127588455D01*
X28586111Y-127621061D01*
X28600009Y-127637099D01*
X28602119Y-127640003D01*
X28602120Y-127640005D01*
X28728455Y-127813890D01*
X28880437Y-127965872D01*
X29054322Y-128092207D01*
X29148251Y-128140066D01*
X29245829Y-128189785D01*
X29245832Y-128189786D01*
X29436494Y-128251735D01*
X29450245Y-128256203D01*
X29662533Y-128289827D01*
X29662534Y-128289827D01*
X29877466Y-128289827D01*
X29877467Y-128289827D01*
X30089755Y-128256203D01*
X30089758Y-128256202D01*
X30089759Y-128256202D01*
X30294167Y-128189786D01*
X30294170Y-128189785D01*
X30295077Y-128189323D01*
X30485678Y-128092207D01*
X30659563Y-127965872D01*
X30811545Y-127813890D01*
X30937880Y-127640005D01*
X31035458Y-127448497D01*
X31035457Y-127448497D01*
X31037670Y-127444156D01*
X31039377Y-127445025D01*
X31078125Y-127396959D01*
X31144423Y-127374905D01*
X31148828Y-127374827D01*
X34973331Y-127374827D01*
X34973347Y-127374828D01*
X34980943Y-127374828D01*
X35139054Y-127374828D01*
X35139057Y-127374828D01*
X35291785Y-127333904D01*
X35341904Y-127304966D01*
X35428716Y-127254847D01*
X35540520Y-127143043D01*
X35540520Y-127143041D01*
X35550728Y-127132834D01*
X35550730Y-127132831D01*
X35564621Y-127118939D01*
X35625942Y-127085456D01*
X35695634Y-127090440D01*
X35706089Y-127094895D01*
X35731350Y-127107061D01*
X35984922Y-127185277D01*
X35984923Y-127185277D01*
X35984926Y-127185278D01*
X36247311Y-127224826D01*
X36247316Y-127224826D01*
X36247319Y-127224827D01*
X36247320Y-127224827D01*
X36512680Y-127224827D01*
X36512681Y-127224827D01*
X36512688Y-127224826D01*
X36775073Y-127185278D01*
X36775074Y-127185277D01*
X36775078Y-127185277D01*
X37028650Y-127107061D01*
X37053894Y-127094903D01*
X37122834Y-127083549D01*
X37186969Y-127111270D01*
G37*
%TD.AperFunction*%
%TA.AperFunction,Conductor*%
G36*
X21536942Y-137894512D02*
G01*
X21557584Y-137911146D01*
X24903681Y-141257243D01*
X24937166Y-141318566D01*
X24940000Y-141344924D01*
X24940000Y-142329766D01*
X24886853Y-142299082D01*
X24757143Y-142264327D01*
X24622857Y-142264327D01*
X24493147Y-142299082D01*
X24440000Y-142329766D01*
X24440000Y-141259327D01*
X23777155Y-141259327D01*
X23717627Y-141265728D01*
X23717620Y-141265730D01*
X23582913Y-141315972D01*
X23582906Y-141315976D01*
X23467812Y-141402136D01*
X23467809Y-141402139D01*
X23381649Y-141517233D01*
X23381645Y-141517240D01*
X23331403Y-141651947D01*
X23331401Y-141651954D01*
X23325000Y-141711482D01*
X23325000Y-142524327D01*
X24245440Y-142524327D01*
X24214755Y-142577474D01*
X24180000Y-142707184D01*
X24180000Y-142841470D01*
X24214755Y-142971180D01*
X24245440Y-143024327D01*
X23325000Y-143024327D01*
X23325000Y-143837171D01*
X23331401Y-143896699D01*
X23331403Y-143896706D01*
X23381645Y-144031413D01*
X23381649Y-144031420D01*
X23467809Y-144146514D01*
X23467812Y-144146517D01*
X23582906Y-144232677D01*
X23582913Y-144232681D01*
X23717620Y-144282923D01*
X23717627Y-144282925D01*
X23777155Y-144289326D01*
X23777172Y-144289327D01*
X24440000Y-144289327D01*
X24440000Y-143218887D01*
X24493147Y-143249572D01*
X24622857Y-143284327D01*
X24757143Y-143284327D01*
X24886853Y-143249572D01*
X24940000Y-143218887D01*
X24940000Y-144289327D01*
X25602828Y-144289327D01*
X25602844Y-144289326D01*
X25662372Y-144282925D01*
X25662379Y-144282923D01*
X25797086Y-144232681D01*
X25797093Y-144232677D01*
X25912187Y-144146517D01*
X25912190Y-144146514D01*
X25998350Y-144031420D01*
X25998355Y-144031411D01*
X26041659Y-143915306D01*
X26083529Y-143859372D01*
X26148994Y-143834954D01*
X26217267Y-143849805D01*
X26245522Y-143870957D01*
X26340437Y-143965872D01*
X26514322Y-144092207D01*
X26608251Y-144140066D01*
X26705829Y-144189785D01*
X26705832Y-144189786D01*
X26837839Y-144232677D01*
X26910245Y-144256203D01*
X27122533Y-144289827D01*
X27122534Y-144289827D01*
X27337466Y-144289827D01*
X27337467Y-144289827D01*
X27549755Y-144256203D01*
X27549758Y-144256202D01*
X27549759Y-144256202D01*
X27754167Y-144189786D01*
X27754170Y-144189785D01*
X27839088Y-144146517D01*
X27945678Y-144092207D01*
X28119563Y-143965872D01*
X28271545Y-143813890D01*
X28397880Y-143640005D01*
X28397879Y-143640005D01*
X28399682Y-143637525D01*
X28455012Y-143594859D01*
X28524625Y-143588880D01*
X28586420Y-143621486D01*
X28600318Y-143637525D01*
X28602120Y-143640005D01*
X28728455Y-143813890D01*
X28880437Y-143965872D01*
X29054322Y-144092207D01*
X29148251Y-144140066D01*
X29245829Y-144189785D01*
X29245832Y-144189786D01*
X29377839Y-144232677D01*
X29450245Y-144256203D01*
X29662533Y-144289827D01*
X29662534Y-144289827D01*
X29877466Y-144289827D01*
X29877467Y-144289827D01*
X30089755Y-144256203D01*
X30089758Y-144256202D01*
X30089759Y-144256202D01*
X30294167Y-144189786D01*
X30294170Y-144189785D01*
X30379088Y-144146517D01*
X30485678Y-144092207D01*
X30659563Y-143965872D01*
X30811545Y-143813890D01*
X30937880Y-143640005D01*
X31035458Y-143448497D01*
X31035457Y-143448497D01*
X31037670Y-143444156D01*
X31039377Y-143445025D01*
X31078125Y-143396959D01*
X31144423Y-143374905D01*
X31148828Y-143374827D01*
X40469903Y-143374827D01*
X40536942Y-143394512D01*
X40557584Y-143411146D01*
X41633181Y-144486743D01*
X41666666Y-144548066D01*
X41669500Y-144574424D01*
X41669500Y-155974229D01*
X41649815Y-156041268D01*
X41633181Y-156061910D01*
X39057584Y-158637508D01*
X38996261Y-158670993D01*
X38969903Y-158673827D01*
X28197380Y-158673827D01*
X28130341Y-158654142D01*
X28084586Y-158601338D01*
X28074642Y-158532180D01*
X28103667Y-158468624D01*
X28132589Y-158444100D01*
X28135672Y-158442210D01*
X28135678Y-158442207D01*
X28309563Y-158315872D01*
X28461545Y-158163890D01*
X28587880Y-157990005D01*
X28685458Y-157798497D01*
X28685459Y-157798494D01*
X28751875Y-157594086D01*
X28751875Y-157594085D01*
X28751876Y-157594082D01*
X28785500Y-157381794D01*
X28785500Y-157166860D01*
X28751876Y-156954572D01*
X28751875Y-156954568D01*
X28751875Y-156954567D01*
X28685459Y-156750159D01*
X28685458Y-156750156D01*
X28587879Y-156558648D01*
X28461545Y-156384764D01*
X28309563Y-156232782D01*
X28257931Y-156195269D01*
X28133198Y-156104645D01*
X28090532Y-156049315D01*
X28084553Y-155979702D01*
X28117159Y-155917907D01*
X28133198Y-155904009D01*
X28187815Y-155864327D01*
X28309563Y-155775872D01*
X28461545Y-155623890D01*
X28587880Y-155450005D01*
X28654094Y-155320051D01*
X28702068Y-155269256D01*
X28769889Y-155252461D01*
X28836024Y-155274998D01*
X28852260Y-155288666D01*
X28919707Y-155356113D01*
X28919711Y-155356116D01*
X29050814Y-155443717D01*
X29050827Y-155443724D01*
X29103953Y-155465729D01*
X29196503Y-155504064D01*
X29351153Y-155534826D01*
X29351156Y-155534827D01*
X29351158Y-155534827D01*
X29508844Y-155534827D01*
X29508845Y-155534826D01*
X29663497Y-155504064D01*
X29809179Y-155443721D01*
X29940289Y-155356116D01*
X30051789Y-155244616D01*
X30139394Y-155113506D01*
X30199737Y-154967824D01*
X30230500Y-154813169D01*
X30230500Y-154655485D01*
X30230500Y-154655482D01*
X30230499Y-154655480D01*
X30218335Y-154594327D01*
X30199737Y-154500830D01*
X30140954Y-154358913D01*
X30139397Y-154355154D01*
X30139390Y-154355141D01*
X30051789Y-154224038D01*
X30051786Y-154224034D01*
X29940292Y-154112540D01*
X29940288Y-154112537D01*
X29809185Y-154024936D01*
X29809172Y-154024929D01*
X29663501Y-153964591D01*
X29663489Y-153964588D01*
X29508845Y-153933827D01*
X29508842Y-153933827D01*
X29351158Y-153933827D01*
X29351155Y-153933827D01*
X29196510Y-153964588D01*
X29196498Y-153964591D01*
X29050827Y-154024929D01*
X29050814Y-154024936D01*
X28919711Y-154112537D01*
X28852260Y-154179988D01*
X28790936Y-154213472D01*
X28721245Y-154208487D01*
X28665311Y-154166616D01*
X28654094Y-154148601D01*
X28591083Y-154024936D01*
X28587880Y-154018649D01*
X28461545Y-153844764D01*
X28309563Y-153692782D01*
X28135678Y-153566447D01*
X28133198Y-153564645D01*
X28090532Y-153509315D01*
X28084553Y-153439702D01*
X28117159Y-153377907D01*
X28133198Y-153364009D01*
X28187815Y-153324327D01*
X28309563Y-153235872D01*
X28461545Y-153083890D01*
X28587880Y-152910005D01*
X28685458Y-152718497D01*
X28685459Y-152718494D01*
X28751875Y-152514086D01*
X28751875Y-152514085D01*
X28751876Y-152514082D01*
X28785500Y-152301794D01*
X28785500Y-152086860D01*
X28751876Y-151874572D01*
X28751875Y-151874568D01*
X28751875Y-151874567D01*
X28685459Y-151670159D01*
X28685458Y-151670156D01*
X28587879Y-151478648D01*
X28461545Y-151304764D01*
X28367018Y-151210237D01*
X28333533Y-151148914D01*
X28338517Y-151079222D01*
X28380389Y-151023289D01*
X28411362Y-151006376D01*
X28527331Y-150963123D01*
X28642546Y-150876873D01*
X28728796Y-150761658D01*
X28779091Y-150626810D01*
X28785500Y-150567200D01*
X28785499Y-148741455D01*
X28779091Y-148681844D01*
X28728796Y-148546996D01*
X28728795Y-148546995D01*
X28728793Y-148546991D01*
X28642547Y-148431782D01*
X28642544Y-148431779D01*
X28527335Y-148345533D01*
X28527328Y-148345529D01*
X28392482Y-148295235D01*
X28392483Y-148295235D01*
X28332883Y-148288828D01*
X28332881Y-148288827D01*
X28332873Y-148288827D01*
X28332864Y-148288827D01*
X26207129Y-148288827D01*
X26207123Y-148288828D01*
X26147516Y-148295235D01*
X26012671Y-148345529D01*
X26012664Y-148345533D01*
X25897455Y-148431779D01*
X25897452Y-148431782D01*
X25811206Y-148546991D01*
X25811202Y-148546998D01*
X25760908Y-148681844D01*
X25758232Y-148706739D01*
X25754501Y-148741450D01*
X25754500Y-148741462D01*
X25754500Y-148789827D01*
X25734815Y-148856866D01*
X25682011Y-148902621D01*
X25630500Y-148913827D01*
X20059091Y-148913827D01*
X19992052Y-148894142D01*
X19946711Y-148842236D01*
X19944037Y-148836502D01*
X19944034Y-148836497D01*
X19808494Y-148642924D01*
X19641402Y-148475833D01*
X19641396Y-148475828D01*
X19455842Y-148345902D01*
X19412217Y-148291325D01*
X19405023Y-148221827D01*
X19436546Y-148159472D01*
X19455842Y-148142752D01*
X19517556Y-148099539D01*
X19641401Y-148012822D01*
X19808495Y-147845728D01*
X19944035Y-147652157D01*
X20043903Y-147437990D01*
X20105063Y-147209735D01*
X20125659Y-146974327D01*
X20105063Y-146738919D01*
X20043903Y-146510664D01*
X19944035Y-146296498D01*
X19808495Y-146102926D01*
X19808494Y-146102924D01*
X19641402Y-145935833D01*
X19641396Y-145935828D01*
X19455842Y-145805902D01*
X19412217Y-145751325D01*
X19405023Y-145681827D01*
X19436546Y-145619472D01*
X19455842Y-145602752D01*
X19478026Y-145587218D01*
X19641401Y-145472822D01*
X19808495Y-145305728D01*
X19944035Y-145112157D01*
X20043903Y-144897990D01*
X20105063Y-144669735D01*
X20125659Y-144434327D01*
X20105063Y-144198919D01*
X20043903Y-143970664D01*
X19944035Y-143756498D01*
X19826669Y-143588880D01*
X19808494Y-143562924D01*
X19641402Y-143395833D01*
X19641396Y-143395828D01*
X19455842Y-143265902D01*
X19412217Y-143211325D01*
X19405023Y-143141827D01*
X19436546Y-143079472D01*
X19455842Y-143062752D01*
X19586620Y-142971180D01*
X19641401Y-142932822D01*
X19808495Y-142765728D01*
X19944035Y-142572157D01*
X20043903Y-142357990D01*
X20105063Y-142129735D01*
X20125659Y-141894327D01*
X20105063Y-141658919D01*
X20058626Y-141485612D01*
X20043905Y-141430671D01*
X20043904Y-141430670D01*
X20043903Y-141430664D01*
X19944035Y-141216498D01*
X19808495Y-141022926D01*
X19808494Y-141022924D01*
X19641402Y-140855833D01*
X19641396Y-140855828D01*
X19455842Y-140725902D01*
X19412217Y-140671325D01*
X19405023Y-140601827D01*
X19436546Y-140539472D01*
X19455842Y-140522752D01*
X19478026Y-140507218D01*
X19641401Y-140392822D01*
X19808495Y-140225728D01*
X19944035Y-140032157D01*
X20043903Y-139817990D01*
X20105063Y-139589735D01*
X20125659Y-139354327D01*
X20105063Y-139118919D01*
X20043903Y-138890664D01*
X19944035Y-138676498D01*
X19808495Y-138482926D01*
X19808494Y-138482924D01*
X19641402Y-138315833D01*
X19641401Y-138315832D01*
X19455842Y-138185902D01*
X19455841Y-138185901D01*
X19412216Y-138131324D01*
X19405024Y-138061825D01*
X19436546Y-137999471D01*
X19455836Y-137982755D01*
X19577949Y-137897252D01*
X19644155Y-137874925D01*
X19649072Y-137874827D01*
X21469903Y-137874827D01*
X21536942Y-137894512D01*
G37*
%TD.AperFunction*%
%TA.AperFunction,Conductor*%
G36*
X32536942Y-135394512D02*
G01*
X32557584Y-135411146D01*
X39108584Y-141962146D01*
X39142069Y-142023469D01*
X39137085Y-142093161D01*
X39095213Y-142149094D01*
X39029749Y-142173511D01*
X39020903Y-142173827D01*
X31148828Y-142173827D01*
X31081789Y-142154142D01*
X31038434Y-142104108D01*
X31037670Y-142104498D01*
X31036096Y-142101410D01*
X31036034Y-142101338D01*
X31035881Y-142100988D01*
X31031893Y-142093161D01*
X30937880Y-141908649D01*
X30811545Y-141734764D01*
X30659563Y-141582782D01*
X30485678Y-141456447D01*
X30435076Y-141430664D01*
X30294170Y-141358868D01*
X30294167Y-141358867D01*
X30089757Y-141292451D01*
X29948229Y-141270035D01*
X29877467Y-141258827D01*
X29662533Y-141258827D01*
X29591770Y-141270035D01*
X29450243Y-141292451D01*
X29450240Y-141292451D01*
X29245832Y-141358867D01*
X29245829Y-141358868D01*
X29054321Y-141456447D01*
X28970657Y-141517233D01*
X28880437Y-141582782D01*
X28880435Y-141582784D01*
X28880434Y-141582784D01*
X28728457Y-141734761D01*
X28728457Y-141734762D01*
X28728455Y-141734764D01*
X28710732Y-141759158D01*
X28600318Y-141911129D01*
X28544988Y-141953794D01*
X28475374Y-141959773D01*
X28413579Y-141927167D01*
X28399682Y-141911129D01*
X28386836Y-141893448D01*
X28271545Y-141734764D01*
X28119563Y-141582782D01*
X27945678Y-141456447D01*
X27895076Y-141430664D01*
X27754170Y-141358868D01*
X27754167Y-141358867D01*
X27549757Y-141292451D01*
X27408229Y-141270035D01*
X27337467Y-141258827D01*
X27122533Y-141258827D01*
X27051770Y-141270035D01*
X26910243Y-141292451D01*
X26910240Y-141292451D01*
X26776548Y-141335891D01*
X26706707Y-141337886D01*
X26650549Y-141305641D01*
X22431416Y-137086508D01*
X22397931Y-137025185D01*
X22402915Y-136955493D01*
X22444787Y-136899560D01*
X22510251Y-136875143D01*
X22519097Y-136874827D01*
X25643331Y-136874827D01*
X25643347Y-136874828D01*
X25650943Y-136874828D01*
X25809054Y-136874828D01*
X25809057Y-136874828D01*
X25961785Y-136833904D01*
X26031233Y-136793808D01*
X26098716Y-136754847D01*
X26210520Y-136643043D01*
X26210520Y-136643041D01*
X26220724Y-136632838D01*
X26220728Y-136632833D01*
X26620359Y-136233201D01*
X26681680Y-136199718D01*
X26746356Y-136202953D01*
X26900408Y-136253006D01*
X26910245Y-136256203D01*
X27122533Y-136289827D01*
X27122534Y-136289827D01*
X27337466Y-136289827D01*
X27337467Y-136289827D01*
X27549755Y-136256203D01*
X27549758Y-136256202D01*
X27549759Y-136256202D01*
X27754167Y-136189786D01*
X27754170Y-136189785D01*
X27782029Y-136175590D01*
X27945678Y-136092207D01*
X28119563Y-135965872D01*
X28271545Y-135813890D01*
X28379205Y-135665708D01*
X28399682Y-135637525D01*
X28455012Y-135594859D01*
X28524625Y-135588880D01*
X28586420Y-135621486D01*
X28600318Y-135637525D01*
X28626693Y-135673827D01*
X28728455Y-135813890D01*
X28880437Y-135965872D01*
X29054322Y-136092207D01*
X29141244Y-136136496D01*
X29245829Y-136189785D01*
X29245832Y-136189786D01*
X29436494Y-136251735D01*
X29450245Y-136256203D01*
X29662533Y-136289827D01*
X29662534Y-136289827D01*
X29877466Y-136289827D01*
X29877467Y-136289827D01*
X30089755Y-136256203D01*
X30089758Y-136256202D01*
X30089759Y-136256202D01*
X30294167Y-136189786D01*
X30294170Y-136189785D01*
X30322029Y-136175590D01*
X30485678Y-136092207D01*
X30659563Y-135965872D01*
X30811545Y-135813890D01*
X30937880Y-135640005D01*
X31035458Y-135448497D01*
X31035457Y-135448497D01*
X31037670Y-135444156D01*
X31039377Y-135445025D01*
X31078125Y-135396959D01*
X31144423Y-135374905D01*
X31148828Y-135374827D01*
X32469903Y-135374827D01*
X32536942Y-135394512D01*
G37*
%TD.AperFunction*%
%TD*%
M02*
